<?xml version="1.0" encoding="UTF-8"?><svg id="Layer_1" xmlns="http://www.w3.org/2000/svg" viewBox="0 0 300 200"><defs><style>.cls-1,.cls-2,.cls-3{stroke-width:0px;}.cls-2{fill:#898888;}.cls-3{fill:#d3d1d1;}</style></defs><g id="clap"><path class="cls-2" d="m197.8803,90.7725c.914-2.4475,3.7198-4.6815,4.4742-7.2502,4.1248-7.9705,6.3623-16.1811,10.8009-23.9845,3.3953-5.9692-4.0752-10.6405-8.8984-6.866-8.2723,6.4734-11.1008,15.8867-13.992,25.342-2.8722,5.5594-5.686,11.1492-8.393,16.7927-1.0208,2.128-2.6522,8.896-3.65,11.0349-.4114.5166-3.4903.1835-3.9058.6975,1.4668-11.2222,7.3454-26.0488,10.7989-36.8201,1.3185-3.05,2.4485-6.191,3.2747-9.4814,1.804-7.1835-8.4115-9.7525-10.9268-3.0123-1.0917,2.9254-2.8888,2.6816-3.8443,5.6522-5.1786,11.9597-12.7402,25.7307-16.3979,38.4116-1.3878,4.8113-2.0578,9.7734-2.3345,14.7678-.1913.0145-8.3116.0432-8.4997.077-5.1058-5.5999-3.0548-10.4745-9.5527-14.4877-.6938-.4285-1.3799-.6791-2.045-.7956-.6155-2.3974-1.2311-4.7947-1.8465-7.192-1.8122-7.0584-14.1489-5.9159-12.3314,1.1631,3.3423,13.0182,8.0892,27.8856,11.4315,40.9037,1.6711,6.5091,3.3423,13.0181,5.0134,19.5272,1.478,5.7564,2.4999,12.0821,5.939,17.0607,7.7948,11.2843,22.102,15.7742,34.9482,12.761,1.267,1.7353,3.4064.9383,5.9187.3257,6.3873-1.5575,11.3101-6.1047,13.2779-12.2676,1.2392-.3701,2.3338-1.1766,2.9842-2.503,5.2898-10.785,10.9962-21.3437,17.0916-31.6738,7.3752-8.2108,13.2271-17.5026,17.6809-27.7052.035-.0508.0686-.1026.1037-.1534l-.0296-.0124c.1956-.45.4105-.8875.6006-1.341,2.6237-6.2559-6.9552-9.2948-10.3555-4.3658-5.1174,7.4182-10.0069,14.9801-14.6805,22.6707-1.2043-1.9047-2.8081-3.5138-4.7914-4.7324.5468-2.6558,1.6602-5.9104,2.8818-9.0165,6.6622-10.9669,13.0256-22.1513,19.609-33.0975,3.8284-6.3655-5.6089-11.5355-9.7844-5.7193-7.4932,10.4371-14.8678,21.0041-19.8567,32.8757-1.6488,2.7143-3.2877,5.4347-4.9434,8.1449-.4327.7082-.8615,1.4307-1.2908,2.1607-1.6889-2.2819-1.2887-4.4029-2.9776-6.6849"/><path class="cls-3" d="m152.4433,63.2361c1.6557-7.3728,3.2725-14.7544,4.8596-22.1424,1.5277-7.111-9.3936-10.1498-10.9268-3.0124-2.8321,13.1831-6.2944,26.3023-8.7922,39.5488-.0138.0728-.0235.1459-.0371.2188-2.4826-.2736-5.3529-.8034-6.8802-2.603.3013-1.6463.4598-3.3494.5765-5.0784.4213-6.2365,1.0045-12.4312,1.7592-18.6,1.374-8.2835,2.7479-16.567,4.1218-24.8505,1.1709-7.0597-9.3813-10.2437-10.9268-3.0124-1.4231,6.6589-2.6143,13.3581-3.6002,20.0905-1.5743,8.6664-3.0564,17.3548-3.9504,26.0424-.1935,1.8801-.1455,3.5879.0986,5.1479-.6439,1.1091-1.6636,2.1018-3.3282,3.1099-1.5884.962-3.2658,1.7928-4.8967,2.6822-.2603.1418-.5204.2837-.7806.4255.0759-1.697-.3349-4.3403-.3663-5.4653-.0635-2.2692-.1116-4.539-.1423-6.8089.3381-11.5106,1.2614-22.9965,2.7388-34.4265.8163-6.3151-9.8343-7.7174-11.1292-1.5062-2.451,11.7566-3.0415,23.6575-2.9318,35.6094-.1914,6.3052-.2134,12.6172-.0411,18.9309.0134.4886.038.9771.0533,1.4657-.2766.3786-.5367.7865-.7721,1.2355-.5169.9849-.7663,2.0652-.9387,3.1563-.121.7652.2221,2.891-.0952,3.4213-.9677,1.6165-3.9191,1.44-5.5565,1.2137-1.6023-.2216-3.0253-.7518-4.2773-1.5181-1.8378-2.4333-3.7581-4.8001-5.8304-7.04-1.8624-2.0129-3.7195-4.1594-5.5098-3.321-1.6268-2.3164-3.588-2.6668-5.2735-4.9425-4.2926-5.7961-15.5609-1.4837-11.2131,4.3867,10.2754,13.8747,20.8081,29.8331,28.7552,45.1597,2.9383,5.6671,5.9753,11.5963,10.7121,16.0085,2.2494,2.0951,4.7987,3.7993,7.6495,4.9497,1.4429.5822,3.2284,3.0003,4.7512,3.3482,1.9422,2.1545,4.312,1.392,7.2617,1.5597.2573.1608.5263.3004.8062.4148,4.7231,1.9302,9.469,2.0195,14.3556.6326,2.6759-.7594,5.1416-4.1105,3.9572-6.9695-4.3662-10.54-7.8182-21.4109-10.1466-32.585-1.9559-9.3867-.2166-18.6395-7.3929-25.8837-.0909-.0916,0-1.6143-.0947-1.7047,2.9618-1.5228,3.7281-.7188,6.1559-2.8412,1.485.981,1.7073.4045,3.5042,1.0418.113.6479,1.8714-.0059,2.2791.5856,5.2678,7.6432,9.9974,15.5826,14.2105,23.8546,1.5703,3.0835,6.6042,3.8427,8.8984,1.1467,9.4762-11.1355-6.621-19.108-6.0066-30.4672.3704-6.8466,2.8329-13.931,4.3326-20.6082Z"/><path id="hand_front" class="cls-1" d="m179.9059,50.3699c-2.1896.3745-3.9608,1.5991-5.3276,3.0227-2.7335,2.8473-4.2376,6.641-5.1656,9.4624-5.2767,16.0253-11.1546,31.89-16.9111,47.8401-.4235,1.1723-1.006,2.3812-1.5653,3.082-.5594.7011-.7891.7893-1.1443.7774-.2421,0-.5009-.094-.9932-.5668-.4915-.4715-1.0674-1.2782-1.6031-2.1429h0c-3.6427-5.8868-6.9974-12.3767-11.1841-18.3578-1.6007-2.2875-3.7123-4.7504-6.5907-6.229-2.8783-1.4785-6.9313-1.5087-10.1316,1.1118-2.1934,1.7955-2.8154,4.6813-2.4398,6.7798.3756,2.0982,1.288,3.7688,1.8353,5.0682,1.6104,3.821,3.2713,7.5431,4.696,11.2815h.0055c2.8753,7.5423,4.46,15.4993,5.8188,23.6853h0c.6336,3.813,1.2106,7.6658,1.8838,11.546h0c2.4025,13.7939,7.0869,27.0636,20.0526,35.3174,13.5972,8.6535,31.1053,10.3214,44.1265-1.0364h.0055c7.6462-6.5606,12.7478-15.2385,17.1918-23.5827,4.2122-7.9109,8.462-15.7824,13.0463-23.3937h.0055c4.4488-7.3881,9.0754-14.9466,12.5983-23.1403h0c.6764-1.5783,1.715-3.7602,1.2145-6.4611-.6361-3.4101-3.5735-5.8169-7.0441-5.7594-3.8916.0636-6.2855,2.9134-7.8915,4.966-4.4232,5.6517-7.9032,11.7494-11.6484,17.3861-.5943.8943-1.1613,1.808-1.7057,2.5152.047-.3681-.0166-.4018.1081-.8852.6836-2.6816,2.4622-6.7718,4.6475-11.0598,4.3704-8.5764,10.2648-18.0389,12.4796-21.9958h.0055c.9698-1.7339,3.0877-5.0072,4.1185-8.6472.5154-1.8199.7945-3.8199.2429-5.8675-.5516-2.0473-2.1018-3.9736-4.3344-5.0953-2.501-1.2564-5.3693-.9855-7.4705.1824-2.1011,1.169-3.6616,2.9706-5.0253,4.9118-2.7274,3.8826-4.7072,8.63-5.862,10.7685-4.6321,8.5761-9.2306,17.0904-14.1475,25.4233h0c-.8871,1.5059-1.7095,2.2756-2.0026,2.3157.0055,0-.3925-.2736-.3886-.2598-.0464-.1713.0578-.9059.5128-2.0564,5.9389-15.0254,14.0336-29.3386,20.9972-44.3424.6742-1.4517,1.663-3.3404,2.1807-5.5488.5177-2.2084.439-5.0633-1.3656-7.3464-2.9373-3.7151-8.0114-4.6179-12.1179-2.85-2.7816,1.1986-3.9982,3.6222-4.8904,5.3545-2.0453,3.9733-6.193,13.8218-10.5688,23.8527-4.3758,10.0307-9.0731,20.318-11.2003,23.6095-.2603.4029-.6751.7434-1.1065,1.2091.1318-.6169.2706-1.247.5128-2.1319.6459-2.3613,1.6362-5.4839,2.7421-8.7983,2.2117-6.6292,4.8926-14.0316,6.337-18.0502,1.0786-3.001,2.92-7.5624,3.9133-11.9721.4967-2.2048.8078-4.379.5884-6.499-.2194-2.1198-1.1382-4.4114-3.1793-5.7324-2.2511-1.4571-4.6709-2.0424-6.8605-1.6679l-.0006.0072Zm.9338,5.4517c.7026-.1202,1.5412-.0434,2.9256.8527.3246.21.5632.5331.6801,1.6626.1169,1.1295-.0575,2.8402-.4804,4.7175-.8458,3.755-2.5811,8.1378-3.7245,11.3191-1.4381,4.0015-4.1348,11.4338-6.3801,18.1635-1.1227,3.3647-2.1323,6.5507-2.8284,9.0952-.348,1.2724-.6179,2.3773-.788,3.3305-.0851.4767-.1487.9156-.1727,1.371-.0249.4552-.0909.8871.2266,1.7325.5744,1.5338,1.5562,2.9369,3.1415,3.5303,1.5853.5931,3.1329.1078,4.1562-.4751,2.0466-1.1685,3.2136-2.883,4.0051-4.1076,2.8556-4.4191,7.2349-14.3301,11.6267-24.398,4.391-10.0657,8.7065-20.2092,10.4176-23.5341h0c.9072-1.7616,1.222-2.403,2.1591-2.807,1.5811-.6805,4.6105-.0442,5.5975,1.2038.5721.7238.6209,1.3652.3185,2.6556-.3025,1.2903-1.0811,2.9082-1.8136,4.4857-6.838,14.733-14.9942,29.1321-21.1214,44.634-.5067,1.2812-1.3462,3.1931-.7071,5.5433.7887,2.9051,3.4911,4.691,6.4719,4.2859,3.4192-.4682,4.9987-3.2652,6.0131-4.9875h0c4.9871-8.4523,9.6191-17.0279,14.25-25.6016,1.4596-2.7034,3.3134-7.0741,5.5219-10.218,1.1042-1.572,2.2874-2.7578,3.19-3.2603.9026-.5022,1.296-.5823,2.3049-.0746,1.0838.5447,1.301.9518,1.4736,1.5924.1725.6403.1307,1.6822-.2214,2.9256-.7041,2.4862-2.4995,5.4378-3.6273,7.4541-1.9943,3.5629-8.0467,13.2846-12.5821,22.1849-2.2677,4.45-4.1792,8.6734-5.0793,12.2043-.4501,1.7654-.7308,3.3573-.3293,5.0793.2006.8609.6439,1.8008,1.4304,2.5152.7865.7147,1.8383,1.0939,2.8015,1.1768,2.4911.2128,4.2593-1.342,5.3491-2.6288,1.0898-1.2865,1.8414-2.649,2.3049-3.3465,3.8825-5.8434,7.3003-11.8091,11.3946-17.0406,1.3566-1.7336,2.7211-2.83,3.6327-2.8446.5347,0,1.4121.7111,1.5168,1.2414.113.6099-.2081,1.7596-.8582,3.2766-3.314,7.7059-7.7984,15.0644-12.2583,22.4707-4.6739,7.76-8.9643,15.7122-13.1867,23.6422-4.3631,8.1926-9.1971,16.2267-15.9342,22.0011h-.0166c-10.9944,9.5926-25.4216,8.2462-37.5305.5397-11.2328-7.1507-15.2739-18.3915-17.5751-31.6037-.6589-3.7972-1.2353-7.6379-1.8784-11.5081-1.3772-8.2967-3.016-16.6374-6.1102-24.754-1.4992-3.9338-3.1873-7.7081-4.7662-11.4542-.6632-1.5747-1.3299-3.0035-1.4898-3.897-.16-.8935-.2755-.891.502-1.5275,1.7439-1.4283,2.5892-1.2525,4.1023-.4751,1.5131.7771,3.2842,2.6166,4.5881,4.4801h0c3.8988,5.5699,7.2153,11.9591,11.0114,18.0933h0c.6187.9991,1.3787,2.1684,2.4776,3.2224,1.0989,1.0541,2.6871,2.0412,4.6367,2.1051,2.4499.0829,4.445-1.3503,5.646-2.8554,1.2011-1.5051,1.9152-3.1859,2.4452-4.6529,5.7458-15.9203,11.646-31.8369,16.9651-47.9912.7964-2.4212,2.2716-5.6638,3.9025-7.3626.8155-.8495,1.5698-1.2779,2.2725-1.398l.0005.0158Zm-39.6628-4.7343c-1.9954,9.192-4.0598,18.7017-6.4393,27.9599-.0055.0276-.0221.0746-.0276.105,1.625.9341,3.1865,2.1142,4.6789,3.5181.3399-.8567.5527-1.6637.702-2.2441,2.4044-9.3632,4.4799-18.9199,6.4863-28.1617l.0857-.3924c.1741-.8097.351-1.8157.5444-2.935.6716-3.847,1.9152-11.0021,4.5379-12.8261.514-.3537,1.0198-.456,1.7356-.3206,1.1469.2128,1.578.6799,1.824,1.064,1.4095,2.1805.1603,7.2629-.5113,9.9933l-.2681,1.1055c-.2819,1.205-.7379,2.9626-1.2879,5.0906-5.7069,22.0899-8.0809,34.8303-4.2588,38.8735.0055,0,.0138,0,.0193.0276,1.2796-3.5375,2.5536-7.0998,3.8276-10.676.6909-5.6876,2.6172-14.6528,5.765-26.8323.5638-2.1805,1.0308-3.9852,1.3183-5.2233l.2543-1.0391c.9286-3.789,2.4845-10.126-.2128-14.3129-1.1939-1.8461-3.0787-3.0566-5.461-3.5015-2.1308-.3952-4.1759.0221-5.9004,1.216-4.513,3.1395-5.8506,10.8114-6.8262,16.4161-.1796,1.0364-.3427,1.965-.5057,2.7111l-.0801.3952v-.011Zm-18.0908,104.6842c-3.4794-.1299-6.8925-.7103-10.0293-1.6333-13.6082-3.9879-20.6113-15.1171-25.666-25.4753-1.0143-2.0838-2.0036-4.1814-2.9903-6.2762-.666-1.4233-1.3348-2.841-2.0147-4.2588-3.5126-7.3458-7.4895-15.1061-12.7432-22.076-1.824-2.421-3.7558-4.7811-5.6295-7.0666l-2.8134-3.4324c-2.1999-2.6282-2.3629-3.2722-1.7826-4.1178.9037-1.3127,1.777-1.5725,2.3519-1.6582,1.7687-.257,4.3527.8678,7.1136,3.0925,3.3827,2.7277,6.6631,5.87,9.8386,8.91,1.9124,1.8323,3.8249,3.6591,5.7705,5.4195,1.3625,1.2243,4.5517,4.1095,8.3158,3.1395,3.4186-.865,5.3311-4.0487,5.6876-9.46l.6329-9.6009c.8982-13.4949,1.824-27.4486,2.327-41.2116.1796-4.9386,1.3404-8.6392,3.1008-9.8966.5334-.3841,1.4785-.818,3.4435-.2294,2.7719.8374,1.9456,12.2236,1.6748,15.9628l-.2183,3.2418c-1.8738,29.1759-1.2602,32.3652-.1133,33.9045.2736.3676.55.6716.8291.9424.912-1.216,1.9428-2.2524,2.9903-3.1119,2.1971-1.7991,4.6457-3.0538,7.2131-3.753,1.5974-6.6853,3.3689-20.5145,4.9469-32.8709,1.0004-7.8294,1.8655-14.592,2.4596-17.6182.3399-1.7411.5361-2.6034,1.2796-3.2141,1.5255-1.2519,4.2422-1.4454,5.7097-.4007,1.4178,1.0143,1.1497,3.4932.6495,6.6217l-.1023.6495c-.912,5.9197-2.023,11.9389-3.1008,17.7592-1.7245,9.3329-3.4684,18.9587-4.5103,28.6121,1.8406.2653,3.6314.8374,5.3725,1.6471,1.0032-9.7971,2.8079-19.6799,4.5738-29.2533,1.0861-5.8589,2.2026-11.9196,3.1284-17.9195l.0967-.6246c.5666-3.5458,1.4205-8.9072-2.8963-11.9887-3.5043-2.4983-8.9597-2.2247-12.4309.6273-2.3104,1.9014-2.7802,4.303-3.2114,6.5056-.6135,3.1174-1.4868,9.9657-2.4983,17.8974-1.6223,12.6908-3.6397,28.485-5.226,33.7497-.2128.7158-.4864,1.3487-.7462,1.8434-.3068-3.4877.058-13.4341,1.0999-29.6513l.2156-3.1948c.5969-8.244,1.415-19.539-5.5909-21.6532-3.9631-1.1994-6.6797-.105-8.255,1.0226-4.1482,2.9626-5.2343,9.3522-5.4085,14.1913-.5002,13.68-1.426,27.5923-2.3187,41.0513l-.6329,9.6064c-.199,3.0566-.9507,4.3168-1.5311,4.4605-.9037.2432-2.6724-1.3597-3.25-1.8848-1.9041-1.7218-3.7779-3.5126-5.6517-5.309-3.2583-3.1202-6.6245-6.3453-10.1923-9.2195-2.8383-2.2855-7.1026-4.8668-11.3807-4.2615-2.4403.3565-4.5517,1.7356-6.1077,3.9935-3.134,4.5545.1409,8.465,2.0976,10.8003l2.7747,3.3882c1.8627,2.2717,3.7254,4.5434,5.4886,6.887,4.9635,6.583,8.7829,14.0504,12.1711,21.1364.6743,1.4067,1.3376,2.8189,2.0009,4.2256.9977,2.1197,1.9981,4.2394,3.0262,6.3453,5.5853,11.4443,13.4064,23.7618,29.0763,28.3578,4.4826,1.3155,8.8796,1.9539,13.0831,1.9539.0249,0,.047-.0028.0719-.0028-.6025-1.8876-1.1193-3.7668-1.5697-5.6212Z"/></g></svg>