<?xml version="1.0" encoding="UTF-8"?><svg id="Layer_1" xmlns="http://www.w3.org/2000/svg" viewBox="0 0 300 200"><defs><style>.cls-1{stroke:#fef5b7;}.cls-1,.cls-2,.cls-3,.cls-4,.cls-5{stroke-linecap:round;stroke-linejoin:round;}.cls-1,.cls-3{fill:none;stroke-width:4px;}.cls-2{fill:#5c5c5c;}.cls-2,.cls-4,.cls-5{stroke:#333;stroke-width:6px;}.cls-3{isolation:isolate;opacity:.3;stroke:#bead39;}.cls-4{fill:#fde74c;}.cls-5{fill:#eefaf9;}.cls-6{fill:#bcece8;stroke-width:0px;}</style></defs><g id="hat"><path class="cls-5" d="m159.419,152.1084V44.1835c.0543-2.8321-2.1975-5.172-5.0297-5.2263-.0042,0-.0083-.0002-.0125-.0002-2.7967.0105-5.0553,2.2862-5.0448,5.0829.0002.0479.0011.0958.0026.1437v107.9249h10.0845Z"/><path class="cls-5" d="m162.1624,178.9236c.012,2.1886-3.3329,3.968-7.4711,3.9743-.0145,0-.0289,0-.0434,0h-.4554c-4.1382.0063-7.5025-1.7627-7.5145-3.9514,0-.0076,0-.0153,0-.023V63.7941c-.012-2.1886,3.3329-3.968,7.4711-3.9743.0145,0,.0289,0,.0434,0h.4554c4.1382-.0063,7.5025,1.7627,7.5145,3.9514,0,.0076,0,.0153,0,.023v115.1296h0Z"/><path class="cls-6" d="m149.3346,107.249h10.0735v40.1881h-10.0735v-40.1881Z"/><path class="cls-2" d="m167.2914,84.3151c0-.9108-.553-.553-.553-.6398v-.4554c.2197-3.7245-2.6216-6.9218-6.346-7.1415-.2375-.014-.4755-.0155-.7131-.0044h-9.6073c-4.2181,0-8.0675,2.9277-8.0675,7.1458v.4554c0,.0867.553-.2711.553.6398h24.7339Z"/><g id="Hi-Hat-Top"><path class="cls-4" d="m237.9365,97.7827l-30.2316-.7373c-21.0688-.4554-30.1448-4.1205-36.1846-8.241v.1843c-3.3221-2.5796-7.43-3.9387-11.635-3.8494h-10.8435c-4.2351-.0906-8.3744,1.2674-11.7326,3.8494v-.0867c-6.0507,4.1205-15.1808,7.6989-36.2822,8.1543l-30.687.6398c-3.3507-.1396-6.1803,2.4636-6.3198,5.8143-.0007.0173-.0013.0346-.0019.052v.0867c0,3.394,3.253,6.1374,6.5928,6.1374h167.5098c3.394,0,5.4217-2.7434,5.4217-6.1374v-.0867c.1932-2.9881-2.0725-5.567-5.0606-5.7602-.1743-.0113-.3492-.0141-.5238-.0085h0l-.0217-.0108Z"/><path class="cls-1" d="m145.6695,91.6453h16.4929"/></g><g id="Hi-Hat-Bottom"><path class="cls-4" d="m70.4593,123.9805l30.1448.7373c21.0688.4554,30.4159,4.1205,35.9135,8.241,3.6651,2.5699,8.1543,4.4892,12.5567,4.4892h10.8435c4.2885-.0791,8.4239-1.6079,11.7326-4.3374v-.0542c6.0507-4.1205,15.1808-7.7856,36.2822-8.3386l30.1448-.7373c3.1376.0515,5.7229-2.4503,5.7745-5.5879.002-.1217,0-.2435-.0058-.3651v-.0867c0-3.394-2.1036-5.3133-5.4217-5.3133H70.9147c-3.394,0-6.5928,1.9193-6.5928,5.3133v.0867c-.1843,3.4807,2.7434,5.953,6.1374,5.953h0Z"/><path class="cls-3" d="m145.6695,131.0396h16.4929"/></g></g></svg>