<?xml version="1.0" encoding="UTF-8"?><svg id="Layer_1" xmlns="http://www.w3.org/2000/svg" viewBox="0 0 300 200"><defs><style>.cls-1,.cls-2{fill:none;}.cls-1,.cls-3,.cls-4{stroke-width:0px;}.cls-5{fill:#fdfffc;}.cls-5,.cls-6,.cls-7{stroke-linecap:round;stroke-linejoin:round;}.cls-5,.cls-6,.cls-7,.cls-2{stroke-width:4px;}.cls-5,.cls-6,.cls-7,.cls-8{stroke:#333;}.cls-6{fill:#eb495d;}.cls-7{fill:#eefaf9;}.cls-2{stroke:#bcece8;stroke-miterlimit:10;}.cls-8{stroke-miterlimit:4.8;stroke-width:1.8px;}.cls-8,.cls-4{fill:#333;}.cls-3{fill:#bcece8;}</style></defs><g id="kick"><circle class="cls-6" cx="148.4864" cy="100.9537" r="80.6858"/><circle id="Inner-Drum-Wobble" class="cls-1" cx="148.4864" cy="100.9537" r="77.307"/><ellipse id="Inner-Drum" class="cls-5" cx="148.5983" cy="101.225" rx="72.9349" ry="73.6833"/><g id="Codrops"><path class="cls-3" d="m182.3734,109.4101l-.6321,3.9934-.9741-.1577c-.6623-.1038-1.2652-.1532-1.794-.1532-.9736,0-1.7051.168-2.229.4443-.7858.425-1.2657,1.1021-1.4931,2.4267-.4048,2.3372-.7661,3.8253-1.71,4.7792l-.0099.0099c-.8451.7715-1.9967,1.0082-3.3954,1.0186-.7562,0-1.5964-.0791-2.5403-.2274l-2.8814-.4547.5782-3.6375,2.3031.3657c.7359.1186,1.3394.168,1.7792.168h.1038c.43-.0055.7117-.089.8649-.173.1433-.084.2471-.1829.3657-.43.1285-.2866.2619-.7364.3558-1.3295.3163-1.9226.6722-3.2421,1.3542-4.1713.5679-.7359,1.3641-1.2652,2.3624-1.6403-.939-.7661-1.5815-1.6562-1.8637-2.7034l-.0055-.0055v-.0104c-.0741-.3163-.0989-.6376-.0989-1.0082,0-.2669.0147-.5535.0395-.8698.0643-.7364.1779-1.6507.341-2.7578v-.0099c.0494-.2867.0692-.5338.0692-.727,0-.0988-.0055-.1878-.0147-.257-.0247-.1537-.0539-.213-.1285-.297-.0692-.0736-.2575-.2076-.603-.3208-.3657-.1236-.9094-.2471-1.6062-.3608l-2.9313-.4641.5837-3.6573,2.8814.4547c2.6535.4497,4.4925,1.0972,5.397,2.6145.3361.6376.4152,1.3394.4245,2.2137,0,.811-.0934,1.7644-.2718,2.8917-.0445.2867-.0692.5436-.0692.7858.0099.8797.2471,1.4629.7364,1.9819.6277.6573,1.8534,1.2306,3.7314,1.5222l.9801.1527.0004.0005Z"/><path class="cls-3" d="m129.1759,120.6197l-2.8864.4547c-.944.1483-1.7842.2273-2.5453.2274-1.4086-.0055-2.5695-.2422-3.4201-1.0186-.9292-.9539-1.2801-2.4316-1.6903-4.799-.2224-1.3142-.7018-1.9913-1.4926-2.4213-.5244-.2817-1.2608-.4552-2.2344-.4497-.5283,0-1.1269.0499-1.7842.1532l-.9781.1537-.6326-3.9885.9786-.1582c3.3707-.6128,4.4229-1.6854,4.4625-3.5387,0-.2367-.0193-.4942-.0643-.771-.1829-1.1516-.2768-2.1203-.2768-2.9308.005-.8402.0791-1.5124.4003-2.1302.8995-1.5277,2.743-2.1702,5.4317-2.6249l2.8814-.4596.5783,3.6623-2.2685.3603c-.8308.1339-1.4778.2812-1.9226.4349-.4206.1433-.6573.3064-.7616.43-.1087.1285-.168.2521-.1972.5046-.0055.084-.0104.1774-.0104.2768,0,.2916.0345.6623.1043,1.0972.1577,1.0033.2367,1.8682.2417,2.6145-.0055.6722-.0642,1.2504-.2471,1.7748-.3163.8792-.904,1.6305-1.7348,2.2977,1.1224.4399,2.011,1.0873,2.6051,1.9918l.0055.0055.0002.0055c.5437.9045.8501,2.2834,1.2153,4.4926.0697.4547.1685.7913.2624.9835.0692.1433.1083.1779.1927.2274.0939.0494.3163.1137.6771.1186h.0588c.3707,0,.8951-.0444,1.5425-.1483l1.9567-.3114.9741-.1537.5787,3.6381-.0006-.0011Z"/><path class="cls-3" d="m130.5625,82.7614c3.4154-5.4298,9.4469-9.0218,16.3685-9.0218,6.9349,0,12.9775,3.6075,16.3901,9.055l2.3454-1.4669c-3.8937-6.2286-10.8241-10.3575-18.7361-10.3558-7.8959-.001-14.8141,4.1096-18.7117,10.3176l2.3437,1.4719Z"/><path class="cls-3" d="m175.4109,93.2992c-.8271-.2012-2.806-.5756-2.806-.5756-.4024-13.7815-11.764-24.9196-25.6405-24.9475-13.8821.0279-25.2493,11.1716-25.6405,24.9643,0,0-1.9443.38-2.806.5924.0565-15.6145,12.8147-28.3454,28.446-28.351,15.6212.0061,28.3688,12.7146,28.4471,28.3174Z"/><path class="cls-8" d="m131.0399,83.6815c3.3159-5.2715,9.1716-8.7588,15.8915-8.7588,6.7328,0,12.5992,3.5024,15.9124,8.7911l2.277-1.4242c-3.7802-6.047-10.5087-10.0556-18.19-10.054-7.6657-.001-14.3824,3.9898-18.1664,10.0169l2.2754,1.429Z"/><path class="cls-8" d="m174.2977,93.5517c-.7954-.1935-2.6984-.5535-2.6984-.5535-.3869-13.2527-11.3126-23.9635-24.6567-23.9904-13.3495.0269-24.2806,10.743-24.6568,24.0065,0,0-1.8697.3654-2.6984.5697.0543-15.0155,12.323-27.2579,27.3546-27.2632,15.0219.0059,27.2804,12.2268,27.3557,27.231Z"/><path class="cls-4" d="m129.1759,121.7111l-2.8864.4547c-.944.1483-1.7842.2273-2.5453.2274-1.4086-.0055-2.5695-.2422-3.4201-1.0186-.9292-.9539-1.2801-2.4316-1.6903-4.799-.2224-1.3142-.7018-1.9913-1.4926-2.4213-.5244-.2817-1.2608-.4552-2.2344-.4497-.5283,0-1.1269.0499-1.7842.1532l-.9781.1537-.6326-3.9885.9786-.1582c3.3707-.6128,4.4229-1.6854,4.4625-3.5387,0-.2367-.0193-.4942-.0643-.771-.1829-1.1516-.2768-2.1203-.2768-2.9308.005-.8402.0791-1.5124.4003-2.1302.8995-1.5277,2.743-2.1702,5.4317-2.6249l2.8814-.4596.5783,3.6623-2.2685.3603c-.8308.1339-1.4778.2812-1.9226.4349-.4206.1433-.6573.3064-.7616.43-.1087.1285-.168.2521-.1972.5046-.0055.084-.0104.1774-.0104.2768,0,.2916.0345.6623.1043,1.0972.1577,1.0033.2367,1.8682.2417,2.6145-.0055.6722-.0642,1.2504-.2471,1.7748-.3163.8792-.904,1.6305-1.7348,2.2977,1.1224.4399,2.011,1.0873,2.6051,1.9918l.0055.0055.0002.0055c.5437.9045.8501,2.2834,1.2153,4.4926.0697.4547.1685.7913.2624.9835.0692.1433.1083.1779.1927.2274.0939.0494.3163.1137.6771.1186h.0588c.3707,0,.8951-.0444,1.5425-.1483l1.9567-.3114.9741-.1537.5787,3.6381-.0006-.0011Z"/><path class="cls-4" d="m182.3734,110.5014l-.6321,3.9934-.9741-.1577c-.6623-.1038-1.2652-.1532-1.794-.1532-.9736,0-1.7051.168-2.229.4443-.7858.425-1.2657,1.1021-1.4931,2.4267-.4048,2.3372-.7661,3.8253-1.71,4.7792l-.0099.0099c-.8451.7715-1.9967,1.0082-3.3954,1.0186-.7562,0-1.5964-.0791-2.5403-.2274l-2.8814-.4547.5782-3.6375,2.3031.3657c.7359.1186,1.3394.168,1.7792.168h.1038c.43-.0055.7117-.089.8649-.173.1433-.084.2471-.1829.3657-.43.1285-.2866.2619-.7364.3558-1.3295.3163-1.9226.6722-3.2421,1.3542-4.1713.5679-.7359,1.3641-1.2652,2.3624-1.6403-.939-.7661-1.5815-1.6562-1.8637-2.7034l-.0055-.0055v-.0104c-.0741-.3163-.0989-.6376-.0989-1.0082,0-.2669.0147-.5535.0395-.8698.0643-.7364.1779-1.6507.341-2.7578v-.0099c.0494-.2867.0692-.5338.0692-.727,0-.0988-.0055-.1878-.0147-.257-.0247-.1537-.0539-.213-.1285-.297-.0692-.0736-.2575-.2076-.603-.3208-.3657-.1236-.9094-.2471-1.6062-.3608l-2.9313-.4641.5837-3.6573,2.8814.4547c2.6535.4497,4.4925,1.0972,5.397,2.6145.3361.6376.4152,1.3394.4245,2.2137,0,.811-.0934,1.7644-.2718,2.8917-.0445.2867-.0692.5436-.0692.7858.0099.8797.2471,1.4629.7364,1.9819.6277.6573,1.8534,1.2306,3.7314,1.5222l.9801.1527.0004.0005Z"/></g><path class="cls-7" d="m66.0316,96.9974c-2.2277-.0023-4.0355,1.8018-4.0377,4.0295-.0023,2.2277,1.8018,4.0354,4.0295,4.0377h.0082v3.5743h7.6852v-15.3705h-7.6852v3.7289Z"/><path class="cls-4" d="m65.5678,101.0583c0,.4244.3441.7685.7685.7685s.7685-.3441.7685-.7685-.3441-.7685-.7685-.7685-.7685.3441-.7685.7685h0Z"/><path class="cls-2" d="m71.4022,107.1019v-12.2782"/><path class="cls-7" d="m103.953,170.1526c-1.1517,1.8981-.5466,4.3704,1.3515,5.5221,1.8981,1.1517,4.3704.5466,5.5221-1.3516.0274-.0451.0539-.0908.0795-.1369l3.1105,1.819,3.8426-6.6484-13.2923-7.6852-3.8426,6.6484,3.2287,1.8326Z"/><path class="cls-4" d="m107.1408,172.8038c.3619.2007.8177.0828,1.0368-.2683.1851-.3763.0301-.8315-.3462-1.0167-.337-.1658-.7446-.0603-.9589.2481-.221.3266-.1354.7704.1912.9914.0247.0167.0505.0319.0771.0454Z"/><path class="cls-2" d="m115.4399,170.5755l-10.6411-6.1482"/><path class="cls-7" d="m186.1758,174.1499c1.1518,1.898,3.6242,2.5029,5.5222,1.3511,1.8452-1.1197,2.4768-3.4967,1.4309-5.3847l3.0741-1.769-3.8381-6.6484-13.2923,7.6852,3.8426,6.6484,3.2651-1.8827h-.0046Z"/><path class="cls-4" d="m190.0594,172.6901c.362-.2118.4838-.677.272-1.039-.2118-.362-.677-.4838-1.039-.272s-.4838.677-.2719,1.039c.0007.0012.0014.0024.0021.0037.2146.3573.6759.4766,1.0368.2683Z"/><path class="cls-2" d="m192.2467,164.4274l-10.682,6.1482"/><path class="cls-7" d="m230.4773,104.9146c2.2277.0023,4.0354-1.8018,4.0377-4.0295.0023-2.2277-1.8018-4.0354-4.0295-4.0377h-.0082v-3.5743h-7.6852v15.3705h7.6852v-3.7289Z"/><path class="cls-4" d="m231.4414,100.8037c0-.4244-.3441-.7685-.7685-.7685s-.7685.3441-.7685.7685.3441.7685.7685.7685.7685-.3441.7685-.7685h0Z"/><path class="cls-2" d="m225.1067,94.8056v12.2782"/><path class="cls-7" d="m193.0562,31.6775c1.0759-1.9421.3737-4.3886-1.5684-5.4645-1.888-1.0459-4.265-.4143-5.3847,1.4309l-3.0741-1.769-3.8517,6.6484,13.2923,7.6852,3.8426-6.6484-3.2651-1.8827h.0091Z"/><path class="cls-4" d="m189.8638,29.0673c-.3619-.2007-.8177-.0828-1.0368.2683-.216.3617-.0979.8299.2638,1.0459.3617.216.8299.0979,1.0459-.2637.2172-.3559.1048-.8204-.251-1.0376-.0072-.0044-.0145-.0087-.0218-.0128Z"/><path class="cls-2" d="m181.642,31.3319l10.6411,6.1482"/><path class="cls-7" d="m110.8288,27.7622c-1.076-1.942-3.5226-2.644-5.4646-1.5679-1.942,1.076-2.644,3.5226-1.5679,5.4646.0256.0462.0521.0918.0795.137l-3.1105,1.819,3.8335,6.6348,13.2923-7.6852-3.8426-6.6484-3.2196,1.8463Z"/><path class="cls-4" d="m106.9134,29.181c-.3573.2146-.4766.6759-.2683,1.0368.2393.3445.7125.4297,1.057.1904.3085-.2143.4139-.6219.2481-.9589-.2034-.3581-.6587-.4835-1.0168-.2801-.0067.0038-.0134.0077-.02.0118Z"/><path class="cls-2" d="m104.7215,37.4801l10.682-6.1482"/></g></svg>