<?xml version="1.0" encoding="UTF-8"?><svg id="Layer_1" xmlns="http://www.w3.org/2000/svg" viewBox="0 0 300 200"><defs><style>.cls-1{fill:#eb495d;}.cls-1,.cls-2,.cls-3,.cls-4{stroke-width:8px;}.cls-1,.cls-2,.cls-3,.cls-5{stroke:#333;stroke-linecap:round;stroke-linejoin:round;}.cls-2,.cls-5{fill:#eefaf9;}.cls-6{stroke:#bcece8;stroke-width:4px;}.cls-6,.cls-3,.cls-4{fill:none;}.cls-6,.cls-4{stroke-miterlimit:10;}.cls-4{stroke:#e61c35;}.cls-5{stroke-width:6px;}</style></defs><g id="snare"><path class="cls-1" d="m55.3582,52.1676h188.41v101.5197H55.3582V52.1676Z"/><path class="cls-4" d="m240.3882,78.9293H58.7282"/><path class="cls-5" d="m62.1082,112.1575c0,4.0781-3.0266,7.3841-6.76,7.3841s-6.76-3.3059-6.76-7.3841h0v-18.4601c0-4.0781,3.0266-7.3841,6.76-7.3841s6.76,3.3059,6.76,7.3841v18.4601Zm188.42,0c0,4.0781-3.0266,7.3841-6.76,7.3841s-6.76-3.3059-6.76-7.3841h0v-18.4601c0-4.0781,3.0266-7.3841,6.76-7.3841s6.76,3.3059,6.76,7.3841v18.4601Z"/><path class="cls-3" d="m117.8882,131.5352v-12.0155m0-33.2282v-12.0155"/><path class="cls-5" d="m124.6382,112.1575c0,4.0781-3.0266,7.3841-6.76,7.3841s-6.76-3.3059-6.76-7.3841h0v-18.4601c0-4.0781,3.0266-7.3841,6.76-7.3841s6.76,3.3059,6.76,7.3841v18.4601Z"/><path class="cls-3" d="m181.2482,131.5352v-12.0155m0-33.2282v-12.0155"/><path class="cls-5" d="m188.0082,112.1575c0,4.0781-3.0266,7.3841-6.76,7.3841s-6.76-3.3059-6.76-7.3841h0v-18.4601c0-4.0781,3.0266-7.3841,6.76-7.3841s6.76,3.3059,6.76,7.3841v18.4601Z"/><path class="cls-2" d="m46.8882,52.1676h203.64v19.3776H46.8882v-19.3776Zm0,82.142h203.64v19.3776H46.8882v-19.3776Z"/><path class="cls-6" d="m50.2882,66.0072h196.86M50.2882,148.1492h196.86"/></g></svg>