<?xml version="1.0" encoding="UTF-8"?><svg id="Layer_1" xmlns="http://www.w3.org/2000/svg" viewBox="0 0 300 200"><defs><style>.cls-1,.cls-2,.cls-3,.cls-4,.cls-5{stroke:#333;stroke-linecap:round;stroke-linejoin:round;}.cls-1,.cls-4{fill:#f8fdfd;}.cls-1,.cls-5{stroke-width:6px;}.cls-2{fill:#eb495d;}.cls-2,.cls-3,.cls-6,.cls-4{stroke-width:8px;}.cls-3,.cls-5{fill:#eefaf9;}.cls-7{stroke:#bcece8;stroke-width:4px;}.cls-7,.cls-6{fill:none;stroke-miterlimit:10;}.cls-6{stroke:#e61c35;}</style></defs><g id="tom"><path class="cls-2" d="m56.8755,24.1974h186.73v155.46H56.8755V24.1974Z"/><path class="cls-6" d="m60.2555,48.6974h180"/><path class="cls-1" d="m62.7955,74.8874c0,3.7334-3.0266,6.76-6.76,6.76s-6.76-3.0266-6.76-6.76h0v-16.9c0-3.7334,3.0266-6.76,6.76-6.76s6.76,3.0266,6.76,6.76v16.9Zm187.57,0c0,3.7334-3.0266,6.76-6.76,6.76s-6.76-3.0266-6.76-6.76h0v-16.9c0-3.7334,3.0266-6.76,6.76-6.76s6.76,3.0266,6.76,6.76v16.9Z"/><path class="cls-4" d="m118.5555,51.2274v-11"/><path class="cls-1" d="m125.3155,74.8874c0,3.7334-3.0266,6.76-6.76,6.76s-6.76-3.0266-6.76-6.76h0v-16.9c0-3.7334,3.0266-6.76,6.76-6.76s6.76,3.0266,6.76,6.76v16.9Z"/><path class="cls-4" d="m181.1155,51.2274v-11"/><path class="cls-1" d="m187.8455,74.8874c0,3.7334-3.0266,6.76-6.76,6.76s-6.76-3.0266-6.76-6.76h0v-16.9c0-3.7334,3.0266-6.76,6.76-6.76s6.76,3.0266,6.76,6.76v16.9Z"/><path class="cls-4" d="m49.2755,24.1974h201.09v17.74H49.2755v-17.74Z"/><path class="cls-7" d="m246.9855,36.8674H52.6555"/><path class="cls-5" d="m250.3655,145.8574c0,3.7335-3.0266,6.76-6.76,6.76s-6.76-3.0266-6.76-6.76v-16.9c0-3.7334,3.0266-6.76,6.76-6.76s6.76,3.0266,6.76,6.76v16.9Zm-187.57,0c0,3.7335-3.0266,6.76-6.76,6.76s-6.76-3.0266-6.76-6.76v-16.9c0-3.7334,3.0266-6.76,6.76-6.76s6.76,3.0266,6.76,6.76v16.9Z"/><path class="cls-3" d="m181.1155,152.6174v11"/><path class="cls-5" d="m187.8455,145.8574c0,3.7335-3.0266,6.76-6.76,6.76s-6.76-3.0266-6.76-6.76v-16.9c0-3.7334,3.0266-6.76,6.76-6.76s6.76,3.0266,6.76,6.76v16.9Z"/><path class="cls-3" d="m118.5555,152.6174v11"/><path class="cls-5" d="m125.3155,145.8574c0,3.7335-3.0266,6.76-6.76,6.76s-6.76-3.0266-6.76-6.76v-16.9c0-3.7334,3.0266-6.76,6.76-6.76s6.76,3.0266,6.76,6.76v16.9Z"/><path class="cls-4" d="m49.2755,161.9174h201.09v17.74H49.2755v-17.74Z"/><path class="cls-7" d="m246.9855,175.4574H52.6555"/></g></svg>