<?xml version="1.0" encoding="UTF-8" standalone="no"?>
<!DOCTYPE svg PUBLIC "-//W3C//DTD SVG 1.1//EN" "http://www.w3.org/Graphics/SVG/1.1/DTD/svg11.dtd">
<svg width="100%" height="100%" viewBox="0 0 895 165" version="1.1" xmlns="http://www.w3.org/2000/svg" xmlns:xlink="http://www.w3.org/1999/xlink" xml:space="preserve" xmlns:serif="http://www.serif.com/" style="fill-rule:evenodd;clip-rule:evenodd;">
    <g id="Artboard1" transform="matrix(1.52191,0,0,1,0,0)">
        <clipPath id="_clip1">
            <rect x="0" y="0" width="587.614" height="165"/>
        </clipPath>
        <g clip-path="url(#_clip1)">
            <rect x="0" y="0" width="663" height="165" style="fill:none;"/>
            <clipPath id="_clip2">
                <rect x="0" y="0" width="663" height="165"/>
            </clipPath>
            <g clip-path="url(#_clip2)">
                <g id="nu" transform="matrix(0.657071,0,0,1,115.037,36.7511)">
                    <g id="university" transform="matrix(1,0,0,1,40,50)">
                        <path id="Shape" d="M113.729,23.646C113.729,31.125 117.896,34.208 122.792,34.208C125.045,34.099 127.274,33.686 129.417,32.979L129.958,34C127.435,36.461 124.085,37.894 120.562,38.021C114.437,38.021 108.958,33.458 108.958,25.042C108.958,17.396 114.229,11.875 120.792,11.875C123.211,11.664 125.603,12.518 127.34,14.216C129.078,15.913 129.988,18.284 129.833,20.708C129.827,21.673 129.737,22.635 129.563,23.583L113.729,23.583L113.729,23.646ZM121.646,21.563C124.25,21.563 125.125,20.958 125.125,18.354C125.125,16.083 123.5,14.396 120.083,14.396C116.667,14.396 113.833,17.542 113.833,21.875L121.646,21.563Z" style="fill:white;fill-opacity:0.87;fill-rule:nonzero;"/>
                        <path id="path17" d="M77.271,33.563L78.313,34.875L81.771,36.063L81.667,37.417L69.458,37.417L69.458,36L73,34.646L73,22.438C73,17.521 72.021,15.833 69.146,15.833L69.146,14.583L77,11.708L77.438,11.708C77.438,11.708 77.271,15.396 77.271,19.313L77.271,33.563Z" style="fill:white;fill-opacity:0.87;fill-rule:nonzero;"/>
                        <path id="path19" d="M94.042,12.5L94.042,13.896L90.458,15.104L96.438,31.375L102.688,15.208L98.958,13.896L98.958,12.5L108.333,12.5L108.333,14.021C106.917,14.021 105.25,14.708 103.333,19.271L96.5,37.667L93.896,37.667L86.417,17.917C85.229,15.042 83.875,14.021 82.25,14.021L82.25,12.5L94.042,12.5Z" style="fill:white;fill-opacity:0.87;fill-rule:nonzero;"/>
                        <path id="path21" d="M157.125,37.042C156.344,36.736 155.798,36.021 155.708,35.188L155.396,30.104L157.771,30.104C158.08,33.27 160.676,35.724 163.854,35.854C166.937,35.854 168.187,34.208 168.187,32.104C168.188,30 166.521,29.021 164.5,27.938L161.729,26.542C157.833,24.458 155.875,22.958 155.875,19.042C155.875,14.229 159.354,11.896 164.833,11.896C167.166,11.912 169.471,12.409 171.604,13.354L170.896,19.604L168.75,19.604C168.75,15.708 167.125,14.229 163.854,14.229C161.646,14.229 159.688,15.104 159.688,17.229C159.688,18.958 160.396,19.708 164.625,21.875L167.063,23.125C171.458,25.417 172.708,27.292 172.708,30.938C172.708,35.333 168.313,38 163.979,38C161.655,38.109 159.33,37.784 157.125,37.042Z" style="fill:white;fill-opacity:0.87;fill-rule:nonzero;"/>
                        <path id="path23" d="M213,18C211.75,15.125 210.458,14.104 208.833,14.104L208.833,12.5L220.438,12.5L220.438,13.896L216.854,15.104L223.104,31.375L228.75,15.208L225,13.896L225,12.5L234.979,12.5L234.979,14.021C233.563,14.021 231.625,14.708 229.875,19.271L223.625,36.354C220.167,45.521 215.938,50.354 209.479,49.979L208.833,44.708C210.206,44.975 211.611,45.031 213,44.875C216.104,44.667 219.146,41.521 220.438,37.396L213,18Z" style="fill:white;fill-opacity:0.87;fill-rule:nonzero;"/>
                        <path id="path25" d="M63.333,34.875L62.313,33.563L62.313,19.958C62.313,13.708 58.146,11.875 53.979,11.875C50.458,11.875 45.417,16.042 45.417,16.042L45.417,11.75L44.979,11.75L37.292,14.583L37.292,15.875C40.292,15.875 41.104,18.604 41.104,23.417L41.104,34.708L37.563,36.063L37.563,37.5L50,37.5L50.104,36.146L46.646,34.938L45.604,33.646L45.604,18.229C46.904,16.651 48.831,15.722 50.875,15.688C54.333,15.688 57.979,16.938 57.979,22.896L57.813,34.833L54.396,36.146L54.396,37.5L66.667,37.5L66.667,36.146L63.333,34.875Z" style="fill:white;fill-opacity:0.87;fill-rule:nonzero;"/>
                        <path id="path27" d="M206.75,33.729C205.616,34.381 204.329,34.719 203.021,34.708C201.756,34.839 200.501,34.386 199.613,33.477C198.724,32.568 198.299,31.303 198.458,30.042L198.688,15.938L205.458,15.938L205.563,15.063L206.104,10.667L205.083,10.521L204.313,12.188L203.875,12.583L198.729,12.854L198.729,6.438L195.646,6.979L194.292,13.063L189.896,13.5L189.896,15.583C192.333,15.583 194.292,15.813 194.292,18.146C194.292,20.479 194.062,27.688 194.062,30.646C194.062,36.125 196.146,38.188 199.646,38.188C202.508,38.094 205.251,37.02 207.417,35.146L206.75,33.729Z" style="fill:white;fill-opacity:0.87;fill-rule:nonzero;"/>
                        <path id="path29" d="M152.354,12.25C151.473,12.005 150.56,11.893 149.646,11.917C145.896,11.917 141.938,17.833 141.938,17.833C141.938,14.583 142.042,11.771 142.042,11.771L141.667,11.771L133.917,14.583L133.917,15.875C136.833,15.875 137.708,18.542 137.708,22.979L137.708,34.708L134.188,36.063L134.188,37.5L146.688,37.5L146.688,36.146L143.208,34.958L142.188,33.646L142.188,22.146C142.192,20.65 142.805,19.221 143.886,18.187C144.967,17.153 146.422,16.604 147.917,16.667C148.527,16.69 149.131,16.802 149.708,17L150.583,18.229L151.604,18.354L152.375,12.271L152.354,12.25Z" style="fill:white;fill-opacity:0.87;fill-rule:nonzero;"/>
                        <path id="path31" d="M75,7.646C73.58,6.741 72.418,5.485 71.625,4C71.625,3.458 74.333,0.375 75,0.375C75.667,0.375 78.354,3.458 78.354,4C77.564,5.481 76.41,6.735 75,7.646Z" style="fill:white;fill-opacity:0.87;fill-rule:nonzero;"/>
                        <path id="path33" d="M184.792,33.563L185.813,34.875L189.292,36.063L189.188,37.417L177.083,37.417L177.083,36L180.604,34.646L180.604,22.438C180.604,17.521 179.625,15.833 176.75,15.833L176.75,14.583L184.625,11.708L185.062,11.708C185.062,11.708 184.896,15.396 184.896,19.313L184.792,33.563Z" style="fill:white;fill-opacity:0.87;fill-rule:nonzero;"/>
                        <path id="path35" d="M31.979,25.479C31.979,34.771 25.375,37.854 19.021,37.854C9.521,37.854 5.563,33.396 5.563,25.104L5.563,9.479C5.563,4.917 4.313,3.896 0.75,3.729L0.75,1.938L15.333,1.938L15.333,3.563L10.354,5.146L10.354,22.771C10.354,33.396 14.521,34.979 19.521,34.979C24.521,34.979 28.521,32.583 28.521,23.958L28.521,5.083L23.688,3.625L23.688,1.938L36.604,1.938L36.604,3.833L32.917,4.438L31.875,5.75L31.875,25.479L31.979,25.479Z" style="fill:white;fill-opacity:0.87;fill-rule:nonzero;"/>
                        <path id="path37" d="M182.563,7.646C181.154,6.734 180,5.479 179.208,4C179.999,2.525 181.154,1.278 182.563,0.375C183.271,0.375 185.938,3.458 185.938,4C185.139,5.481 183.978,6.736 182.563,7.646Z" style="fill:white;fill-opacity:0.87;fill-rule:nonzero;"/>
                    </g>
                    <g id="northwestern">
                        <path id="polygon40" d="M0.729,38.438L0.729,40.063L13.75,40.063L13.75,38.438L9.688,37.354L8.604,36.042L8.604,13.167L31.438,40.333L33.458,40.333L33.458,7.688L38.333,6.208L38.333,4.479L25.104,4.479L25.104,6.438L29.271,7.458L30.313,8.771L30.313,30.458L30.042,30.458L7.854,4.208L1.979,4.208L1.979,5.625L5.563,9.625L5.563,37.146L0.729,38.438Z" style="fill:white;fill-opacity:0.87;fill-rule:nonzero;"/>
                        <path id="path42" d="M50.917,40.667C47.458,40.824 44.097,39.496 41.68,37.016C39.264,34.536 38.023,31.141 38.271,27.687C38.104,24.243 39.367,20.883 41.761,18.402C44.156,15.921 47.469,14.539 50.917,14.583C54.354,14.388 57.712,15.668 60.147,18.103C62.582,20.538 63.862,23.896 63.667,27.333C63.806,34.528 58.11,40.485 50.917,40.667ZM58.625,28.021C58.625,22 55.354,16.896 50.167,16.896C45.542,16.896 43.208,20.917 43.208,26.938C43.208,32.958 46.083,38.229 51.542,38.229C56.25,38.229 58.625,34.042 58.625,28.021Z" style="fill:white;fill-opacity:0.87;fill-rule:nonzero;"/>
                        <path id="path44" d="M128.479,25.479C128.479,19.458 125.125,18.25 121.167,18.25C119.082,18.327 117.112,19.225 115.688,20.75L115.688,36.208L116.708,37.521L120.188,38.708L120.188,40.063L107.688,40.063L107.688,38.646L111.229,37.292L111.229,11.375C111.229,6.708 110.021,5.396 107.479,5.396L107.479,4.167L115.458,1.458L116,1.458C116,1.458 115.729,6.979 115.729,11.104L115.729,18.75C115.729,18.75 120.875,14.583 124.396,14.583C128.792,14.583 132.917,16.417 132.917,22.917L132.917,36.25L133.958,37.563L137.417,38.75L137.417,40.104L124.917,40.104L124.917,38.688L128.333,37.396L128.479,25.479Z" style="fill:white;fill-opacity:0.87;fill-rule:nonzero;"/>
                        <path id="path46" d="M179.167,26.292C179.167,33.771 183.333,36.854 188.229,36.854C190.483,36.745 192.711,36.332 194.854,35.625L195.396,36.646C192.874,39.11 189.524,40.544 186,40.667C179.875,40.667 174.396,36.104 174.396,27.688C174.396,20.042 179.667,14.521 186.229,14.521C188.652,14.303 191.05,15.155 192.792,16.853C194.534,18.551 195.447,20.926 195.292,23.354C195.286,24.319 195.195,25.281 195.021,26.229L179.167,26.229L179.167,26.292ZM187.104,24.208C189.688,24.208 190.563,23.604 190.563,21C190.563,18.729 188.938,17.042 185.521,17.042C182.104,17.042 179.271,20.188 179.271,24.521L187.104,24.208Z" style="fill:white;fill-opacity:0.87;fill-rule:nonzero;"/>
                        <path id="path48" d="M201.271,39.688C200.489,39.388 199.947,38.668 199.875,37.833L199.542,32.75L201.938,32.75C202.192,35.934 204.807,38.414 208,38.5C211.104,38.5 212.354,36.854 212.354,34.75C212.354,32.646 210.667,31.646 208.667,30.583L205.896,29.188C201.979,27.104 200.042,25.604 200.042,21.688C200.042,16.875 203.5,14.542 208.937,14.542C211.271,14.558 213.575,15.054 215.708,16L215,22.25L212.771,22.25C212.771,18.354 211.146,16.875 207.896,16.875C205.667,16.875 203.729,17.75 203.729,19.854C203.729,21.604 204.437,22.354 208.667,24.521L211.104,25.771C215.5,28.063 216.75,29.938 216.75,33.583C216.75,37.979 212.354,40.646 208.063,40.646C205.759,40.738 203.459,40.413 201.271,39.688Z" style="fill:white;fill-opacity:0.87;fill-rule:nonzero;"/>
                        <path id="path50" d="M243.542,26.292C243.542,33.771 247.708,36.854 252.604,36.854C254.851,36.746 257.073,36.333 259.208,35.625L259.75,36.646C257.237,39.111 253.893,40.545 250.375,40.667C244.25,40.667 238.771,36.104 238.771,27.688C238.771,20.042 244.021,14.521 250.583,14.521C253.007,14.303 255.404,15.155 257.146,16.853C258.888,18.551 259.802,20.926 259.646,23.354C259.64,24.319 259.549,25.281 259.375,26.229L243.542,26.229L243.542,26.292ZM251.458,24.208C254.063,24.208 254.938,23.604 254.938,21C254.938,18.729 253.292,17.042 249.875,17.042C246.458,17.042 243.625,20.188 243.625,24.521L251.458,24.208Z" style="fill:white;fill-opacity:0.87;fill-rule:nonzero;"/>
                        <path id="path52" d="M309.708,37.5L308.688,36.188L308.688,22.583C308.688,16.333 304.625,14.5 300.354,14.5C296.833,14.5 291.792,18.667 291.792,18.667L291.792,14.375L291.354,14.375L283.542,17.25L283.542,18.542C286.521,18.542 287.333,21.271 287.333,26.083L287.333,37.375L283.813,38.729L283.813,40.146L296.188,40.146L296.292,38.792L292.813,37.583L291.792,36.229L291.792,20.833C293.079,19.248 295,18.311 297.042,18.271C300.521,18.271 304.167,19.521 304.167,25.5L304.167,37.5L300.75,38.813L300.75,40.229L313.104,40.229L313.229,38.875L309.708,37.5Z" style="fill:white;fill-opacity:0.87;fill-rule:nonzero;"/>
                        <path id="path54" d="M160.542,40.333L154.792,24.396L148.167,40.333L145.833,40.333L139.375,20.583C138.458,18.104 137.979,16.688 136.229,16.688L136.229,15.167L146.875,15.167L146.875,16.667L143.604,17.75L148.438,34.083L152.604,23.875L153.583,21.271L152.125,17.104L150.271,16.667L150.271,15.146L160.583,15.146L160.583,16.771L157.333,17.75L162.75,34.083L168.396,17.854L164.75,16.563L164.75,15.146L174.354,15.146L174.354,16.667C172.125,16.938 171.104,17.542 169.375,21.917L162.917,40.313L160.542,40.333Z" style="fill:white;fill-opacity:0.87;fill-rule:nonzero;"/>
                        <path id="path56" d="M104.729,36.375C103.587,37.024 102.293,37.362 100.979,37.354C99.718,37.478 98.469,37.022 97.586,36.113C96.702,35.205 96.279,33.945 96.438,32.688L96.646,18.583L104.667,18.583L104.667,17.708L105.229,13.313L104.188,13.167L103.438,14.833L103,15.229L96.646,15.5L96.646,8.979L93.542,9.521L92.125,15.604L87.75,16.042L87.75,18.125C90.188,18.125 92.125,18.354 92.125,20.688C92.125,23.021 91.917,30.229 91.917,33.188C91.917,38.667 94,40.729 97.5,40.729C100.36,40.641 103.103,39.575 105.271,37.708L104.729,36.375Z" style="fill:white;fill-opacity:0.87;fill-rule:nonzero;"/>
                        <path id="path58" d="M236.313,36.375C235.179,37.027 233.891,37.365 232.583,37.354C231.319,37.485 230.064,37.031 229.175,36.122C228.287,35.214 227.862,33.949 228.021,32.687L228.25,18.583L236.208,18.583L236.313,17.708L236.875,13.313L235.833,13.167L235.083,14.833L234.646,15.229L228.292,15.5L228.292,8.979L225.208,9.521L223.792,15.604L219.396,16.042L219.396,18.125C221.833,18.125 223.792,18.354 223.792,20.688C223.792,23.021 223.583,30.229 223.583,33.188C223.583,38.667 225.667,40.729 229.167,40.729C232.019,40.636 234.754,39.57 236.917,37.708L236.313,36.375Z" style="fill:white;fill-opacity:0.87;fill-rule:nonzero;"/>
                        <path id="path60" d="M84.708,14.833C83.825,14.603 82.913,14.498 82,14.521C78.25,14.521 74.292,20.438 74.292,20.438C74.292,17.167 74.396,14.354 74.396,14.354L73.979,14.354L66.375,17.229L66.375,18.521C69.313,18.521 70.167,21.188 70.167,25.625L70.167,37.354L66.646,38.708L66.646,40.125L79.021,40.125L79.021,38.771L75.542,37.563L74.458,36.208L74.458,24.708C74.45,23.19 75.07,21.736 76.171,20.691C77.271,19.645 78.755,19.101 80.271,19.188C80.88,19.209 81.483,19.314 82.063,19.5L82.917,20.75L83.958,20.854L84.708,14.833Z" style="fill:white;fill-opacity:0.87;fill-rule:nonzero;"/>
                        <path id="path62" d="M281.25,14.833C280.366,14.603 279.455,14.498 278.542,14.521C274.792,14.521 270.833,20.438 270.833,20.438C270.833,17.167 270.938,14.354 270.938,14.354L270.5,14.354L262.854,17.229L262.854,18.521C265.792,18.521 266.667,21.188 266.667,25.625L266.667,37.354L263.125,38.708L263.125,40.125L275.5,40.125L275.5,38.771L272.021,37.563L271,36.271L271,24.708C270.992,23.194 271.609,21.744 272.705,20.699C273.801,19.654 275.28,19.107 276.792,19.188C277.401,19.204 278.005,19.309 278.583,19.5L279.458,20.75L280.5,20.854L281.25,14.833Z" style="fill:white;fill-opacity:0.87;fill-rule:nonzero;"/>
                    </g>
                </g>
                <g id="nsf" transform="matrix(0.657071,0,0,1,369.931,33)">
                    <path id="outer_ring" d="M92.817,45.517C92.598,45.189 92.409,44.843 92.25,44.483C91.933,43.65 91.633,42.817 91.367,41.95C91.225,40.421 91.181,38.885 91.233,37.35C91.85,34.657 93.901,32.524 96.567,31.8C96.267,31.033 95.9,30.133 95.633,29.517C92.864,31.152 89.358,30.829 86.933,28.717C86.383,28.15 85.867,27.567 85.35,27.05C84.576,25.563 83.902,24.027 83.333,22.45C82.873,19.727 83.949,16.973 86.133,15.283C85.567,14.683 84.883,14 84.467,13.517C82.534,16.082 79.181,17.128 76.133,16.117C75.517,15.833 74.9,15.55 74.283,15.233C72.944,14.16 71.685,12.99 70.517,11.733C69.037,9.395 68.979,6.428 70.367,4.033L68.083,3.083C67.277,6.174 64.601,8.415 61.417,8.667C60.35,8.667 59.283,8.583 58.233,8.467C56.951,8.049 55.693,7.56 54.467,7C52.162,5.456 50.909,2.757 51.217,0L48.733,0C49.19,3.186 47.55,6.304 44.667,7.733C43.933,8.017 43.2,8.283 42.45,8.517C40.79,8.692 39.119,8.754 37.45,8.7C34.77,8.058 32.658,5.997 31.95,3.333L29.667,4.283C31.302,7.053 30.979,10.558 28.867,12.983C28.233,13.583 27.567,14.167 26.9,14.75C25.472,15.474 24.003,16.114 22.5,16.667C19.774,17.123 17.019,16.04 15.333,13.85L13.567,15.517C16.145,17.439 17.194,20.802 16.167,23.85C15.867,24.533 15.55,25.217 15.217,25.867C14.19,27.127 13.076,28.313 11.883,29.417C9.546,30.894 6.583,30.958 4.183,29.583C3.867,30.333 3.483,31.25 3.233,31.85C6.324,32.656 8.565,35.332 8.817,38.517C8.817,39.45 8.817,40.367 8.667,41.3C8.231,42.667 7.719,44.008 7.133,45.317C7.109,45.379 7.081,45.44 7.05,45.5C5.493,47.816 2.771,49.064 0,48.733L0,51.217C3.185,50.765 6.301,52.404 7.733,55.283C8.033,56.033 8.3,56.8 8.55,57.567C8.709,59.228 8.759,60.899 8.7,62.567C8.086,65.261 6.034,67.396 3.367,68.117L4.3,70.4C7.07,68.765 10.575,69.087 13,71.2C13.6,71.833 14.183,72.467 14.667,73.133C15.432,74.519 16.1,75.956 16.667,77.433C17.131,80.156 16.054,82.913 13.867,84.6C14.433,85.183 15.117,85.883 15.533,86.267C17.467,83.703 20.822,82.663 23.867,83.683C24.583,84 25.3,84.333 26.017,84.7C27.264,85.735 28.444,86.848 29.55,88.033C31.011,90.377 31.069,93.334 29.7,95.733L31.983,96.683C32.772,93.581 35.457,91.332 38.65,91.1C39.55,91.1 40.433,91.1 41.333,91.25C42.84,91.71 44.315,92.266 45.75,92.917C48.065,94.49 49.312,97.221 48.983,100L51.45,100C51.004,96.816 52.641,93.703 55.517,92.267C56.367,91.933 57.183,91.65 58.067,91.383C59.596,91.242 61.132,91.198 62.667,91.25C65.361,91.864 67.496,93.915 68.217,96.583L70.5,95.65C68.868,92.874 69.19,89.366 71.3,86.933C71.933,86.333 72.6,85.75 73.267,85.267C74.617,84.562 76.008,83.938 77.433,83.4C80.161,82.937 82.922,84.013 84.617,86.2L86.283,84.533C83.727,82.595 82.683,79.248 83.683,76.2C84.1,75.3 84.517,74.4 85,73.517C85.958,72.39 86.976,71.317 88.05,70.3C90.38,68.74 93.39,68.624 95.833,70L96.8,67.717C93.697,66.925 91.444,64.243 91.2,61.05C91.2,60.067 91.283,59.1 91.383,58.117C91.816,56.76 92.328,55.43 92.917,54.133C94.516,51.859 97.243,50.659 100,51.017L100,48.55C97.234,48.905 94.491,47.746 92.817,45.517ZM78,25.7C78.583,24.983 79.233,24.2 80.217,24.233C81.472,24.72 82.556,25.567 83.333,26.667C84.284,27.947 85.027,29.371 85.533,30.883L85.35,31.55C84.9,32.617 83.55,32.883 82.5,33.217L80.833,33.467C79.685,31.352 78.335,29.353 76.8,27.5C77.183,26.9 77.583,26.3 78,25.7ZM66.667,16.767C66.933,15.883 67.233,14.917 68.167,14.567C69.37,14.535 70.557,14.853 71.583,15.483C73.022,16.348 74.32,17.427 75.433,18.683L75.433,19.367C75.433,20.55 74.283,21.3 73.45,22.017C72.95,22.3 72.467,22.6 71.983,22.9C70.172,21.416 68.218,20.116 66.15,19.017C66.433,18.333 66.567,17.517 66.667,16.767ZM53.333,10.45C54.874,9.878 56.546,9.763 58.15,10.117L59.083,10.25C60,10.451 60.882,10.788 61.7,11.25L62.05,11.85C62.483,12.933 61.717,14.067 61.2,15.05L60.15,16.5C57.892,15.806 55.569,15.343 53.217,15.117C53.05,14.433 52.917,13.75 52.8,13.05C52.55,12.148 52.749,11.181 53.333,10.45ZM37.933,12.117C38.872,11.17 40.064,10.516 41.367,10.233C42.907,9.847 44.5,9.712 46.083,9.833L46.617,10.25C47.433,11.083 47.167,12.433 47.067,13.583C46.95,14.117 46.817,14.633 46.7,15.15C44.291,15.367 41.911,15.836 39.6,16.55C39.2,15.983 38.8,15.4 38.433,14.883C37.827,14.109 37.657,13.078 37.983,12.15L37.933,12.117ZM26.983,16.433C28.206,15.534 29.561,14.831 31,14.35L31.667,14.533C32.733,15 33,16.35 33.333,17.383L33.583,19.05C31.407,20.206 29.357,21.585 27.467,23.167C26.867,22.8 26.283,22.417 25.7,22.017C25.117,21.617 24.2,20.767 24.25,19.783C24.823,18.423 25.793,17.267 27.033,16.467L26.983,16.433ZM15.717,27.967C16.522,26.642 17.529,25.45 18.7,24.433L19.383,24.433C20.55,24.433 21.3,25.6 22.017,26.433L22.867,27.833C21.392,29.636 20.097,31.579 19,33.633C18.283,33.517 17.567,33.383 16.867,33.233C16.167,33.083 15.017,32.667 14.667,31.733C14.66,30.408 15.042,29.11 15.767,28L15.717,27.967ZM10.1,41.833C10.314,40.541 10.737,39.291 11.35,38.133L11.933,37.783C13.033,37.367 14.167,38.117 15.15,38.617L16.483,39.6C15.768,41.899 15.299,44.268 15.083,46.667C14.4,46.817 13.733,46.95 13.05,47.067C12.148,47.316 11.181,47.118 10.45,46.533C9.907,45.038 9.803,43.419 10.15,41.867L10.1,41.833ZM12.167,61.967C11.202,61.013 10.541,59.795 10.267,58.467C9.884,56.943 9.744,55.368 9.85,53.8L10.283,53.25C11.117,52.433 12.467,52.7 13.617,52.8L14.333,52.967L15.15,53.167C15.364,55.594 15.839,57.991 16.567,60.317C16,60.717 15.433,61.1 14.9,61.467C14.152,62.084 13.144,62.285 12.217,62L12.167,61.967ZM21.95,74.15C21.367,74.867 20.717,75.633 19.733,75.6C18.377,75.045 17.217,74.1 16.4,72.883C15.512,71.672 14.82,70.327 14.35,68.9L14.533,68.233C15,67.167 16.35,66.9 17.383,66.567L18.967,66.317C20.117,68.477 21.492,70.51 23.067,72.383C22.8,73.017 22.417,73.6 22,74.183L21.95,74.15ZM33.333,83.067C33.067,83.95 32.767,84.917 31.833,85.267C30.466,85.261 29.13,84.862 27.983,84.117C26.677,83.332 25.506,82.342 24.517,81.183L24.517,80.5C24.517,79.333 25.667,78.567 26.5,77.867L27.917,77C29.749,78.51 31.732,79.828 33.833,80.933C33.617,81.667 33.467,82.35 33.333,83.067ZM46.817,89.533C45.426,90.092 43.9,90.226 42.433,89.917C40.998,89.699 39.607,89.249 38.317,88.583L37.983,87.983C37.55,86.9 38.317,85.767 38.817,84.783L39.8,83.417C42.117,84.125 44.503,84.589 46.917,84.8C47.083,85.5 47.233,86.217 47.367,86.933C47.607,87.841 47.396,88.808 46.8,89.533L46.817,89.533ZM62.2,87.767C61.081,88.828 59.681,89.545 58.167,89.833C56.829,90.143 55.452,90.244 54.083,90.133L53.533,89.7C52.717,88.867 53,87.517 53.083,86.367L53.483,84.7C55.856,84.473 58.197,83.993 60.467,83.267C60.9,83.867 61.317,84.483 61.7,85.1C62.287,85.857 62.467,86.852 62.183,87.767L62.2,87.767ZM50,83.783L48.033,83.783C45.283,83.624 42.562,83.126 39.933,82.3L39.633,82.3L39.333,82.2L38.75,82C26.213,77.588 17.423,66.242 16.283,53C16.2,52.033 16.167,51.067 16.167,50.083C16.154,46.489 16.716,42.916 17.833,39.5C17.933,39.183 18.05,38.883 18.167,38.567C21.657,28.983 29.269,21.475 38.9,18.117L39.533,17.9C42.042,17.085 44.638,16.565 47.267,16.35C48.167,16.35 49.067,16.25 49.983,16.25C68.622,16.277 83.736,31.361 83.8,50L83.8,51.083C83.694,54.491 83.07,57.863 81.95,61.083C81.617,62.05 81.233,63 80.817,63.933C75.323,76.018 63.275,83.778 50,83.783ZM72.783,83.783C71.677,84.578 70.45,85.192 69.15,85.6L68.483,85.417C67.417,84.95 67.15,83.6 66.817,82.567C66.817,81.983 66.633,81.4 66.533,80.9C68.603,79.794 70.552,78.475 72.35,76.967C72.983,77.35 73.617,77.767 74.217,78.2C74.817,78.633 75.717,79.433 75.683,80.417C75.038,81.773 74.021,82.917 72.75,83.717L72.783,83.783ZM83.8,72.667L83.8,72.783C83.124,73.861 82.28,74.823 81.3,75.633L80.617,75.633C79.45,75.633 78.683,74.483 77.983,73.633L77.067,72.15C78.606,70.274 79.952,68.247 81.083,66.1C81.8,66.217 82.5,66.35 83.2,66.5C83.9,66.65 85.067,67.083 85.4,68C85.319,69.66 84.751,71.26 83.767,72.6L83.8,72.667ZM89.85,58.083C89.842,58.172 89.842,58.261 89.85,58.35C89.638,59.513 89.25,60.637 88.7,61.683L88.1,62.033C87,62.467 85.867,61.7 84.9,61.2L83.517,60.2C84.213,57.932 84.666,55.597 84.867,53.233L85.883,53L86.933,52.817C87.835,52.567 88.802,52.765 89.533,53.35C90.06,54.849 90.159,56.465 89.817,58.017L89.85,58.083ZM90.1,46L89.667,46.55C88.833,47.367 87.5,47.1 86.333,47L84.75,46.633C84.534,44.212 84.059,41.82 83.333,39.5C83.9,39.1 84.483,38.7 85,38.333C85.74,37.752 86.715,37.566 87.617,37.833C88.677,38.93 89.39,40.316 89.667,41.817C89.996,43.162 90.108,44.552 90,45.933L90.1,46Z" style="fill:white;fill-opacity:0.87;fill-rule:nonzero;"/>
                    <g id="nsf-2" transform="matrix(1,0,0,1,18.3333,36.6667)">
                        <path id="path67" d="M43.717,1.8L62.983,1.8L62.983,8.617L62.167,8.617C61.417,5.083 60.5,2.95 54.667,2.95C52.833,2.95 52.217,3.083 52.217,4.617L52.217,12.5C56.433,12.5 56.933,10.15 57.417,7.5L58.333,7.5L58.333,18.983L57.483,18.983C57.1,16.2 56.567,13.717 52.283,13.717L52.283,21.5C52.283,23.733 53.633,23.8 56.017,23.9L56.017,24.75L43.783,24.75L43.783,23.9C45.733,23.7 46.783,23.6 46.783,21.5L46.783,5C46.783,2.767 45.383,2.7 43.783,2.583L43.717,1.8Z" style="fill:white;fill-opacity:0.87;fill-rule:nonzero;"/>
                        <path id="path69" d="M39.783,8.617C39.183,6.25 37.133,2.333 33.117,2.333C32.199,2.25 31.288,2.55 30.6,3.163C29.911,3.775 29.507,4.646 29.483,5.567C29.483,7.4 30.117,8.15 32.983,9.567L37.983,12.05C40.282,13.299 41.7,15.718 41.667,18.333C41.667,21.333 39.5,25.433 33.25,25.433C30.017,25.433 28.5,24.283 27.45,24.283C26.733,24.283 26.55,24.9 26.417,25.433L25.433,25.433L25.433,17.1L26.417,17.1C27.1,20.533 29.067,24.367 33.383,24.367C34.467,24.496 35.553,24.153 36.366,23.426C37.18,22.699 37.641,21.658 37.633,20.567C37.633,18.283 35.967,17.467 33.833,16.417L31.667,15.25C25.867,12.467 25.867,9.533 25.867,7.983C25.867,5.9 26.917,1.317 33.367,1.317C36.083,1.317 37.683,2.433 38.667,2.433C39.65,2.433 39.617,1.933 39.783,1.283L40.8,1.283L40.8,8.65L39.783,8.617Z" style="fill:white;fill-opacity:0.87;fill-rule:nonzero;"/>
                        <path id="path71" d="M0.317,23.9C2.35,23.667 3.317,23.433 3.317,21.183L3.317,5.083C1.417,2.75 0.867,2.633 0.417,2.633L0.417,1.8L7.583,1.8L19.383,16.3L19.383,6C19.383,3.967 18.967,2.85 16.217,2.667L16.217,1.833L23.517,1.833L23.517,2.667C21.083,2.983 20.867,3.767 20.867,5.4L20.867,25.4L20,25.4L4.883,7.067L4.883,20.667C4.883,23.1 5.6,23.75 8.117,24L8.117,24.85L0.4,24.85L0.317,23.9Z" style="fill:white;fill-opacity:0.87;fill-rule:nonzero;"/>
                    </g>
                </g>
                <g id="divider" transform="matrix(0.657071,0,0,1,0,0)">
                    <path d="M137,0L137,165" style="fill:none;stroke:rgb(252,252,252);stroke-opacity:0.87;stroke-width:2px;"/>
                </g>
                <g id="path76" transform="matrix(0.657071,0,0,1,0,0)">
                    <path d="M526,0L526,165" style="fill:none;stroke:rgb(252,252,252);stroke-opacity:0.87;stroke-width:2px;"/>
                </g>
                <g id="path761" serif:id="path76" transform="matrix(0.657071,0,0,1,113.055,0)">
                    <path d="M526,0L526,165" style="fill:none;stroke:rgb(252,252,252);stroke-opacity:0.87;stroke-width:2px;"/>
                </g>
                <g id="tidal" transform="matrix(0.657071,0,0,1,0,0)">
                    <path d="M43.43,61.54C41.835,61.549 40.243,61.686 38.67,61.95L38.67,80.21C39.997,80.378 41.333,80.454 42.67,80.44C45.95,80.44 48.58,79.59 50.26,77.97C52.152,75.981 53.142,73.301 53,70.56C53,66.44 51.33,61.54 43.43,61.54ZM17.09,61.72L17.09,64.1L22.09,64.1L22.09,78L21.14,78C16.155,77.945 11.181,78.475 6.32,79.58C6.25,80.58 6.23,81.71 6.23,82.77C6.178,106.447 24.964,125.874 48.629,126.615C72.295,127.357 92.26,109.144 93.69,85.51C87.1,86.81 77.69,87.36 67.48,86.76C68.108,87.478 68.443,88.406 68.42,89.36C68.386,91.07 67.269,92.569 65.64,93.09L65.64,93.18C67.652,93.597 69.083,95.386 69.05,97.44C69.084,98.754 68.544,100.017 67.57,100.9C66.43,101.99 64.57,102.47 61.74,102.47C60.601,102.478 59.462,102.418 58.33,102.29L58.33,85.6C50.7,84.15 42.25,81.6 34.82,79.9L34.82,61.72L32,61.72L32,79.27C29.647,78.757 27.267,78.383 24.87,78.15L24.87,64.1L29.87,64.1L29.87,61.72L17.09,61.72ZM60.21,61.72L54.56,80.26L57.43,80.26L59.05,74.78L64.7,74.78L66.36,80.26L69.36,80.26L63.67,61.72L60.21,61.72ZM71.88,61.72L71.88,80.26L81.88,80.26L81.88,77.88L74.71,77.88L74.71,61.72L71.88,61.72ZM43.7,63.79C47.7,63.79 50.03,66.1 50.03,70.61C50.03,75.72 47.51,78.17 43.34,78.15C42.725,78.159 42.111,78.129 41.5,78.06L41.5,64C42.226,63.869 42.963,63.809 43.7,63.82L43.7,63.79ZM61.83,64.15C62.1,65.29 62.39,66.57 62.73,67.78L64.21,72.63L59.41,72.63L60.89,67.78C61.2,66.64 61.52,65.29 61.79,64.15L61.83,64.15ZM32.12,85.24L34.68,85.24L34.68,100.13L41.28,100.13L41.28,102.33L32.12,102.33L32.12,85.24ZM47.6,85.24L50.74,85.24L56,102.33L53.26,102.33L51.73,97.33L46.48,97.33L45,102.33L42.35,102.33L47.6,85.24ZM62.6,87.08C62.044,87.064 61.487,87.108 60.94,87.21L60.94,92.37L62.5,92.37C64.56,92.37 65.87,91.22 65.87,89.63C65.87,87.63 64.2,87.08 62.59,87.08L62.6,87.08ZM49.09,87.48C48.85,88.48 48.58,89.79 48.29,90.85L46.9,95.33L51.29,95.33L49.95,90.85C49.63,89.73 49.38,88.53 49.14,87.48L49.09,87.48ZM60.93,94.3L60.93,100.4C61.436,100.474 61.948,100.504 62.46,100.49C64.53,100.49 66.36,99.61 66.36,97.35C66.36,95.09 64.36,94.35 62.36,94.35L60.93,94.3ZM100,82.5C100,54.886 77.614,32.5 50,32.5C22.386,32.5 0,54.886 0,82.5C0,110.114 22.386,132.5 50,132.5C77.614,132.5 100,110.114 100,82.5ZM96.41,82.5C96.41,108.132 75.632,128.91 50,128.91C24.368,128.91 3.59,108.132 3.59,82.5C3.59,56.868 24.368,36.09 50,36.09C62.31,36.085 74.118,40.973 82.823,49.677C91.527,58.382 96.415,70.19 96.41,82.5Z" style="fill:rgb(252,252,252);fill-opacity:0.87;fill-rule:nonzero;"/>
                </g>
                <g transform="matrix(0.0802619,0,0,0.122151,534.927,78.1516)">
                    <clipPath id="_clip3">
                        <rect x="-654.668" y="-302.5" width="1316.61" height="605"/>
                    </clipPath>
                    <g clip-path="url(#_clip3)">
                        <g transform="matrix(1,0,0,1,-814,-302.5)">
                            <g>
                                <g transform="matrix(0.1,0,0,-0.1,0,605)">
                                    <path d="M14070,3719C13875,3301 13712,2956 13709,2954C13706,2952 13643,3080 13569,3238L13435,3525L13292,3528C13214,3529 13150,3527 13150,3523C13151,3518 13249,3306 13368,3050L13585,2585L13705,2582L13825,2580L14255,3502C14492,4009 14690,4436 14697,4452L14709,4480L14424,4480L14070,3719Z" style="fill:rgb(213,43,30);fill-rule:nonzero;"/>
                                </g>
                                <g transform="matrix(0.1,0,0,-0.1,0,605)">
                                    <path d="M6810,4200L6810,3690L7390,3690L7390,4200L6810,4200Z" style="fill:rgb(252,252,252);fill-rule:nonzero;"/>
                                </g>
                                <g transform="matrix(0.1,0,0,-0.1,0,605)">
                                    <path d="M4177,3570C4055,3549 3905,3488 3801,3418C3733,3371 3624,3264 3574,3193C3515,3111 3456,2983 3425,2869C3375,2688 3380,2427 3436,2246C3559,1856 3859,1620 4288,1579C4638,1546 4964,1673 5159,1918C5211,1983 5273,2101 5285,2158L5292,2190L4735,2190L4715,2154C4688,2103 4617,2044 4556,2022C4358,1948 4124,2024 4025,2194C3995,2247 3960,2351 3960,2390L3960,2420L5323,2420L5317,2553C5308,2779 5255,2976 5159,3146C5101,3250 4953,3401 4854,3458C4772,3506 4635,3554 4540,3569C4465,3581 4248,3582 4177,3570ZM4505,3141C4571,3112 4623,3068 4660,3010C4693,2958 4730,2856 4730,2814L4730,2790L4345,2790C4133,2790 3960,2794 3960,2798C3960,2819 3995,2920 4017,2963C4068,3064 4162,3137 4270,3160C4338,3174 4451,3165 4505,3141Z" style="fill:rgb(252,252,252);fill-rule:nonzero;stroke:rgb(236,235,235);stroke-width:10px;stroke-linejoin:round;stroke-miterlimit:2;"/>
                                </g>
                                <g transform="matrix(0.1,0,0,-0.1,0,605)">
                                    <path d="M10020,3565C9794,3522 9626,3438 9484,3296C9301,3113 9200,2857 9200,2574C9200,2136 9450,1769 9840,1632C9974,1586 10048,1575 10225,1576C10363,1577 10398,1581 10482,1603C10774,1680 11005,1869 11121,2126C11197,2293 11230,2502 11211,2684C11163,3124 10898,3439 10485,3546C10359,3578 10137,3588 10020,3565ZM10383,3112C10492,3058 10564,2958 10607,2800C10632,2707 10632,2442 10606,2350C10563,2192 10483,2084 10372,2032C10321,2008 10303,2005 10205,2005C10107,2005 10089,2008 10038,2032C9925,2085 9838,2212 9806,2372C9785,2473 9785,2677 9806,2778C9835,2922 9908,3045 9996,3096C10070,3139 10116,3150 10221,3147C10306,3145 10324,3141 10383,3112Z" style="fill:rgb(252,252,252);fill-rule:nonzero;stroke:rgb(236,235,235);stroke-width:10px;stroke-linejoin:round;stroke-miterlimit:2;"/>
                                </g>
                                <g transform="matrix(0.1,0,0,-0.1,0,605)">
                                    <path d="M12302,3560C12262,3549 12202,3526 12169,3509C12101,3473 11988,3373 11946,3311C11930,3288 11913,3270 11909,3270C11904,3270 11900,3329 11900,3400L11900,3530L11340,3530L11340,1630L11920,1630L11920,2173C11920,2504 11924,2740 11931,2780C11966,2998 12143,3132 12343,3090C12426,3073 12486,3027 12529,2949L12565,2885L12568,2258L12571,1630L13151,1630L13148,2338L13145,3045L13121,3115C13041,3356 12891,3505 12674,3560C12571,3587 12404,3586 12302,3560Z" style="fill:rgb(252,252,252);fill-rule:nonzero;stroke:rgb(236,235,235);stroke-width:10px;stroke-linejoin:round;stroke-miterlimit:2;"/>
                                </g>
                                <g transform="matrix(0.1,0,0,-0.1,0,605)">
                                    <path d="M6403,3525C6276,3497 6149,3405 6065,3278C6044,3246 6023,3220 6019,3220C6014,3220 6010,3290 6010,3375L6010,3530L5460,3530L5460,1630L6040,1630L6040,2104C6040,2630 6044,2681 6101,2795C6180,2956 6339,3037 6559,3029L6650,3025L6650,3528L6619,3534C6569,3544 6470,3540 6403,3525Z" style="fill:rgb(252,252,252);fill-rule:nonzero;stroke:rgb(236,235,235);stroke-width:10px;stroke-linejoin:round;stroke-miterlimit:2;"/>
                                </g>
                                <g transform="matrix(0.1,0,0,-0.1,0,605)">
                                    <path d="M1570,3528C1570,3526 1719,3100 1899,2580L2228,1635L2533,1632L2838,1630L2874,1732C2894,1789 3043,2215 3204,2680L3497,3525L3212,3528C3055,3529 2923,3527 2919,3523C2915,3518 2830,3244 2729,2912C2628,2581 2543,2313 2539,2317C2535,2322 2450,2596 2349,2928L2167,3530L1868,3530C1704,3530 1570,3529 1570,3528Z" style="fill:rgb(252,252,252);fill-rule:nonzero;stroke:rgb(236,235,235);stroke-width:10px;stroke-linejoin:round;stroke-miterlimit:2;"/>
                                </g>
                                <g transform="matrix(0.1,0,0,-0.1,0,605)">
                                    <path d="M6810,3530L6810,1630L7390,1630L7390,3530L6810,3530Z" style="fill:rgb(252,252,252);fill-rule:nonzero;stroke:rgb(236,235,235);stroke-width:10px;stroke-linejoin:round;stroke-miterlimit:2;"/>
                                </g>
                                <g transform="matrix(0.1,0,0,-0.1,0,605)">
                                    <path d="M7550,3530L7550,3070L7995,3070C8240,3070 8440,3067 8440,3063C8439,3058 8239,2832 7995,2560L7550,2065L7550,1630L9180,1630L9178,1858L9175,2085L8718,2088C8466,2089 8260,2092 8260,2095C8260,2098 8458,2322 8700,2593L9139,3085L9140,3308L9140,3530L7550,3530Z" style="fill:rgb(252,252,252);fill-rule:nonzero;stroke:rgb(236,235,235);stroke-width:10px;stroke-linejoin:round;stroke-miterlimit:2;"/>
                                </g>
                            </g>
                        </g>
                    </g>
                </g>
            </g>
        </g>
    </g>
</svg>
