<?xml version="1.0" encoding="UTF-8"?><svg id="logo_layer" xmlns="http://www.w3.org/2000/svg" viewBox="0 0 637.8089 138.8395"><defs><style>.cls-1{letter-spacing:-.04em;}.cls-2{letter-spacing:-.02em;}.cls-3{font-family:CreteRound-Regular, Crete;font-size:60px;}.cls-3,.cls-4{fill:#fff;}.cls-5{fill:#791791;}.cls-5,.cls-4{stroke-width:0px;}</style></defs><rect class="cls-5" x="4.3873" y="1.9444" width="631.4415" height="134.771" rx="67.3855" ry="67.3855"/><g id="headphones"><g id="g4970"><path class="cls-4" d="m114.9779,50.7909c-4.455-7.0908-12.1398-11.3602-20.5672-11.3602-8.3902,0-16.0751,4.2322-20.53,11.3231l-.4084.594-4.2694-2.673.4084-.594c5.3831-8.5758,14.6272-13.6619,24.7994-13.6619s19.4534,5.1232,24.8365,13.7362l.4084.594-4.2694,2.673-.4084-.6311Z"/><path class="cls-4" d="m57.2859,63.5247c.0743-20.3816,16.7433-36.9763,37.1249-37.0135,20.3444,0,37.0135,16.5948,37.1249,36.9392v.9281l-.891-.2227c-1.0395-.2599-3.5269-.7425-3.564-.7425l-.5569-.1114-.0371-.594c-.4826-17.1888-14.8871-31.1849-32.0759-31.222-17.1888.0371-31.5932,14.0703-32.0759,31.2591v.5569l-.5569.1114c-.0371,0-2.4874.4826-3.564.7796l-.891.2227-.0371-.891Z"/><path id="left_brace-4" class="cls-4" d="m71.9873,102.9885l-4.158.6682c-1.3736.1856-2.5616.3341-3.7125.3341-2.0419,0-3.7496-.3712-4.9747-1.4479-1.3365-1.3736-1.8562-3.5269-2.4502-6.9424-.3341-1.8934-1.0024-2.8586-2.1532-3.4897-.7796-.4084-1.8191-.6682-3.2299-.6682-.7796,0-1.6335.0743-2.5616.2227l-1.4107.2227-.891-5.7544,1.4107-.2227c4.8633-.891,6.3855-2.4502,6.4597-5.1232,0-.3341-.0371-.7054-.1114-1.1137-.2599-1.6706-.4084-3.0814-.4084-4.2322,0-1.188.1114-2.1904.5569-3.0814,1.2994-2.1904,3.9724-3.1185,7.8705-3.7867l4.158-.6682.8168,5.3088-3.3041.5198c-1.188.1856-2.1161.4084-2.7844.6311-.594.1856-.9652.4455-1.1137.6311s-.2227.3712-.297.7425v.4084c0,.4455.0743.9652.1485,1.5964.2227,1.4479.3341,2.7101.3341,3.7867,0,.9652-.1114,1.782-.3712,2.5616-.4826,1.2623-1.2994,2.376-2.4874,3.3412,1.6335.6311,2.8957,1.5592,3.7496,2.8586h0c.8168,1.2994,1.2251,3.3041,1.782,6.4968.1114.6682.2227,1.1509.3712,1.4479.1114.1856.1485.2599.2599.3341.1485.0743.4826.1485.9652.1485h.1114c.5198,0,1.2994-.0743,2.2275-.1856l2.8215-.4826,1.4107-.2227.9653,5.1603h0Z"/><path id="right_brace-2" class="cls-4" d="m142.5246,86.0967l-.891,5.7544-1.4108-.2227c-.9652-.1485-1.8191-.2227-2.5987-.2227-1.4108,0-2.4502.2227-3.2298.6311-1.1509.594-1.8191,1.5964-2.1532,3.4897-.594,3.4155-1.1137,5.5316-2.4502,6.9424h0c-1.2251,1.1509-2.8957,1.4479-4.9005,1.4479-1.1137,0-2.3017-.1114-3.6754-.3341l-4.158-.6682.8168-5.2717,3.3412.5198c1.0766.1485,1.9305.2227,2.5616.2227h.1485c.6311,0,1.0395-.1485,1.2623-.2599.1856-.1485.3712-.2599.5198-.6311.1856-.4084.3712-1.0766.4826-1.9305.4826-2.7844.9652-4.7149,1.9676-6.0142.8168-1.0766,1.9676-1.8191,3.4155-2.376-1.3736-1.1137-2.3017-2.4131-2.7101-3.8981h0c-.1114-.4826-.1485-.9281-.1485-1.4479,0-.4084.0371-.8168.0743-1.2623.1114-1.0766.2599-2.4131.4826-4.0095h0c.0743-.4084.1114-.7796.1114-1.0766,0-.1485,0-.2599-.0371-.3712-.0371-.2227-.0743-.297-.1856-.4455-.1114-.1114-.3712-.297-.8539-.4826-.5198-.1485-1.2994-.3712-2.3389-.5198l-4.2322-.6682.8168-5.3088,4.158.6682c3.8239.6682,6.4968,1.5964,7.7962,3.7867.4826.9281.594,1.9305.594,3.1927,0,1.1509-.1485,2.5616-.4084,4.1951-.0742.4084-.1114.8168-.1114,1.1509,0,1.2623.3712,2.1161,1.0766,2.8586.891.9652,2.673,1.782,5.3831,2.1904l1.485.3713h0Z"/></g></g><text class="cls-3" transform="translate(177.5253 89.8052)"><tspan x="0" y="0">Learn </tspan><tspan class="cls-2" x="167.5776" y="0">T</tspan><tspan x="201.9575" y="0">une</tspan><tspan class="cls-1" x="303.4761" y="0">P</tspan><tspan x="334.9761" y="0">ad</tspan></text></svg>