<?xml version="1.0" encoding="UTF-8"?><svg id="logo_layer" xmlns="http://www.w3.org/2000/svg" viewBox="0 0 144 144"><defs><style>.cls-1{fill:#791791;}.cls-1,.cls-2{stroke-width:0px;}.cls-2{fill:#fff;}</style></defs><circle class="cls-1" cx="72" cy="72" r="72"/><g id="headphones"><g id="g4970"><path class="cls-2" d="m91.616,51.6493c-4.2643-6.7874-11.6203-10.8741-19.6871-10.8741-8.0312,0-15.3872,4.0511-19.6515,10.8385l-.3909.5686-4.0867-2.5586.3909-.5686c5.1528-8.2089,14.0013-13.0773,23.7382-13.0773s18.621,4.904,23.7737,13.1484l.3909.5686-4.0867,2.5586-.3909-.6041Z"/><path class="cls-2" d="m36.3927,63.8382c.0711-19.5094,16.0268-35.3941,35.5362-35.4296,19.4738,0,35.4296,15.8847,35.5362,35.3585v.8884l-.8529-.2132c-.995-.2488-3.3759-.7107-3.4115-.7107l-.533-.1066-.0355-.5686c-.462-16.4533-14.25-29.8504-30.7033-29.8859-16.4533.0355-30.2413,13.4682-30.7033,29.9215v.533l-.533.1066c-.0355,0-2.3809.462-3.4115.7463l-.8529.2132-.0355-.8529Z"/><path id="left_brace-4" class="cls-2" d="m50.4651,101.6132l-3.9801.6396c-1.3148.1777-2.452.3198-3.5536.3198-1.9545,0-3.5891-.3554-4.7619-1.3859-1.2793-1.3148-1.7768-3.3759-2.3454-6.6453-.3198-1.8123-.9595-2.7363-2.0611-3.3404-.7463-.3909-1.7413-.6396-3.0917-.6396-.7463,0-1.5636.0711-2.452.2132l-1.3504.2132-.8529-5.5081,1.3504-.2132c4.6552-.8529,6.1122-2.3454,6.1833-4.904,0-.3198-.0355-.6752-.1066-1.0661-.2488-1.5991-.3909-2.9495-.3909-4.0511,0-1.1372.1066-2.0966.533-2.9495,1.2438-2.0966,3.8024-2.9851,7.5337-3.6247l3.9801-.6396.7818,5.0817-3.1627.4975c-1.1372.1777-2.0256.3909-2.6652.6041-.5686.1777-.9239.4264-1.0661.6041s-.2132.3554-.2843.7107v.3909c0,.4264.0711.9239.1422,1.5281.2132,1.3859.3198,2.5941.3198,3.6247,0,.9239-.1066,1.7057-.3554,2.452-.462,1.2082-1.2438,2.2743-2.3809,3.1983,1.5636.6041,2.7718,1.4925,3.5891,2.7363h0c.7818,1.2438,1.1727,3.1627,1.7057,6.2188.1066.6396.2132,1.1016.3554,1.3859.1066.1777.1422.2488.2488.3198.1422.0711.462.1422.9239.1422h.1066c.4975,0,1.2438-.0711,2.1322-.1777l2.7007-.462,1.3504-.2132.924,4.9395h0Z"/><path id="right_brace-2" class="cls-2" d="m117.9839,85.4442l-.8529,5.5081-1.3504-.2132c-.9239-.1422-1.7413-.2132-2.4875-.2132-1.3504,0-2.3454.2132-3.0916.6041-1.1016.5686-1.7413,1.5281-2.0611,3.3404-.5686,3.2693-1.0661,5.2949-2.3454,6.6453h0c-1.1727,1.1016-2.7718,1.3859-4.6908,1.3859-1.0661,0-2.2032-.1066-3.5181-.3198l-3.9801-.6396.7818-5.0461,3.1983.4975c1.0306.1422,1.8479.2132,2.452.2132h.1422c.6041,0,.995-.1422,1.2082-.2488.1777-.1422.3554-.2488.4975-.6041.1777-.3909.3554-1.0306.462-1.8479.462-2.6652.9239-4.5131,1.8834-5.7569.7818-1.0306,1.8834-1.7413,3.2693-2.2743-1.3148-1.0661-2.2032-2.3099-2.5941-3.7313h0c-.1066-.462-.1422-.8884-.1422-1.3859,0-.3909.0355-.7818.0711-1.2082.1066-1.0306.2488-2.3099.462-3.8379h0c.0711-.3909.1066-.7463.1066-1.0306,0-.1422,0-.2488-.0355-.3554-.0355-.2132-.0711-.2843-.1777-.4264-.1066-.1066-.3554-.2843-.8173-.462-.4975-.1422-1.2438-.3554-2.2388-.4975l-4.0511-.6396.7818-5.0817,3.9801.6396c3.6602.6396,6.2188,1.5281,7.4626,3.6247.462.8884.5686,1.8479.5686,3.0561,0,1.1016-.1422,2.452-.3909,4.0156-.0711.3909-.1066.7818-.1066,1.1016,0,1.2082.3554,2.0256,1.0306,2.7363.8529.9239,2.5586,1.7057,5.1528,2.0966l1.4214.3554h0Z"/></g></g></svg>