<?xml version="1.0" encoding="utf-8"?>
<!-- Generator: Adobe Illustrator 28.0.0, SVG Export Plug-In . SVG Version: 6.00 Build 0)  -->
<svg version="1.1" id="Layer_1" xmlns="http://www.w3.org/2000/svg" xmlns:xlink="http://www.w3.org/1999/xlink" x="0px" y="0px"
	 viewBox="0 0 600 400" style="enable-background:new 0 0 600 400;" xml:space="preserve">
<style type="text/css">
	.st0{fill:#0A0A0A;}
</style>
<g id="Layer_2_00000183244064541661169330000002257441113943281584_">
	<g id="iconography">
		<g id="iconography-2">
			<g id="artwork_default_">
				<path class="st0" d="M272.5,62.8c66.2-11.4,113.5,20.8,136.2,83.3c2.3,5.7,2.6,12.9-3.8,15.1c-8.3,3.4-10.2-4.2-12.5-10.2
					c-11-33.3-29.5-59.8-65.1-70c-45-12.9-84.4,0.4-115.1,35.6c-17.4,20.1-22.7,43.1-22.3,68.9c0,6.1-0.4,12.9-8.3,12.5
					c-6.4-0.4-7.2-6.4-7.6-12.1C170.7,124.5,214.6,74.6,272.5,62.8z"/>
				<path class="st0" d="M412.1,292.6c-1.5,0-3.4,0.4-4.9,0.4c-4.2,0-7.9-1.1-11.7-1.1c-6.4-0.4-11-3.4-11-10.2
					c0-10.2,9.1-9.8,16.7-9.5c2.6,0,5.3,0,7.6-1.1c1.5-0.4,1.9-4.5,2.3-5.3c1.1-4.2,2.3-8.3,3.4-12.5c0.8-4.2,1.5-8.3,3-12.1
					c1.5-4.5,1.9-9.1,0.8-13.6c-0.8-5.3-3-10.2-4.5-15.5c-1.5-5.3-2.3-11-5.7-15.1c-1.9-1.9-3.8-3-6.4-3.4c-2.6,0-5.3,0-7.6,0.4
					c-5.3,0-8.7-5.7-8.7-10.2c0-7.2,5.3-9.8,11.7-10.2c15.9-0.8,33.3,2.3,34.4,25.4c0.8,13.6,6.1,23.1,21.6,23.5
					c6.1-0.4,11.4,4.2,11.7,10.6v0.4c0.4,5.3-3.8,9.8-9.1,10.2c-0.4,0-0.8,0-1.1,0c-10.6-1.5-17.8,3-20.1,13.6
					c-2.3,10.6-1.1,22.3-10.6,30.3c-1.1,1.1-2.6,1.9-4.2,2.6C417,291,414.8,291.8,412.1,292.6z"/>
				<path class="st0" d="M197.2,207.8c6.4-1.9,12.1-1.1,14.4,5.7c2.3,5.3-0.4,11.4-5.7,13.2c-0.4,0.4-1.1,0.4-1.5,0.4
					c-5.7,1.1-11,4.2-11,10.6c0.4,3.8,0.8,7.6,1.5,11.4c0,4.2-0.4,8.3-1.1,12.5c-0.8,15.1,15.1,25.4,20.4,38.2
					c3.4,7.9,10.2,3,15.1,1.1c6.8-2.6,13.2-3,16.3,4.2c3,7.2-3,11.7-8.7,14.8c-19.7,11-32.2,6.8-42.4-13.6
					c-6.1-11.4-12.1-20.8-28-13.2c-4.9,2.3-10.6,0-12.5-4.9c0-0.4-0.4-0.8-0.4-1.1c-1.9-5.3,0.4-11,5.7-13.2c0,0,0,0,0.4,0
					c17.4-6.4,16.7-18.9,13.6-33.7C169.5,223.3,178.6,211.6,197.2,207.8z"/>
				<path class="st0" d="M276.3,89.3l3-0.4c26.1-4.2,55.3,0.4,74.6,19.3c3.4,3.4,8.3,6.8,4.2,11.7c-4.9,6.1-9.1,1.1-13.2-2.3
					c-37.5-29.9-94.2-19.7-119.2,22c-3,4.9-5.7,12.5-12.5,9.1c-5.3-2.6-4.5-6.4-1.9-11c3.8-6.4,8.3-12.9,12.9-18.9
					c4.5-5.3,9.5-9.8,14.8-13.6c11-7.9,23.8-13.2,37.1-15.9H276.3z"/>
				<path class="st0" d="M316,269.9c-7.2,1.5-14,2.6-21.2,3.4c-12.1,1.1-24.6,1.1-36.7,0c-6.8-0.8-22.3,0.4-19.7-10.6
					c1.9-7.9,9.1-4.2,14.8-3.8c33.7,1.9,66.6-2.3,97.6-15.1c2.3-1.1,4.9-1.5,7.6-3c4.9-2.6,9.5-2.3,12.1,3
					c3.4,6.8-5.7,9.8-10.2,12.1c-6.8,3.4-14,6.1-21.2,8.3C331.5,266.1,323.6,268.3,316,269.9z"/>
				<path class="st0" d="M367.8,212.3c0,0.8,0.4,1.9,0.4,2.6c-0.4,16.3-25.4,18.5-27.2,1.9c-1.1-7.6,4.5-14.8,12.1-15.5h0.4
					C359.9,200.6,366.7,205.5,367.8,212.3z"/>
				<path class="st0" d="M262.3,230.1c2.3,6.4-1.1,14-7.6,16.3c-0.4,0-1.1,0.4-1.5,0.4c-7.6,1.9-13.6-1.1-15.9-8.7
					c-1.5-4.9-0.4-10.2,3.4-13.6c4.5-3.8,11.4-4.5,16.3-1.1C259.6,224.8,261.1,227.5,262.3,230.1z"/>
			</g>
		</g>
	</g>
</g>
</svg>
