<?xml version="1.0" encoding="utf-8"?>
<!-- Generator: Adobe Illustrator 16.0.0, SVG Export Plug-In . SVG Version: 6.00 Build 0)  -->
<!DOCTYPE svg PUBLIC "-//W3C//DTD SVG 1.1//EN" "http://www.w3.org/Graphics/SVG/1.1/DTD/svg11.dtd">
<svg version="1.1" id="logo_x5F_layer" xmlns="http://www.w3.org/2000/svg" xmlns:xlink="http://www.w3.org/1999/xlink" x="0px"
	 y="0px" width="335.34px" height="308.115px" viewBox="0 0 335.34 308.115" enable-background="new 0 0 335.34 308.115"
	 xml:space="preserve">
<g id="logo_x5F_layer">
	<g>
		<g id="logo_x5F_group_9_">
			<g>
				<path id="arc_x5F_small_9_" fill="#F7F7FF" d="M138.01,132.741c6.17-9.809,17.066-16.298,29.57-16.298
					c12.528,0,23.444,6.517,29.609,16.358l4.237-2.65c-7.034-11.252-19.554-18.711-33.847-18.708
					c-14.264-0.002-26.762,7.424-33.803,18.639L138.01,132.741L138.01,132.741L138.01,132.741z"/>
				<path id="arc_x5F_big_9_" fill="#F7F7FF" d="M218.48,151.107c-1.48-0.36-5.021-1.03-5.021-1.03
					c-0.72-24.66-21.05-44.59-45.88-44.64c-24.84,0.05-45.18,19.99-45.88,44.67c0,0-3.479,0.68-5.021,1.06
					c0.101-27.94,22.93-50.72,50.9-50.73C195.53,100.448,218.34,123.188,218.48,151.107z"/>
				<path id="left_x5F_brace_9_" fill="#F7F7FF" d="M136.24,206.298l-5.84,0.92c-1.91,0.3-3.61,0.46-5.15,0.46
					c-2.85-0.01-5.199-0.49-6.92-2.061c-1.88-1.93-2.59-4.92-3.42-9.71c-0.45-2.659-1.42-4.03-3.02-4.899
					c-1.061-0.57-2.551-0.92-4.521-0.91c-1.069,0-2.28,0.1-3.61,0.31l-1.979,0.31l-1.28-8.07l1.98-0.32
					c6.82-1.24,8.949-3.41,9.029-7.16c0-0.48-0.039-1-0.13-1.56c-0.37-2.33-0.56-4.29-0.56-5.93c0.01-1.7,0.16-3.06,0.81-4.31
					c1.82-3.09,5.55-4.39,10.99-5.31l5.83-0.93l1.17,7.41l-4.59,0.73c-1.681,0.27-2.99,0.57-3.89,0.88
					c-0.851,0.29-1.33,0.62-1.541,0.87c-0.22,0.26-0.34,0.51-0.399,1.02c-0.011,0.17-0.021,0.36-0.021,0.56
					c0,0.59,0.07,1.34,0.211,2.22c0.319,2.03,0.479,3.78,0.489,5.29c-0.01,1.36-0.13,2.53-0.5,3.59c-0.64,1.78-1.829,3.3-3.51,4.65
					c2.271,0.89,4.069,2.2,5.271,4.03l0.01,0.01v0.01c1.1,1.83,1.72,4.62,2.459,9.09c0.141,0.92,0.341,1.601,0.531,1.99
					c0.14,0.29,0.219,0.36,0.39,0.46c0.19,0.1,0.64,0.23,1.37,0.24h0.119c0.75,0,1.811-0.09,3.121-0.3l3.959-0.63l1.971-0.311
					L136.24,206.298z"/>
				<path id="right_x5F_brace_9_" fill="#F7F7FF" d="M234.84,182.667l-1.279,8.08l-1.971-0.32c-1.34-0.21-2.56-0.31-3.63-0.31
					c-1.97,0-3.45,0.34-4.51,0.9c-1.59,0.86-2.561,2.23-3.021,4.91c-0.819,4.729-1.55,7.74-3.46,9.67
					c-0.01,0.01-0.01,0.01-0.02,0.02c-1.71,1.561-4.04,2.04-6.87,2.061c-1.53,0-3.23-0.16-5.14-0.46l-5.83-0.92l1.17-7.36l4.66,0.74
					c1.489,0.24,2.71,0.34,3.6,0.34h0.21c0.87-0.01,1.44-0.18,1.75-0.35c0.29-0.17,0.5-0.37,0.74-0.87
					c0.26-0.58,0.53-1.49,0.72-2.69c0.64-3.89,1.36-6.56,2.74-8.44c1.149-1.49,2.76-2.56,4.78-3.32c-1.9-1.55-3.2-3.35-3.771-5.47
					l-0.01-0.01v-0.02c-0.15-0.64-0.2-1.29-0.2-2.04c0-0.54,0.03-1.12,0.08-1.76c0.13-1.49,0.36-3.34,0.69-5.58v-0.02
					c0.1-0.58,0.14-1.08,0.14-1.47c0-0.2-0.01-0.38-0.03-0.52c-0.05-0.31-0.109-0.43-0.26-0.6c-0.14-0.15-0.521-0.42-1.22-0.65
					c-0.74-0.25-1.84-0.5-3.25-0.73l-5.931-0.94l1.181-7.4l5.83,0.92c5.369,0.91,9.09,2.22,10.92,5.29
					c0.68,1.29,0.84,2.71,0.859,4.48c0,1.64-0.189,3.57-0.55,5.85c-0.09,0.58-0.14,1.1-0.14,1.59c0.02,1.78,0.5,2.96,1.49,4.01
					c1.27,1.33,3.75,2.49,7.55,3.08L234.84,182.667z"/>
			</g>
		</g>
	</g>
</g>
</svg>
