<?xml version="1.0" encoding="utf-8"?>
<!-- Generator: Adobe Illustrator 22.1.0, SVG Export Plug-In . SVG Version: 6.00 Build 0)  -->
<svg version="1.1"
	 id="logo_x5F_layer" inkscape:export-filename="/Users/msh801/github/TunePad2/assets/images/email_logo.png" inkscape:export-xdpi="45.290001" inkscape:export-ydpi="45.290001" inkscape:version="0.91 r13725" sodipodi:docname="email_logo.svg" xmlns:cc="http://creativecommons.org/ns#" xmlns:dc="http://purl.org/dc/elements/1.1/" xmlns:inkscape="http://www.inkscape.org/namespaces/inkscape" xmlns:rdf="http://www.w3.org/1999/02/22-rdf-syntax-ns#" xmlns:sodipodi="http://sodipodi.sourceforge.net/DTD/sodipodi-0.dtd" xmlns:svg="http://www.w3.org/2000/svg"
	 xmlns="http://www.w3.org/2000/svg" xmlns:xlink="http://www.w3.org/1999/xlink" x="0px" y="0px" viewBox="0 0 294 294"
	 style="enable-background:new 0 0 294 294;" xml:space="preserve">
<style type="text/css">
	.st0{fill:#FFFFFF;}
</style>
<circle cx="147" cy="147" r="129"/>
<g id="g5736" transform="translate(-84,-26.579987)" inkscape:export-xdpi="60" inkscape:export-ydpi="60">
	<g id="g4970" transform="matrix(0.4588403,0,0,0.4588403,-188.75184,-154.52765)">
		<path class="st0" d="M973.2,641.1c-12-19.1-32.7-30.6-55.4-30.6c-22.6,0-43.3,11.4-55.3,30.5l-1.1,1.6l-11.5-7.2l1.1-1.6
			c14.5-23.1,39.4-36.8,66.8-36.8s52.4,13.8,66.9,37l1.1,1.6l-11.5,7.2L973.2,641.1z"/>
		<path class="st0" d="M817.8,675.4c0.2-54.9,45.1-99.6,100-99.7c54.8,0,99.7,44.7,100,99.5v2.5l-2.4-0.6c-2.8-0.7-9.5-2-9.6-2
			l-1.5-0.3l-0.1-1.6c-1.3-46.3-40.1-84-86.4-84.1c-46.3,0.1-85.1,37.9-86.4,84.2v1.5l-1.5,0.3c-0.1,0-6.7,1.3-9.6,2.1l-2.4,0.6
			L817.8,675.4z"/>
		<path id="left_x5F_brace-4" inkscape:connector-curvature="0" class="st0" d="M857.4,781.7l-11.2,1.8c-3.7,0.5-6.9,0.9-10,0.9
			c-5.5,0-10.1-1-13.4-3.9c-3.6-3.7-5-9.5-6.6-18.7c-0.9-5.1-2.7-7.7-5.8-9.4c-2.1-1.1-4.9-1.8-8.7-1.8c-2.1,0-4.4,0.2-6.9,0.6
			l-3.8,0.6l-2.4-15.5l3.8-0.6c13.1-2.4,17.2-6.6,17.4-13.8c0-0.9-0.1-1.9-0.3-3c-0.7-4.5-1.1-8.3-1.1-11.4c0-3.2,0.3-5.9,1.5-8.3
			c3.5-5.9,10.7-8.4,21.2-10.2l11.2-1.8l2.2,14.3l-8.9,1.4c-3.2,0.5-5.7,1.1-7.5,1.7c-1.6,0.5-2.6,1.2-3,1.7c-0.4,0.5-0.6,1-0.8,2
			c0,0.4,0,0.7,0,1.1c0,1.2,0.2,2.6,0.4,4.3c0.6,3.9,0.9,7.3,0.9,10.2c0,2.6-0.3,4.8-1,6.9c-1.3,3.4-3.5,6.4-6.7,9
			c4.4,1.7,7.8,4.2,10.1,7.7l0,0l0,0c2.2,3.5,3.3,8.9,4.8,17.5c0.3,1.8,0.6,3.1,1,3.9c0.3,0.5,0.4,0.7,0.7,0.9
			c0.4,0.2,1.3,0.4,2.6,0.4h0.3c1.4,0,3.5-0.2,6-0.5l7.6-1.3l3.8-0.6L857.4,781.7L857.4,781.7z"/>
		<path id="right_x5F_brace-2" inkscape:connector-curvature="0" class="st0" d="M1047.4,736.2l-2.4,15.5l-3.8-0.6
			c-2.6-0.4-4.9-0.6-7-0.6c-3.8,0-6.6,0.6-8.7,1.7c-3.1,1.6-4.9,4.3-5.8,9.4c-1.6,9.2-3,14.9-6.6,18.7l0,0
			c-3.3,3.1-7.8,3.9-13.2,3.9c-3,0-6.2-0.3-9.9-0.9l-11.2-1.8l2.2-14.2l9,1.4c2.9,0.4,5.2,0.6,6.9,0.6h0.4c1.7,0,2.8-0.4,3.4-0.7
			c0.5-0.4,1-0.7,1.4-1.7c0.5-1.1,1-2.9,1.3-5.2c1.3-7.5,2.6-12.7,5.3-16.2c2.2-2.9,5.3-4.9,9.2-6.4c-3.7-3-6.2-6.5-7.3-10.5l0,0
			l0,0c-0.3-1.3-0.4-2.5-0.4-3.9c0-1.1,0.1-2.2,0.2-3.4c0.3-2.9,0.7-6.5,1.3-10.8l0,0c0.2-1.1,0.3-2.1,0.3-2.9c0-0.4,0-0.7-0.1-1
			c-0.1-0.6-0.2-0.8-0.5-1.2c-0.3-0.3-1-0.8-2.3-1.3c-1.4-0.4-3.5-1-6.3-1.4l-11.4-1.8l2.2-14.3l11.2,1.8c10.3,1.8,17.5,4.3,21,10.2
			c1.3,2.5,1.6,5.2,1.6,8.6c0,3.1-0.4,6.9-1.1,11.3c-0.2,1.1-0.3,2.2-0.3,3.1c0,3.4,1,5.7,2.9,7.7c2.4,2.6,7.2,4.8,14.5,5.9
			L1047.4,736.2L1047.4,736.2z"/>
	</g>
</g>
<g id="tunepad_1_" transform="matrix(0.60952314,0,0,0.60952314,8.1453086,55.260697)" inkscape:export-xdpi="60" inkscape:export-ydpi="60">
	<g id="g5108">
		<path id="d_8_" inkscape:connector-curvature="0" class="st0" d="M336.4,253.2h-10.2v26.3h10.2c6.1,0,9.2-4.4,9.2-13.2
			C345.6,257.6,342.5,253.2,336.4,253.2z M336.4,276h-6.5v-19.3h6.5c3.6,0,5.6,3.2,5.6,9.6S340,276,336.4,276z"/>
		<path id="a_8_" inkscape:connector-curvature="0" class="st0" d="M299.6,253.3h-1.7c-0.9,0-1.5,0.5-1.9,1.6l-8.3,24.4h3.5l2.3-6.2
			h10.6l2.3,6.2h3.5l-8.3-24.4C301.1,253.9,300.5,253.3,299.6,253.3z M302.9,269.8h-8.3l4.1-11.8h0.3L302.9,269.8z"/>
		<path id="p_8_" inkscape:connector-curvature="0" class="st0" d="M267,253.3h-11.3v26h3.5v-10.2h7.8c4.9,0,7.4-2.7,7.4-7.9
			C274.2,255.9,271.8,253.3,267,253.3L267,253.3z M259.1,256.6h6.8c3.3,0,4.9,1.5,4.9,4.6s-1.6,4.7-4.7,4.7h-7V256.6L259.1,256.6z"
			/>
		<path id="e_8_" inkscape:connector-curvature="0" class="st0" d="M221.1,258.1v16.5c0,3.1,1.6,4.8,4.9,4.8l0,0l12.7-0.3v-3.2H226
			c-1,0-1.4-0.4-1.4-1.3V268h10.8v-3.2h-10.8v-6.7c0-1,0.4-1.4,1.4-1.4h12.8v-3.2l-12.8-0.3C222.8,253.3,221.1,254.9,221.1,258.1
			L221.1,258.1z"/>
		<path id="n_8_" inkscape:connector-curvature="0" class="st0" d="M199.8,275.8L199.8,275.8l-11.1-21.6c-0.3-0.7-0.8-1-1.4-1H184
			c-0.7,0-1,0.3-1,1v25h3.5v-21.6h0.1l10.8,20.4c0.3,0.8,0.9,1.2,1.5,1.2h3.2c0.7,0,1-0.3,1-1v-25.1h-3.5L199.8,275.8L199.8,275.8z"
			/>
		<path id="u_8_" inkscape:connector-curvature="0" class="st0" d="M161.2,270.4c0,3.7-1.8,5.6-5.6,5.6H155c-3.6,0-5.3-1.8-5.3-5.6
			v-17.1h-3.6v17.1c0,6,3,8.9,8.9,8.9h0.7c6,0,9-3,9-8.9v-17.1h-3.5L161.2,270.4L161.2,270.4z"/>
		<polygon id="t_8_" class="st0" points="110,256.7 118.3,256.7 118.3,279.4 121.7,279.4 121.7,256.7 129.4,256.7 129.4,253.3 
			110,253.3 		"/>
	</g>
</g>
</svg>
