<?xml version="1.0" encoding="UTF-8" standalone="no"?>
<svg
   xmlns:dc="http://purl.org/dc/elements/1.1/"
   xmlns:cc="http://creativecommons.org/ns#"
   xmlns:rdf="http://www.w3.org/1999/02/22-rdf-syntax-ns#"
   xmlns:svg="http://www.w3.org/2000/svg"
   xmlns="http://www.w3.org/2000/svg"
   xmlns:sodipodi="http://sodipodi.sourceforge.net/DTD/sodipodi-0.dtd"
   xmlns:inkscape="http://www.inkscape.org/namespaces/inkscape"
   viewBox="0 0 100 100"
   x="0px"
   y="0px"
   id="svg2"
   version="1.1"
   inkscape:version="0.91 r13725"
   sodipodi:docname="bass.svg">
  <metadata
     id="metadata19">
    <rdf:RDF>
      <cc:Work
         rdf:about="">
        <dc:format>image/svg+xml</dc:format>
        <dc:type
           rdf:resource="http://purl.org/dc/dcmitype/StillImage" />
      </cc:Work>
    </rdf:RDF>
  </metadata>
  <sodipodi:namedview
     pagecolor="#ffffff"
     bordercolor="#666666"
     borderopacity="1"
     objecttolerance="10"
     gridtolerance="10"
     guidetolerance="10"
     inkscape:pageopacity="0"
     inkscape:pageshadow="2"
     inkscape:window-width="883"
     inkscape:window-height="624"
     id="namedview17"
     showgrid="false"
     inkscape:zoom="2.36"
     inkscape:cx="27.542373"
     inkscape:cy="50"
     inkscape:window-x="297"
     inkscape:window-y="11"
     inkscape:window-maximized="0"
     inkscape:current-layer="svg2" />
  <defs
     id="defs4">
    <clipPath
       id="a">
      <rect
         width="100"
         height="100"
         style=""
         fill="none"
         id="rect7" />
    </clipPath>
  </defs>
  <title
     id="title9">BASS</title>
  <g
     id="g11"
     style="fill:#ffffff">
    <g
       style="clip-path:url(#a);fill:#ffffff"
       id="g13"
       clip-path="url(#a)">
      <path
         d="M86.1,17.25c-7.18-4.87-12.62-1.53-14-1.07a29.76,29.76,0,0,0-3.47,2.12l.92-.65a5.78,5.78,0,0,1,.66-5.27.77.77,0,0,0,.19-.52,3.91,3.91,0,0,0-5.86-4.8,3.91,3.91,0,0,0-6.22,4.17,3.91,3.91,0,0,0,1.83,7.1h.06a3.93,3.93,0,0,0,.92,0c1.39,0,3.91.19,5.21,1.52-3.29,2.23-7.7,5.29-12.53,8.68a5.73,5.73,0,0,1,.69-5.18.77.77,0,0,0,.19-.52A3.91,3.91,0,0,0,48.9,18a3.91,3.91,0,0,0-6.22,4.17,3.91,3.91,0,0,0,1.83,7.1h.06a3.93,3.93,0,0,0,.92,0c1.38,0,3.88.19,5.19,1.5-4.07,2.87-8.32,5.88-12.36,8.76a5.73,5.73,0,0,1,.69-5.2.77.77,0,0,0,.19-.52A3.91,3.91,0,0,0,33.34,29a3.91,3.91,0,0,0-6.22,4.16,3.91,3.91,0,0,0,1.83,7.1H29a3.93,3.93,0,0,0,.92,0c1.39,0,3.92.19,5.22,1.53L23,50.42a5.69,5.69,0,0,1,.74-5.06.77.77,0,0,0,.19-.52A3.91,3.91,0,0,0,18.11,40a3.91,3.91,0,0,0-6.22,4.16,3.91,3.91,0,0,0,1.83,7.1h.06a3.93,3.93,0,0,0,.92,0c1.36,0,3.8.19,5.12,1.45l-2.35,1.68s-5.95,2.89-3.06,8.84c4.65,7,2,10.71.95,11.8L26.74,85.37l-.67.74L14.66,75.75l.33-.37-58.71,62.75,13.62,12.39S19.07,93.82,29,82.92C37,74.06,45,75.16,47.9,76a1.45,1.45,0,0,0,1.65-.64C52.23,71,60.22,57.89,61.82,54.91c2.4-4.46,8-14.29,10.65-13.54a22.9,22.9,0,0,0,6.11.58,18,18,0,0,0,11.73-9.25S93.28,22.13,86.1,17.25ZM29.45,62.7a3.07,3.07,0,1,1-.4-4.32A3.07,3.07,0,0,1,29.45,62.7ZM46.84,51.54a3.07,3.07,0,1,1-.4-4.32A3.07,3.07,0,0,1,46.84,51.54ZM62,40.5a3.07,3.07,0,1,1-.4-4.32A3.07,3.07,0,0,1,62,40.5ZM77.24,29.38a3.07,3.07,0,1,1-.4-4.32A3.07,3.07,0,0,1,77.24,29.38Z"
         id="path15"
         style="fill:#ffffff" />
    </g>
  </g>
</svg>
