<?xml version="1.0" encoding="UTF-8" standalone="no"?>
<svg
   xmlns:dc="http://purl.org/dc/elements/1.1/"
   xmlns:cc="http://creativecommons.org/ns#"
   xmlns:rdf="http://www.w3.org/1999/02/22-rdf-syntax-ns#"
   xmlns:svg="http://www.w3.org/2000/svg"
   xmlns="http://www.w3.org/2000/svg"
   xmlns:sodipodi="http://sodipodi.sourceforge.net/DTD/sodipodi-0.dtd"
   xmlns:inkscape="http://www.inkscape.org/namespaces/inkscape"
   version="1.1"
   x="0px"
   y="0px"
   viewBox="0 0 100 100"
   enable-background="new 0 0 100 100"
   xml:space="preserve"
   id="svg2"
   inkscape:version="0.91 r13725"
   sodipodi:docname="drumkit.svg"><metadata
     id="metadata18"><rdf:RDF><cc:Work
         rdf:about=""><dc:format>image/svg+xml</dc:format><dc:type
           rdf:resource="http://purl.org/dc/dcmitype/StillImage" /><dc:title /></cc:Work></rdf:RDF></metadata><defs
     id="defs16" /><sodipodi:namedview
     pagecolor="#ffffff"
     bordercolor="#666666"
     borderopacity="1"
     objecttolerance="10"
     gridtolerance="10"
     guidetolerance="10"
     inkscape:pageopacity="0"
     inkscape:pageshadow="2"
     inkscape:window-width="1208"
     inkscape:window-height="703"
     id="namedview14"
     showgrid="false"
     inkscape:zoom="3.337544"
     inkscape:cx="4.3217053"
     inkscape:cy="50"
     inkscape:window-x="66"
     inkscape:window-y="0"
     inkscape:window-maximized="0"
     inkscape:current-layer="svg2" /><g
     display="none"
     id="g4"><path
       display="inline"
       d="M92.5,27.5H90V25h-2.5v-2.5H85V20h-2.5v-2.5H80V15h-2.5v-2.5H75V10h-2.5V7.5H70V5h-2.5h-35H30v2.5h-2.5   V10H25v2.5h-2.5V15H20v2.5h-2.5V20H15v2.5h-2.5V25H10v2.5H7.5V30H5v2.5v35V70h2.5v2.5H10V75h2.5v2.5H15V80h2.5v2.5H20V85h2.5v2.5   H25V90h2.5v2.5H30V95h2.5h35H70v-2.5h2.5V90H75v-2.5h2.5V85H80v-2.5h2.5V80H85v-2.5h2.5V75H90v-2.5h2.5V70v-2.5H95V30h-2.5V27.5z    M90,32.5V70h-2.5v2.5H85V75h-2.5v2.5H80V80h-2.5v2.5H75V85h-2.5v2.5H70V90h-2.5H65H40h-2.5H35h-2.5H30v-2.5h-2.5V85H25v-2.5h-2.5   V80H20v-2.5h-2.5V75H15v-2.5h-2.5V70H10v-2.5V30h2.5v-2.5H15V25h2.5v-2.5H20V20h2.5v-2.5H25V15h2.5v-2.5H30V10h2.5H35h2.5H40h25   h2.5H70v2.5h2.5V15H75v2.5h2.5V20H80v2.5h2.5V25H85v2.5h2.5V30H90V32.5z"
       id="path6" /><polygon
       display="inline"
       points="87.5,30 85,30 85,27.5 82.5,27.5 82.5,25 80,25 80,22.5 77.5,22.5 77.5,20 75,20 75,17.5    72.5,17.5 72.5,15 70,15 70,12.5 67.5,12.5 65,12.5 62.5,12.5 60,12.5 57.5,12.5 55,12.5 52.5,12.5 50,12.5 47.5,12.5 45,12.5    42.5,12.5 40,12.5 37.5,12.5 35,12.5 32.5,12.5 30,12.5 30,15 27.5,15 27.5,17.5 25,17.5 25,20 22.5,20 22.5,22.5 20,22.5 20,25    17.5,25 17.5,27.5 15,27.5 15,30 12.5,30 12.5,67.5 12.5,70 15,70 15,72.5 17.5,72.5 17.5,75 20,75 20,77.5 22.5,77.5 22.5,80    25,80 25,82.5 27.5,82.5 27.5,85 30,85 30,87.5 32.5,87.5 35,87.5 37.5,87.5 40,87.5 42.5,87.5 45,87.5 47.5,87.5 50,87.5    52.5,87.5 55,87.5 57.5,87.5 60,87.5 62.5,87.5 65,87.5 67.5,87.5 70,87.5 70,85 72.5,85 72.5,82.5 75,82.5 75,80 77.5,80    77.5,77.5 80,77.5 80,75 82.5,75 82.5,72.5 85,72.5 85,70 87.5,70 87.5,32.5  "
       id="polygon8" /></g><path
     inkscape:connector-curvature="0"
     id="path12"
     d="M 63.531408,63.826951 C 54.289933,47.878844 63.225685,63.413006 53.9847,47.464634 L 29.611906,10.282168 C 30.508268,8.9777504 30.647895,7.2249772 29.798066,5.763503 28.626128,3.741959 26.042081,3.0532344 24.022219,4.2254042 22.001237,5.395682 21.310644,7.9791255 22.485965,10.001733 c 0.811641,1.40333 2.307563,2.143723 3.825383,2.086084 L 46.116962,52.02222 c 9.23628,15.940005 0.295616,0.397585 9.532315,16.337356 l 14.186311,24.238532 c 1.257222,2.1751 4.043001,2.913829 6.212674,1.655146 2.173851,-1.256755 2.922811,-4.046714 1.65378,-6.21495 z"
     sodipodi:nodetypes="cccccccccccsc"
     style="fill:#ffffff" /><path
     style="fill:#ffffff"
     sodipodi:nodetypes="cccccccccccsc"
     d="M 44.133762,68.267772 C 53.32449,52.290368 44.339389,67.796033 53.53059,51.818923 L 73.545154,12.120231 c 1.577844,0.124067 3.165602,-0.631399 4.006362,-2.098112 C 78.716253,7.9964215 78.020684,5.4142065 75.995623,4.2510405 73.971641,3.0859578 71.38902,3.7796073 70.225049,5.8087715 69.415548,7.2133328 69.522313,8.8790384 70.331154,10.164691 L 45.649725,47.284029 c -9.18631,15.968855 -0.196519,0.454805 -9.382406,16.423908 L 22.369287,88.112912 c -1.255082,2.176335 -0.501953,4.958257 1.672936,6.207903 2.175306,1.254228 4.965966,0.507869 6.209195,-1.67526 z"
     id="path4137"
     inkscape:connector-curvature="0" /></svg>