<?xml version="1.0" encoding="UTF-8" standalone="no"?>
<svg
   xmlns:dc="http://purl.org/dc/elements/1.1/"
   xmlns:cc="http://creativecommons.org/ns#"
   xmlns:rdf="http://www.w3.org/1999/02/22-rdf-syntax-ns#"
   xmlns:svg="http://www.w3.org/2000/svg"
   xmlns="http://www.w3.org/2000/svg"
   xmlns:sodipodi="http://sodipodi.sourceforge.net/DTD/sodipodi-0.dtd"
   xmlns:inkscape="http://www.inkscape.org/namespaces/inkscape"
   height="100px"
   width="100px"
   fill="#000000"
   viewBox="0 0 100 100"
   version="1.1"
   x="0px"
   y="0px"
   id="svg24"
   sodipodi:docname="guitar.svg"
   inkscape:version="0.92.2 5c3e80d, 2017-08-06">
  <metadata
     id="metadata30">
    <rdf:RDF>
      <cc:Work
         rdf:about="">
        <dc:format>image/svg+xml</dc:format>
        <dc:type
           rdf:resource="http://purl.org/dc/dcmitype/StillImage" />
        <dc:title>Gibson Tom DeLonge Lefty</dc:title>
      </cc:Work>
    </rdf:RDF>
  </metadata>
  <defs
     id="defs28" />
  <sodipodi:namedview
     pagecolor="#ffffff"
     bordercolor="#666666"
     borderopacity="1"
     objecttolerance="10"
     gridtolerance="10"
     guidetolerance="10"
     inkscape:pageopacity="0"
     inkscape:pageshadow="2"
     inkscape:window-width="1306"
     inkscape:window-height="763"
     id="namedview26"
     showgrid="false"
     inkscape:zoom="2.9454987"
     inkscape:cx="61.97537"
     inkscape:cy="42.596994"
     inkscape:window-x="172"
     inkscape:window-y="18"
     inkscape:window-maximized="0"
     inkscape:current-layer="svg24" />
  <title
     id="title2">Gibson Tom DeLonge Lefty</title>
  <desc
     id="desc4">Created with Sketch.</desc>
  <g
     style="fill:#ffffff;fill-rule:evenodd;stroke:none;stroke-width:1"
     transform="matrix(4.8226772,-4.8226774,-4.8226774,-4.8226772,-270.6338,523.32274)"
     id="g18">
    <path
       d="m 75.387908,17.534254 -1.31029,0.04745 v -3.76005 l 1.31029,0.03108 z m 0.448761,-0.0066 v -3.67059 h 1.651856 c 0,0 1.285238,0 1.285238,-1.143335 0.540734,0.0185 1.054848,0.02623 1.544084,0.02529 v -0.375478 c -0.238804,-0.03715 -0.44309,-0.114696 -0.540132,-0.229284 -0.175959,-0.207772 -0.266355,-1.29688 0.907356,-1.29688 1.17371,0 1.080095,1.057188 0.851485,1.29688 -0.103497,0.108514 -0.283903,0.181144 -0.492094,0.220161 v 0.376737 c 0.78843,-0.01562 1.507708,-0.05311 2.166361,-0.102125 v -0.5913 c -0.238804,-0.03715 -0.44309,-0.114696 -0.540132,-0.229284 -0.175958,-0.207772 -0.266355,-1.296881 0.907356,-1.296881 1.173711,0 1.080096,1.057189 0.851485,1.296881 -0.103496,0.108514 -0.283903,0.181144 -0.492093,0.220161 v 0.539972 c 0.735715,-0.06749 1.388975,-0.145879 1.974469,-0.217339 v -0.635247 c -0.238804,-0.03715 -0.44309,-0.114696 -0.540132,-0.229284 -0.175958,-0.207772 -0.266355,-1.296881 0.907356,-1.296881 1.173711,0 1.080096,1.057189 0.851485,1.296881 -0.103497,0.108514 -0.283903,0.181144 -0.492093,0.220161 v 0.556539 c 0.643561,-0.07545 1.196399,-0.129202 1.684917,-0.129202 0,2.078371 1.418249,2.708194 0.327356,3.6916 1.090893,0.836571 -0.327356,1.135494 -0.327356,3.606315 -0.509965,0 -1.059747,-0.04978 -1.695096,-0.122333 v 0.634956 c 0.208191,0.03902 0.388597,0.111647 0.492094,0.220161 0.22861,0.239692 0.322225,1.29688 -0.851486,1.29688 -1.173711,0 -1.083314,-1.089108 -0.907356,-1.29688 0.09704,-0.114588 0.301328,-0.192136 0.540133,-0.229284 v -0.712389 c -0.580119,-0.07052 -1.22972,-0.149863 -1.97447,-0.222875 v 0.62265 c 0.208191,0.03902 0.388597,0.111647 0.492094,0.220161 0.22861,0.239692 0.322225,1.296881 -0.851486,1.296881 -1.17371,0 -1.083314,-1.089109 -0.907356,-1.296881 0.09704,-0.114588 0.301328,-0.192136 0.540132,-0.229284 v -0.679636 c -0.650542,-0.05449 -1.368176,-0.10179 -2.16636,-0.133939 v 0.49689 c 0.20819,0.03902 0.388596,0.111647 0.492093,0.220161 0.228611,0.239691 0.322226,1.29688 -0.851485,1.29688 -1.173711,0 -1.083314,-1.089108 -0.907356,-1.29688 0.09704,-0.114589 0.301328,-0.192137 0.540132,-0.229284 v -0.512029 c -0.482976,-0.01285 -0.993446,-0.02002 -1.533905,-0.02002 0,-1.22838 -1.285238,-1.22838 -1.285238,-1.22838 z m -1.906689,0.05647 V 13.82008 Z m 6.273879,-3.960385 c 0,0.268067 0.223858,0.5 0.5,0.5 0.268067,0 0.5,-0.223857 0.5,-0.5 0,-0.268066 -0.223857,-0.5 -0.5,-0.5 -0.268066,0 -0.5,0.223858 -0.5,0.5 z M 83.10741,13.48953 c 0,0.268066 0.223857,0.5 0.5,0.5 0.268066,0 0.5,-0.223858 0.5,-0.5 0,-0.268067 -0.223858,-0.5 -0.5,-0.5 -0.268067,0 -0.5,0.223857 -0.5,0.5 z m 2.682943,-0.208185 c 0,0.268066 0.223857,0.5 0.5,0.5 0.268066,0 0.5,-0.223858 0.5,-0.5 0,-0.268067 -0.223858,-0.5 -0.5,-0.5 -0.268067,0 -0.5,0.223857 -0.5,0.5 z m -5.586656,4.721106 c 0,0.276143 0.231933,0.5 0.5,0.5 0.276142,0 0.5,-0.231933 0.5,-0.5 0,-0.276142 -0.231934,-0.5 -0.5,-0.5 -0.276143,0 -0.5,0.231934 -0.5,0.5 z m 2.90355,0.19928 c 0,0.276143 0.231933,0.5 0.5,0.5 0.276142,0 0.5,-0.231933 0.5,-0.5 0,-0.276142 -0.231934,-0.5 -0.5,-0.5 -0.276143,0 -0.5,0.231934 -0.5,0.5 z m 2.688869,0.216786 c 0,0.276142 0.231934,0.5 0.5,0.5 0.276143,0 0.5,-0.231933 0.5,-0.5 0,-0.276142 -0.231933,-0.5 -0.5,-0.5 -0.276142,0 -0.5,0.231934 -0.5,0.5 z"
       id="path14"
       inkscape:connector-curvature="0"
       sodipodi:nodetypes="ccccccccccccsscccccsccccccsccccccccsscccccssccccccscccccccccssssssssssssssssssssssssscsssc"
       style="fill:#ffffff" />
  </g>
</svg>
