<?xml version="1.0" encoding="UTF-8" standalone="no"?>
<svg
   xmlns:dc="http://purl.org/dc/elements/1.1/"
   xmlns:cc="http://creativecommons.org/ns#"
   xmlns:rdf="http://www.w3.org/1999/02/22-rdf-syntax-ns#"
   xmlns:svg="http://www.w3.org/2000/svg"
   xmlns="http://www.w3.org/2000/svg"
   xmlns:sodipodi="http://sodipodi.sourceforge.net/DTD/sodipodi-0.dtd"
   xmlns:inkscape="http://www.inkscape.org/namespaces/inkscape"
   version="1.1"
   viewBox="0 0 32 32"
   x="0px"
   y="0px"
   id="svg2"
   inkscape:version="0.91 r13725"
   sodipodi:docname="marimba.svg">
  <metadata
     id="metadata24">
    <rdf:RDF>
      <cc:Work
         rdf:about="">
        <dc:format>image/svg+xml</dc:format>
        <dc:type
           rdf:resource="http://purl.org/dc/dcmitype/StillImage" />
      </cc:Work>
    </rdf:RDF>
  </metadata>
  <defs
     id="defs22" />
  <sodipodi:namedview
     pagecolor="#ffffff"
     bordercolor="#666666"
     borderopacity="1"
     objecttolerance="10"
     gridtolerance="10"
     guidetolerance="10"
     inkscape:pageopacity="0"
     inkscape:pageshadow="2"
     inkscape:window-width="1005"
     inkscape:window-height="602"
     id="namedview20"
     showgrid="false"
     inkscape:zoom="7.375"
     inkscape:cx="-2.1869244"
     inkscape:cy="16"
     inkscape:window-x="77"
     inkscape:window-y="25"
     inkscape:window-maximized="0"
     inkscape:current-layer="svg2" />
  <path
     style="fill:#ffffff;stroke:none"
     d="M 4.6470526,3 C 3.8622265,3 3.226,3.6362266 3.226,4.4210528 l 0,24.1578952 C 3.226,29.363773 3.8622265,30 4.6470526,30 l 2.8421054,0 c 0.7848257,0 1.4210526,-0.636227 1.4210526,-1.421052 l 0,-24.1578952 C 8.9102106,3.6362266 8.2739837,3 7.489158,3 L 4.6470526,3 Z m 1.4210527,3.1973684 c 0.355536,0 0.7110705,0.2362984 0.7105262,0.7105264 0.00109,0.9484574 -1.4221425,0.9484574 -1.4210525,0 -5.443e-4,-0.474228 0.3549903,-0.7105264 0.7105263,-0.7105264 z m 0,19.1842116 c 0.355536,0 0.7110705,0.236296 0.7105262,0.710524 0.00109,0.948457 -1.4221425,0.948457 -1.4210525,0 -5.443e-4,-0.474228 0.3549903,-0.710524 0.7105263,-0.710524 z"
     id="path4"
     inkscape:connector-curvature="0" />
  <path
     style="fill:#ffffff;stroke:none"
     d="m 18.288604,5.8421052 c -0.784829,0 -1.421052,0.6362266 -1.421052,1.4210528 l 0,18.473686 c 0,0.784825 0.636223,1.421052 1.421052,1.421052 l 2.842104,0 c 0.784825,0 1.421052,-0.636227 1.421052,-1.421052 l 0,-18.473686 c 0,-0.7848262 -0.636227,-1.4210528 -1.421052,-1.4210528 l -2.842104,0 z m 1.421052,3.1973674 c 0.355265,0 0.710524,0.2368418 0.710524,0.7105274 0,0.947367 -1.421052,0.947367 -1.421052,0 0,-0.4736856 0.355264,-0.7105274 0.710528,-0.7105274 z m 0,13.4999994 c 0.355265,0 0.710524,0.236842 0.710524,0.710528 0,0.947367 -1.421052,0.947367 -1.421052,0 0,-0.473686 0.355264,-0.710528 0.710528,-0.710528 z"
     id="path6"
     inkscape:connector-curvature="0" />
  <path
     style="fill:#ffffff;stroke:none"
     d="m 25.110766,7.263158 c -0.784825,0 -1.421052,0.6362266 -1.421052,1.4210531 l 0,15.6315769 c 0,0.784829 0.636227,1.421056 1.421052,1.421056 l 2.842104,0 c 0.784829,0 1.421056,-0.636227 1.421056,-1.421056 l 0,-15.6315769 c 0,-0.7848265 -0.636227,-1.4210531 -1.421056,-1.4210531 l -2.842104,0 z m 1.421052,3.19737 c 0.355535,0 0.711071,0.236296 0.710528,0.710524 0.0011,0.948457 -1.422143,0.948457 -1.421052,0 -5.48e-4,-0.474228 0.354988,-0.710524 0.710524,-0.710524 z m 0,10.657892 c 0.355535,0 0.711071,0.2363 0.710528,0.710528 0.0011,0.948457 -1.422143,0.948457 -1.421052,0 -5.48e-4,-0.474228 0.354988,-0.710528 0.710524,-0.710528 z"
     id="path8"
     inkscape:connector-curvature="0" />
  <path
     style="fill:#ffffff;stroke:none"
     d="m 11.469216,4.4210528 c -0.784824,0 -1.421052,0.6362266 -1.421052,1.4210524 l 0,21.3157908 c 0,0.784825 0.636228,1.421052 1.421052,1.421052 l 2.842104,0 c 0.784825,0 1.421052,-0.636227 1.421052,-1.421052 l 0,-21.3157908 c 0,-0.7848258 -0.636227,-1.4210524 -1.421052,-1.4210524 l -2.842104,0 z m 1.421052,3.194593 c 0.355752,0 0.711504,0.2386414 0.710528,0.7133019 0.0018,0.9493189 -1.423007,0.9493189 -1.421056,0 -9.76e-4,-0.4746605 0.354777,-0.7133019 0.710528,-0.7133019 z m 0,16.3421052 c 0.355752,0 0.711504,0.238641 0.710528,0.713301 0.0018,0.949319 -1.423007,0.949319 -1.421056,0 -9.76e-4,-0.47466 0.354777,-0.713301 0.710528,-0.713301 z"
     id="path14"
     inkscape:connector-curvature="0" />
</svg>
