<?xml version="1.0" encoding="UTF-8" standalone="no"?>
<svg
   xmlns:dc="http://purl.org/dc/elements/1.1/"
   xmlns:cc="http://creativecommons.org/ns#"
   xmlns:rdf="http://www.w3.org/1999/02/22-rdf-syntax-ns#"
   xmlns:svg="http://www.w3.org/2000/svg"
   xmlns="http://www.w3.org/2000/svg"
   xmlns:sodipodi="http://sodipodi.sourceforge.net/DTD/sodipodi-0.dtd"
   xmlns:inkscape="http://www.inkscape.org/namespaces/inkscape"
   version="1.1"
   x="0px"
   y="0px"
   viewBox="0 0 100 100"
   style="enable-background:new 0 0 100 100;"
   xml:space="preserve"
   id="svg2"
   inkscape:version="0.91 r13725"
   sodipodi:docname="sampler.svg"><metadata
     id="metadata12"><rdf:RDF><cc:Work
         rdf:about=""><dc:format>image/svg+xml</dc:format><dc:type
           rdf:resource="http://purl.org/dc/dcmitype/StillImage" /></cc:Work></rdf:RDF></metadata><defs
     id="defs10" /><sodipodi:namedview
     pagecolor="#ffffff"
     bordercolor="#666666"
     borderopacity="1"
     objecttolerance="10"
     gridtolerance="10"
     guidetolerance="10"
     inkscape:pageopacity="0"
     inkscape:pageshadow="2"
     inkscape:window-width="1081"
     inkscape:window-height="643"
     id="namedview8"
     showgrid="false"
     inkscape:zoom="2.36"
     inkscape:cx="-6.3559322"
     inkscape:cy="50"
     inkscape:window-x="116"
     inkscape:window-y="44"
     inkscape:window-maximized="0"
     inkscape:current-layer="svg2" /><path
     d="m 88.20983,40.272627 c -0.4012,-1.253742 -1.613394,-2.073333 -2.918716,-1.985929 -1.313929,0.0874 -2.398591,1.058876 -2.630714,2.354173 L 79.115522,60.428536 73.524543,25.517134 c -0.219228,-1.374104 -1.397033,-2.391427 -2.788331,-2.41292 -0.01302,0 -0.02725,0 -0.0416,0 -1.374101,0 -2.557635,0.977204 -2.814116,2.331248 L 62.63345,53.115268 58.466714,37.305195 c -0.341011,-1.295296 -1.547479,-2.183664 -2.871425,-2.133514 -1.338289,0.0458 -2.465944,1.014457 -2.715259,2.328382 L 47.025409,68.33214 40.85125,11.98816 C 40.69364,10.551011 39.49004,9.4563123 38.0443,9.4348204 c -0.01435,0 -0.0287,0 -0.04305,0 -1.427118,0 -2.639311,1.0517116 -2.837043,2.4702336 L 29.38699,53.337359 26.716167,29.692461 c -0.157625,-1.397029 -1.305335,-2.4731 -2.708097,-2.540444 -1.405623,-0.05594 -2.650763,0.891233 -2.941633,2.266769 l -3.670958,17.270148 -0.706405,-4.013416 c -0.21779,-1.242281 -1.223645,-2.196559 -2.477395,-2.34844 -1.24801,-0.146152 -2.457335,0.53302 -2.96743,1.686464 l -3.26833,7.400672 -4.7642326,0 c -1.5818601,0 -2.8656974,1.283835 -2.8656974,2.865702 0,1.581866 1.2838373,2.865702 2.8656974,2.865702 l 6.6297979,0 c 1.1348247,0 2.1621747,-0.669142 2.6221197,-1.707959 l 0.212065,-0.481436 1.62915,9.264809 c 0.23785,1.351179 1.399895,2.345577 2.771135,2.368502 1.36121,0.05725 2.5691,-0.925621 2.85423,-2.268202 l 3.0706,-14.444564 3.23824,28.675635 c 0.161915,1.434283 1.36695,2.524683 2.80982,2.543311 1.429985,0.01866 2.676575,-1.04025 2.87574,-2.470235 l 5.735695,-41.129975 5.754335,52.515404 c 0.15474,1.409925 1.31822,2.496026 2.73674,2.551908 0.0387,0.001 0.07595,0.001 0.114643,0.001 1.369805,0 2.556202,-0.974338 2.814112,-2.331247 l 7.069685,-37.229756 4.169595,15.820104 c 0.34102,1.295296 1.507361,2.200857 2.871435,2.133513 1.33828,-0.04725 2.465934,-1.014457 2.715252,-2.329815 l 4.553597,-24.018843 5.671225,35.407168 c 0.22066,1.379835 1.40419,2.398592 2.802654,2.412918 1.374101,0.0387 2.600623,-0.985799 2.847076,-2.359905 l 4.48912,-25.063418 0.04725,0.149016 c 0.379705,1.1864 1.483005,1.991661 2.72958,1.991661 l 7.741695,0 c 1.581855,0 2.865695,-1.283834 2.865695,-2.8657 0,-1.581866 -1.28384,-2.865701 -2.865695,-2.865701 l -5.651165,0 -2.927308,-9.141564 z"
     id="path6"
     inkscape:connector-curvature="0"
     style="fill:#ffffff" /></svg>