<?xml version="1.0" encoding="UTF-8" standalone="no"?>
<svg
   xmlns:dc="http://purl.org/dc/elements/1.1/"
   xmlns:cc="http://creativecommons.org/ns#"
   xmlns:rdf="http://www.w3.org/1999/02/22-rdf-syntax-ns#"
   xmlns:svg="http://www.w3.org/2000/svg"
   xmlns="http://www.w3.org/2000/svg"
   xmlns:sodipodi="http://sodipodi.sourceforge.net/DTD/sodipodi-0.dtd"
   xmlns:inkscape="http://www.inkscape.org/namespaces/inkscape"
   height="100px"
   width="100px"
   fill="#000000"
   data-name="Layer 1"
   viewBox="0 0 100 100"
   x="0px"
   y="0px"
   version="1.1"
   id="svg6"
   sodipodi:docname="sequencer.svg"
   inkscape:version="0.92.2 5c3e80d, 2017-08-06">
  <metadata
     id="metadata12">
    <rdf:RDF>
      <cc:Work
         rdf:about="">
        <dc:format>image/svg+xml</dc:format>
        <dc:type
           rdf:resource="http://purl.org/dc/dcmitype/StillImage" />
        <dc:title>beats, beats, drum-machine, ;oops</dc:title>
      </cc:Work>
    </rdf:RDF>
  </metadata>
  <defs
     id="defs10" />
  <sodipodi:namedview
     pagecolor="#ffffff"
     bordercolor="#666666"
     borderopacity="1"
     objecttolerance="10"
     gridtolerance="10"
     guidetolerance="10"
     inkscape:pageopacity="0"
     inkscape:pageshadow="2"
     inkscape:window-width="1139"
     inkscape:window-height="545"
     id="namedview8"
     showgrid="false"
     inkscape:zoom="2.5724186"
     inkscape:cx="44.845997"
     inkscape:cy="39.004794"
     inkscape:window-x="79"
     inkscape:window-y="130"
     inkscape:window-maximized="0"
     inkscape:current-layer="svg6" />
  <title
     id="title2">beats, beats, drum-machine, ;oops</title>
  <path
     d="M10,18V82a4,4,0,0,0,4,4H86a4.0002,4.0002,0,0,0,4-4V18a4,4,0,0,0-4-4H14A3.99988,3.99988,0,0,0,10,18ZM65,53.99441a3.00077,3.00077,0,0,1,3-3h3V43.47876a3,3,0,1,1,6,0v7.51565h3a3,3,0,0,1,0,6H77V75.47876a3,3,0,0,1-6,0V56.99441H68A3.00077,3.00077,0,0,1,65,53.99441ZM42.00024,69.99976a8.08615,8.08615,0,1,1,8.0857,8A8.04309,8.04309,0,0,1,42.00024,69.99976Zm0-20a8.08615,8.08615,0,1,1,8.0857,8A8.04309,8.04309,0,0,1,42.00024,49.99976ZM18,69.99976a8.08615,8.08615,0,1,1,8.08569,8A8.04309,8.04309,0,0,1,18,69.99976Zm0-20a8.08615,8.08615,0,1,1,8.08569,8A8.04309,8.04309,0,0,1,18,49.99976ZM18,26a4.0002,4.0002,0,0,1,4-4H77.99976a4,4,0,0,1,4,4v4a4,4,0,0,1-4,4H22a4.0002,4.0002,0,0,1-4-4Z"
     id="path4"
     style="fill:#ffffff" />
</svg>
