<?xml version="1.0" encoding="UTF-8" standalone="no"?>
<svg
   xmlns:dc="http://purl.org/dc/elements/1.1/"
   xmlns:cc="http://creativecommons.org/ns#"
   xmlns:rdf="http://www.w3.org/1999/02/22-rdf-syntax-ns#"
   xmlns:svg="http://www.w3.org/2000/svg"
   xmlns="http://www.w3.org/2000/svg"
   xmlns:sodipodi="http://sodipodi.sourceforge.net/DTD/sodipodi-0.dtd"
   xmlns:inkscape="http://www.inkscape.org/namespaces/inkscape"
   version="1.1"
   x="0px"
   y="0px"
   viewBox="0 0 100 100"
   id="svg2"
   inkscape:version="0.91 r13725"
   sodipodi:docname="text.svg">
  <metadata
     id="metadata12">
    <rdf:RDF>
      <cc:Work
         rdf:about="">
        <dc:format>image/svg+xml</dc:format>
        <dc:type
           rdf:resource="http://purl.org/dc/dcmitype/StillImage" />
        <dc:title></dc:title>
      </cc:Work>
    </rdf:RDF>
  </metadata>
  <defs
     id="defs10" />
  <sodipodi:namedview
     pagecolor="#ffffff"
     bordercolor="#666666"
     borderopacity="1"
     objecttolerance="10"
     gridtolerance="10"
     guidetolerance="10"
     inkscape:pageopacity="0"
     inkscape:pageshadow="2"
     inkscape:window-width="1085"
     inkscape:window-height="717"
     id="namedview8"
     showgrid="false"
     inkscape:zoom="1.18"
     inkscape:cx="33.389586"
     inkscape:cy="40.497285"
     inkscape:window-x="106"
     inkscape:window-y="11"
     inkscape:window-maximized="0"
     inkscape:current-layer="svg2" />
  <g
     style="font-style:normal;font-variant:normal;font-weight:600;font-stretch:normal;font-size:80px;line-height:125%;font-family:'Adobe Fan Heiti Std';-inkscape-font-specification:'Adobe Fan Heiti Std Semi-Bold';text-align:end;letter-spacing:0px;word-spacing:0px;text-anchor:end;fill:#ffffff;fill-opacity:1;stroke:none;stroke-width:1px;stroke-linecap:butt;stroke-linejoin:miter;stroke-opacity:1"
     id="text4153"
     transform="matrix(1.0758106,0,0,1.0758106,160.60288,-109.55397)">
    <path
       d="m -118.00361,144.6216 c 0,1.6 0,26.08 -0.24,28.16 -0.08,1.2 -1.04,2.16 -2.64,2.16 l -4.56,0 c -0.32,0 -0.56,0.16 -0.56,0.64 l 0,1.84 c 0,0.56 0.16,0.72 0.64,0.72 1.12,0 4.48,-0.24 12.64,-0.24 8.64,0 11.2,0.24 12,0.24 0.64,0 0.799999,-0.32 0.799999,-0.8 l 0,-1.68 c 0,-0.4 -0.159999,-0.72 -0.479999,-0.72 l -4.64,0 c -1.92,0 -2.72,-1.6 -2.72,-7.68 l 0,-42.64 2.24,0 c 2.88,0 10.079999,0.16 12.319999,1.44 2.24,1.6 5.2,6.72 6.32,8.96 0.24,0.48 0.4,0.72 0.72,0.64 l 1.6,-0.56 c 0.24,-0.08 0.4,-0.24 0.32,-0.72 -0.64,-3.84 -2.24,-13.76 -2.4,-15.2 -0.16,-0.96 -0.32,-1.28 -0.8,-1.28 -0.48,0 -0.8,0.32 -1.44,0.8 -1.2,0.88 -4.24,2 -5.76,2.08 -3.68,0.16 -7.039999,0.48 -15.839999,0.48 l -4.32,0 c -7.84,0 -11.2,-0.32 -15.52,-0.48 -2.24,-0.08 -3.84,-0.48 -5.44,-2.08 -0.48,-0.48 -0.8,-0.8 -1.28,-0.8 -0.32,0 -0.8,0.32 -0.96,1.44 l -3.84,14.72 c -0.08,0.4 0,0.64 0.32,0.8 l 1.6,0.56 c 0.4,0.16 0.64,-0.16 0.88,-0.56 1.52,-2.72 4.56,-8 7.12,-9.12 3.36,-1.12 9.12,-1.12 11.68,-1.12 l 2.24,0 0,20 z"
       style="font-style:normal;font-variant:normal;font-weight:600;font-stretch:normal;font-family:'Adobe Caslon Pro';-inkscape-font-specification:'Adobe Caslon Pro Semi-Bold';fill:#ffffff"
       id="path4158"
       inkscape:connector-curvature="0" />
    <path
       d="m -82.507361,148.9416 0,10.4 c 0,3.04 -0.24,9.44 -0.24,12.32 0,3.36 3.6,7.2 8.4,7.2 5.6,0 8.96,-2.4 10.08,-3.2 0.32,-0.32 0.48,-0.64 0.32,-1.12 l -0.48,-0.96 c -0.16,-0.4 -0.4,-0.4 -0.96,-0.16 -1.12,0.56 -2.88,0.96 -4.64,0.96 -1.6,0 -4.24,-1.28 -4.24,-7.52 l 0,-7.2 c 0,-3.52 0.08,-7.36 0.24,-10.72 l 9.68,0 c 0.48,0 0.72,-0.16 0.8,-0.48 l 0.8,-3.36 c 0.08,-0.32 -0.08,-0.64 -0.56,-0.64 l -10.56,0 0.32,-7.92 c 0,-0.64 -0.32,-1.12 -0.96,-1.12 -0.48,0 -0.96,0.16 -1.28,0.8 -1.76,3.36 -8.72,9.28 -10.96,10.08 -1.04,0.4 -1.52,0.88 -1.52,1.52 0,0.8 0.48,1.12 1.12,1.12 z"
       style="font-style:normal;font-variant:normal;font-weight:600;font-stretch:normal;font-family:'Adobe Caslon Pro';-inkscape-font-specification:'Adobe Caslon Pro Semi-Bold';fill:#ffffff"
       id="path4160"
       inkscape:connector-curvature="0"
       sodipodi:nodetypes="csssccccssscsccsccsccssc" />
  </g>
  <text
     xml:space="preserve"
     style="font-style:normal;font-variant:normal;font-weight:600;font-stretch:normal;font-size:80px;line-height:125%;font-family:'Adobe Fan Heiti Std';-inkscape-font-specification:'Adobe Fan Heiti Std Semi-Bold';text-align:end;letter-spacing:0px;word-spacing:0px;text-anchor:end;fill:#000000;fill-opacity:1;stroke:none;stroke-width:1px;stroke-linecap:butt;stroke-linejoin:miter;stroke-opacity:1"
     x="35.954582"
     y="224.64255"
     id="text4164"
     sodipodi:linespacing="125%"><tspan
       sodipodi:role="line"
       id="tspan4166"
       x="35.954582"
       y="224.64255" /></text>
  <g
     transform="translate(48.165858,147.37889)"
     data-name="Calque 4"
     id="g4234" />
</svg>
