<?xml version="1.0" encoding="UTF-8" standalone="no"?>
<svg
   xmlns:dc="http://purl.org/dc/elements/1.1/"
   xmlns:cc="http://creativecommons.org/ns#"
   xmlns:rdf="http://www.w3.org/1999/02/22-rdf-syntax-ns#"
   xmlns:svg="http://www.w3.org/2000/svg"
   xmlns="http://www.w3.org/2000/svg"
   xmlns:sodipodi="http://sodipodi.sourceforge.net/DTD/sodipodi-0.dtd"
   xmlns:inkscape="http://www.inkscape.org/namespaces/inkscape"
   version="1.1"
   x="0px"
   y="0px"
   viewBox="0 0 100 100"
   id="svg2"
   inkscape:version="0.91 r13725"
   sodipodi:docname="voxel.svg">
  <metadata
     id="metadata12">
    <rdf:RDF>
      <cc:Work
         rdf:about="">
        <dc:format>image/svg+xml</dc:format>
        <dc:type
           rdf:resource="http://purl.org/dc/dcmitype/StillImage" />
      </cc:Work>
    </rdf:RDF>
  </metadata>
  <defs
     id="defs10" />
  <sodipodi:namedview
     pagecolor="#ffffff"
     bordercolor="#666666"
     borderopacity="1"
     objecttolerance="10"
     gridtolerance="10"
     guidetolerance="10"
     inkscape:pageopacity="0"
     inkscape:pageshadow="2"
     inkscape:window-width="933"
     inkscape:window-height="565"
     id="namedview8"
     showgrid="false"
     inkscape:zoom="2.36"
     inkscape:cx="30.720339"
     inkscape:cy="45.762712"
     inkscape:window-x="106"
     inkscape:window-y="11"
     inkscape:window-maximized="0"
     inkscape:current-layer="svg2" />
  <g
     transform="translate(0,-952.36218)"
     id="g4"
     style="fill:#ffffff">
    <path
       style="color:#000000;text-indent:0;text-transform:none;direction:ltr;block-progression:tb;baseline-shift:baseline;display:inline;overflow:visible;visibility:visible;fill:#ffffff;fill-opacity:1;fill-rule:evenodd;stroke:none;marker:none;enable-background:accumulate"
       d="m 31.696056,958.36029 c -4.5477,-10e-5 -9.103,1.72981 -12.5625,5.1875 -6.9186,6.91493 -6.9198,18.18813 0,25.09373 4.6002,4.5968 10.3511,5.6481 15.4062,4.3438 l 39.1563,34.21868 c 0.192945,0.1656 0.415688,0.2928 0.6563,0.375 1.9524,0.7118 3.9156,0.3021 5.5312,-0.6562 1.7158,2.2051 2.2595,4.3643 2.1562,6.3437 -0.1204,2.3179 -1.2156,4.497 -2.9062,6.1563 -1.6906,1.6593 -3.9462,2.7343 -6.1875,2.9062 -2.2376,0.1717 -4.4612,-0.4648 -6.5,-2.4687 l 0,-0.031 -23.2187,-23.1875 c -2.4213,-2.4201 -5.3235,-3.5 -8.0938,-3.4688 -0.1847,0 -0.3793,-0.012 -0.5625,0 -2.9304,0.1934 -5.5918,1.5615 -7.5937,3.5625 -2.0022,2.0011 -3.3689,4.6953 -3.5626,7.625 -0.1934,2.9298 0.886,6.0749 3.4688,8.6563 1.895919,1.9481 4.781486,-0.9696 2.8125,-2.8438 -1.8652,-1.8641 -2.4334,-3.7324 -2.3125,-5.5625 0.1209,-1.8301 1.024,-3.6495 2.4062,-5.0312 1.3824,-1.3817 3.1994,-2.2854 5.0313,-2.4063 1.8319,-0.1209 3.7288,0.4484 5.5937,2.3125 l 23.2188,23.1875 c -8e-5,0.01 -8e-5,0.021 0,0.031 2.8159,2.7749 6.3337,3.8776 9.625,3.625 3.2913,-0.2525 6.3647,-1.7827 8.6875,-4.0625 2.3227,-2.2797 3.9147,-5.3733 4.0937,-8.8125 0.1607,-3.0838 -0.8774,-6.3675 -3.3437,-9.375 0.8712,-1.5698 1.2009,-3.4937 0.4687,-5.375 -0.08901,-0.2185 -0.215968,-0.4195 -0.375,-0.5937 -12.1052,-13.7555 -22.1653,-25.47058 -34.2187,-39.15628 1.2876,-5.0605 0.2474,-10.8258 -4.3437,-15.40623 -3.4543,-3.45679 -7.9847,-5.18744 -12.5313,-5.1875 z m 0,4 c 3.5157,-10e-5 7.0294,1.33856 9.7187,4.03125 0.086,0.0859 0.1675,0.16366 0.25,0.25 0,0.11378 -0.018,0.40368 -0.2187,0.99998 -0.2574,0.764 -0.7618,1.8271 -1.5,2.9688 -1.4765,2.2833 -3.8007,4.9861 -6.3125,7.4687 -2.5118,2.4826 -5.2315,4.7547 -7.5312,6.2188 -1.1504,0.732 -2.2017,1.2401 -2.9688,1.5 -0.606,0.2052 -0.9077,0.2153 -1,0.2187 -0.065,-0.063 -0.1229,-0.1229 -0.1875,-0.1875 -5.3882,-5.3762 -5.3902,-14.0501 0,-19.43748 2.6951,-2.69367 6.2343,-4.03119 9.75,-4.03125 z m 12.7187,8.50003 c 1.1205,2.8482 0.9192,5.7699 -0.1562,8.5625 -1.6408,4.2563 -5.5056,7.9873 -9.8125,9.4375 -0.04199,0.009 -0.08368,0.0193 -0.125,0.031 -2.6281,0.8625 -5.3477,0.98 -8,-0.094 0.6288,-0.3224 1.282,-0.7077 1.9375,-1.125 2.655,-1.6901 5.5127,-4.1064 8.1875,-6.75 2.6747,-2.6436 5.131,-5.5071 6.8437,-8.1563 0.4204,-0.6496 0.8003,-1.2797 1.125,-1.9062 z m 35.0938,49.56248 c 0.2013,0.853 -0.161,1.7754 -0.9375,2.5312 -0.7671,0.7468 -1.7503,1.0879 -2.5625,0.9375 -21.276506,-14.9578 -12.818621,-26.16586 3.5,-3.4687 z"
       visibility="visible"
       display="inline"
       overflow="visible"
       id="path6"
       inkscape:connector-curvature="0"
       sodipodi:nodetypes="ssccccccsccccccccccscsccccsccccccscccccsccccsccccccccccccccc" />
  </g>
</svg>
