<?xml version="1.0" encoding="UTF-8"?><svg id="Layer_1" xmlns="http://www.w3.org/2000/svg" viewBox="0 0 160 240"><defs><style>.cls-1{stroke-width:0px;}</style></defs><path class="cls-1" d="m108.3971,81.236c-4.2933-.8627-9.0535.3082-12.4402,3.0612-5.1949,4.2228-7.3946,11.733-5.3668,18.0945,2.1609,6.7791,8.2721,11.4575,15.4312,11.4575,2.9542,0,5.848-.9814,8.2197-2.7369,11.5113-8.5208,4.8156-25.4404-2.6287-34.3185-4.0079-4.7799-9.1619-8.577-14.9426-10.9303-2.9386-1.1963-6.028-2.0175-9.1729-2.4375-1.6639-.2223-3.3393-.3266-5.0177-.3326-.7712-.0027-1.9791,0-2.4386,0s-7.5405.1837-12.496,1.4378c-1.819.4603-3.6414.9127-5.4232,1.5009-7.0317,2.3217-13.6155,6.0884-18.8275,11.3881-10.7991,10.9808-14.6771,26.4122-14.8067,41.439-.1289,14.9373,3.2737,30.6576,13.691,41.9121,5.0714,5.479,11.4287,9.4933,18.4318,12.0355,1.7595.6387,3.552,1.1862,5.366,1.6476.9389.2388,1.8836.4553,2.8328.6491.4761.0972.956.1747,1.4314.275,4.2598.8986,12.3954,1.1507,13.912,1.0524,1.1915-.0772,2.3772-.2333,3.5506-.4531,11.2074-2.0998,21.7153-9.5172,28.1589-18.8191,3.3063-4.773,5.611-10.3126,6.0605-16.1373.1067-1.3829.3817-3.0781-.8362-4.0593-.9557-.77-2.4329-.8955-3.4288-.1361-1.269.9676-1.3751,3.03-1.7934,4.4615-.4332,1.4824-.93,2.9464-1.4902,4.3857-4.3169,11.0913-12.8247,21.4638-24.7608,24.52-4.0328,1.0326-7.4465.8159-9.1801.7183-3.8362-.216-10.2408-.5766-14.9328-4.6343-3.8271-3.3098-5.7615-7.563-7.2997-15.0825-.9696-4.74-.0923-50.6998.1409-54.7775.5845-10.2175,2.5128-22.3066,13.3387-26.4124,0,0,4.82-1.7277,9.82-1.7277,15,0,22.9007,7.6782,26.8971,12.959Z"/></svg>