<?xml version="1.0" encoding="UTF-8"?><svg id="Layer_1" xmlns="http://www.w3.org/2000/svg" viewBox="0 0 160 240"><defs><style>.cls-1{stroke-width:0px;}</style></defs><path id="path18" class="cls-1" d="m111.0213,113.9382c-7.1591,0-13.2702-4.6784-15.4312-11.4574-2.0279-6.3615.1719-13.8717,5.3667-18.0945,3.3867-2.753,8.147-3.924,12.4402-3.0612-3.9964-5.2808-9.6222-9.2223-15.9347-11.215-3.2303-1.0197-6.5983-1.5137-9.9832-1.5279-.497-.0021-2.5777-.2648-2.8078.0624-.1014.1442,0,.7364,0,.9072v96.9639c0,1.3008-.127,2.6753,0,3.9712.0622.6346-.1589.4357.7615.5135,3.1164.2634,6.1394.0602,9.1801-.7183,11.9361-3.0562,20.4439-13.4286,24.7608-24.5199.5602-1.4393,1.057-2.9032,1.4902-4.3857.4183-1.4315.5244-3.4939,1.7934-4.4615.9959-.7594,2.4731-.6338,3.4288.1362,1.2178.9811.9429,2.6764.8361,4.0593-.4496,5.8247-2.7542,11.3643-6.0605,16.1373-6.4436,9.3019-16.9515,16.7193-28.1589,18.8191-1.1734.2198-2.3591.3759-3.5506.4531-1.5166.0983-2.9738-.1617-4.4809-.1617v15.5055c0,1.4809.0568,3.2607-1.8888,3.4879-.8767.1024-1.8077.0131-2.6879.0131-.8779,0-1.9123.1366-2.6489-.443-1.0265-.8076-.7657-2.4521-.7657-3.6129v-12.5607c0-.5978.3031-2.7576-.1603-3.0632-.2483-.1638-.9809-.1635-1.2795-.2173-.4782-.0862-.9553-.1778-1.4314-.275-.9493-.1938-1.8939-.4103-2.8329-.6491-1.8139-.4614-3.6065-1.0089-5.366-1.6476-7.0031-2.5421-13.3605-6.5565-18.4318-12.0354-10.4172-11.2545-13.8199-26.9748-13.691-41.9121.1296-15.0269,4.0076-30.4582,14.8067-41.439,5.2121-5.2997,11.7959-9.0665,18.8275-11.3881,1.7818-.5883,3.593-1.0873,5.4232-1.501.8944-.2022,1.7933-.3843,2.6957-.5471.2876-.0519,1.3253-.096,1.4398-.3032.1352-.2447,0-.9648,0-1.2356v-14.8468c0-1.4826-.0592-3.2725,1.8888-3.4996.815-.095,1.6796-.0131,2.4976-.0131.9207,0,2.0669-.1648,2.8393.443,1.0348.8144.7657,2.5068.7657,3.6781v14.3929c0,.53-.0932.402.3692.4934.7526.1488,1.6674-.0027,2.4386,0,1.6784.0059,3.3537.1103,5.0177.3326,3.1448.4201,6.2343,1.2412,9.1728,2.4375,5.7806,2.3533,10.9346,6.1504,14.9426,10.9303,7.4444,8.8782,14.14,25.7977,2.6287,34.3185-2.3716,1.7555-5.2654,2.7369-8.2197,2.7369Zm-47.9482,16.8448c0,6.8264.0072,13.7474,1.1273,20.5005.8237,4.9664,2.3604,10.1056,5.8917,13.8502,1.8352,1.946,4.1092,3.3441,6.588,4.312v-97.8657c0-.2976.1431-1.0474,0-1.3156-.0187-.0351,0-.1276,0-.1707-10.826,4.1057-12.7543,16.1949-13.3388,26.4123-.2333,4.0777-.2682,8.165-.2682,12.2483"/></svg>