<?xml version="1.0" encoding="UTF-8"?><svg id="Layer_1" xmlns="http://www.w3.org/2000/svg" viewBox="0 0 160 240"><defs><style>.cls-1{stroke-width:0px;}</style></defs><path class="cls-1" d="m95.77,25.7504h-6.27v144.4643c-7.6429-6.2516-21.0633-6.9879-33.8585-.9811-1.0209.4792-2.0687.8838-3.0318,1.4233-14.446,8.0931-22.1434,22.7437-17.4084,33.7647,5.0506,11.7559,22.406,15.0736,38.7396,7.4057,13.2054-6.1994,21.7158-17.6902,21.8239-28.077h.0052V25.7504Z"/><path id="path7511-7" class="cls-1" d="m133.0852,183.6618c3.7614,5.1957,2.6,12.4567-2.5946,16.2197s-12.4559,2.6038-16.2205-2.5896c-3.7646-5.1934-2.6076-12.4551,2.5847-16.2213,5.1922-3.7662,12.4543-2.6114,16.2221,2.5797"/></svg>