<?xml version="1.0" encoding="UTF-8"?><svg id="Layer_1" xmlns="http://www.w3.org/2000/svg" viewBox="0 0 160 240"><defs><style>.cls-1{stroke-width:0px;}</style></defs><path class="cls-1" d="m112.682,89.557c-5.3475-11.7043-14.9714-21.0546-24.6772-29.8045-4.8454-4.3681-9.9374-8.903-12.2-14.9022-1.0271-2.7232-1.6945-7.4848-2.0347-11.5755v-7.5244h-6.27v144.4643c-7.6429-6.2516-21.0633-6.9879-33.8585-.9811-1.0209.4792-2.0687.8838-3.0318,1.4233-14.446,8.0931-22.1434,22.7437-17.4084,33.7647,5.0506,11.7559,22.406,15.0736,38.7396,7.4057,13.2054-6.1994,21.7158-17.6902,21.8239-28.077h.0052v-107.702c7.4734,1.2621,14.5934,4.4282,20.3839,9.1374,6.338,5.1544,11.0648,12.1108,13.4238,19.7557,2.6051,8.4425,2.3261,17.51.5882,26.1555-1.0366,5.1568-2.5779,10.2078-3.7327,15.3414-.4355,1.9359-.8162,3.8856-1.0398,5.8544-.0729.6418-.1285,1.2955,0,1.9293.0497.2453.1276.4869.2513.7068.1238.2198.2952.4177.5112.5573.296.1913.6662.2646,1.0213.2308.355-.0336.6949-.1698.9889-.3639.4349-.2871.7703-.696,1.0294-1.1373.2592-.4413.447-.9171.6342-1.3907,2.2174-5.6083,4.4979-11.2034,6.2386-16.9646,4.573-15.1351,5.2075-31.8714-1.3864-46.3034Z"/><circle class="cls-1" cx="105.5" cy="190.8537" r="11"/></svg>