<?xml version="1.0" encoding="UTF-8"?><svg id="Layer_1" xmlns="http://www.w3.org/2000/svg" viewBox="0 0 160 140"><defs><style>.cls-1{isolation:isolate;opacity:.9;}.cls-1,.cls-2{stroke-width:0px;}</style></defs><path id="path3937" class="cls-1" d="m53.1747,50.5757c-24.2025.8662-43.3825,12.2783-43.3825,26.1484,0,14.4339,20.7666,26.1484,46.3539,26.1484s46.3539-11.7145,46.3539-26.1484-20.7666-26.1484-46.3539-26.1484c-.9995,0-1.9876-.0352-2.9714,0Zm-7.7257,5.0514c6.4558-.6608,14.5859,2.3324,21.3941,8.4683,10.198,9.1909,13.6505,22.0782,7.7257,28.8226l-.1486.1488c-6.042,6.704-19.3132,4.6344-29.5655-4.6059-10.2523-9.2399-13.6191-22.267-7.5771-28.971,2.0297-2.2521,4.9055-3.5286,8.1714-3.8628Z"/><circle class="cls-2" cx="133.5" cy="73" r="11"/></svg>