<?xml version="1.0" encoding="UTF-8"?><svg id="Layer_1" xmlns="http://www.w3.org/2000/svg" viewBox="0 0 160 240"><defs><style>.cls-1{stroke-width:0px;}</style></defs><circle class="cls-1" cx="116.5" cy="190.8537" r="11"/><path class="cls-1" d="m87.8001,26.1739h-6v143.6819c-2.424-1.9137-5.3616-3.1276-8.3608-3.4833-.6587-.1057-1.3206-.1896-1.9841-.2516l.0004-.004c-12.0079-1.0309-24.0433,5.0311-32.3489,14.332-5.568,6.3891-9.7545,16.0102-6.4893,24.6024,2.4225,6.8887,9.4012,10.1839,15.8644,10.4086,11.1115.7871,21.9927-4.8258,30.1304-12.8192,5.6395-5.7531,10.2653-14.2183,8.96-22.7327l.228.266V26.1739Zm-4.2234,153.1998v.0005c-1.0623,5.7566-5.5906,9.8096-9.4706,13.5495-8.599,7.3482-18.8232,12.9103-29.6885,14.6375-3.199.292-8.3231.38-8.8304-4.1074-.4542-4.7407,3.1839-8.5225,5.9608-11.7379,7.1151-7.368,16.0298-12.535,25.2757-15.9678,4.7793-1.4299,10.3569-3.2758,14.9835-.57,1.248.9219,2.0187,2.5369,1.7696,4.1957Z"/></svg>