<?xml version="1.0" encoding="UTF-8"?><svg id="Layer_1" xmlns="http://www.w3.org/2000/svg" viewBox="0 0 160 240"><defs><style>.cls-1{stroke-width:0px;}</style></defs><path id="path2818" class="cls-1" d="m111.3065,80.0682l-28.1822,100.9318h-10.8141l21.1367-75.8626c-9.2849,4.5879-16.7127,6.8817-22.2836,6.8818-5.6802-.0003-10.9234-2.0208-15.7296-6.0626-4.697-4.0416-7.0456-8.9025-7.0456-14.5827,0-4.8063,1.6931-8.9025,5.0794-12.2889,3.3862-3.3862,7.4825-5.0792,12.2888-5.0792s8.9025,1.693,12.2888,5.0792c3.3862,3.3864,5.0793,7.4826,5.0794,12.2889,0,2.8399-.6554,5.5163-1.9662,8.0287.5461.4369,1.0377.6553,1.4747.6553,3.1677,0,7.3186-2.6216,12.4526-7.8648,4.1508-4.1507,7.4278-8.1925,9.831-12.1249h6.3902"/></svg>