<?xml version="1.0" encoding="UTF-8"?><svg id="Layer_1" xmlns="http://www.w3.org/2000/svg" viewBox="0 0 160 240"><defs><style>.cls-1{stroke-width:0px;}</style></defs><g id="layer3"><path id="text1412" class="cls-1" d="m68.7376,24.0001v113.6741c7.8109-8.1661,16.5764-12.3487,26.2966-12.548,6.0751,0,11.2823,2.8881,15.6218,8.664,3.8186,5.3777,5.8147,11.3529,5.9883,17.9256.1735,5.1785-.9547,11.1537-3.3847,17.9256-.8679,2.7884-2.7772,5.776-5.728,8.9628-2.2565,2.3901-4.5998,4.8797-7.0298,7.469-12.8446,10.7553-25.6891,21.6103-38.5337,32.5648V24h6.7694m21.0894,120.2468c-2.0829-2.7884-4.7733-4.1826-8.0712-4.1826-4.1658,0-7.5505,2.6888-10.1542,8.0665-1.9093,4.1827-2.864,14.0417-2.864,29.5773v25.6934c.1736.7966,5.0337-4.0831,14.5803-14.6393,5.2072-5.5768,8.5919-12.1496,10.1542-19.7182.6943-2.9876,1.0414-5.9752,1.0414-8.9628,0-6.5727-1.5622-11.8508-4.6865-15.8343"/></g></svg>