<?xml version="1.0" encoding="UTF-8"?><svg id="Layer_1" xmlns="http://www.w3.org/2000/svg" viewBox="0 0 160 240"><defs><style>.cls-1{stroke-width:0px;}</style></defs><path id="path11528" class="cls-1" d="m42.4231,97.3679v-8.0168l3.36-3.9563,3.8851-4.4769,3.9126-5.5422,3.1225-6.3267,3.57-8.9538,3.15-8.9538,2.8351-11.869,1.575-8.7456.735-6.1427,35.0705-.3123-.21,4.3728-3.7801,5.8304-5.1451,7.288-5.2501,6.8715-6.5101,8.4332-6.6151,8.1209-9.4501,9.7867-13.3352,12.806v1.874l28.5604-.3123.1051-18.6364,22.6803-22.905,1.68-.1042v41.3332l10.1851-.2082v8.9538l-10.5001.3123-.1051,4.581.63,4.1646,1.68,4.7892,2.9401,2.6028,2.9401.8329,2.835.7288-.1051,6.9756-46.3056.1042-.21-6.9756,3.57-.3123,2.4151-.6247,3.15-2.0823,1.155-2.2905.945-3.8522.315-4.6851-.1051-4.1645-39.3754-.3123Z"/><path id="path11528-2" class="cls-1" d="m42.4231,198.7721v-8.0168l3.36-3.9563,3.8851-4.4769,3.9126-5.5422,3.1225-6.3267,3.57-8.9538,3.15-8.9538,2.8351-11.869,1.575-8.7456.735-6.1427,35.0705-.3123-.21,4.3728-3.7801,5.8304-5.1451,7.288-5.2501,6.8715-6.5101,8.4332-6.6151,8.1209-9.4501,9.7867-13.3352,12.806v1.874l28.5604-.3123.1051-18.6364,22.6803-22.905,1.68-.1042v41.3332l10.1851-.2082v8.9538l-10.5001.3123-.1051,4.581.63,4.1646,1.68,4.7892,2.9401,2.6028,2.9401.8329,2.835.7288-.1051,6.9756-46.3056.1042-.21-6.9756,3.57-.3123,2.4151-.6247,3.15-2.0823,1.155-2.2905.945-3.8522.315-4.6851-.1051-4.1645-39.3754-.3123Z"/></svg>