<?xml version="1.0" encoding="UTF-8"?><svg id="Layer_1" xmlns="http://www.w3.org/2000/svg" viewBox="0 0 160 240"><defs><style>.cls-1{stroke-width:0px;}</style></defs><path id="path58" class="cls-1" d="m45.5993,166.5724c0-7.6077,2.9887-11.4116,10.8682-11.4116,8.9662,0,21.1929,3.5322,32.3328,8.4228l-35.8649-42.9293c-1.9019-2.4453-2.717-4.619-2.717-6.7926,0-9.2379,13.5852-17.9325,23.6383-26.8987,6.7926-5.9775,10.0531-14.1286,10.0531-22.5514,0-6.5209-2.1736-13.3135-6.7926-18.7476l-9.5096-11.4116c-.8151-.8151-1.0868-1.9019-1.0868-2.717,0-2.4453,2.4453-4.0756,4.619-4.0756,1.0868,0,2.1736.2717,2.9887,1.3585l41.0273,48.9067c1.9019,2.4453,2.717,4.619,2.717,6.7926,0,9.2379-13.5852,17.9325-23.6383,26.8987-6.7926,5.9775-10.0531,14.1286-10.0531,22.5514,0,6.5209,1.9019,13.3135,6.5209,18.7476l22.8231,26.8987c.8151.8151,1.0868,1.9019,1.0868,2.717,0,2.4453-2.1736,4.3473-4.3473,4.3473-1.0868,0-2.4453-.5434-3.2604-1.6302-4.8907-5.7058-17.1174-10.3248-26.3553-10.3248-11.1399,0-14.4003,7.0643-14.4003,18.2042,0,9.5096,2.9887,20.1061,7.6077,25.5402,1.3585,1.6302,0,3.5322-1.6302,3.5322-.5434,0-1.0868,0-1.6302-.5434-12.2267-14.672-24.9968-40.2122-24.9968-54.8842Z"/></svg>