<?xml version="1.0" encoding="UTF-8"?><svg id="Layer_1" xmlns="http://www.w3.org/2000/svg" viewBox="0 0 160 240"><defs><style>.cls-1{stroke-width:0px;}</style></defs><path id="path3055" class="cls-1" d="m102.525,200.3094c0,2.5813-2.0651,4.9046-4.6464,4.9046s-4.9046-2.3232-4.9046-4.9046v-37.4295l-21.4252,8.0022v40.7852c0,2.5813-2.3232,4.9046-4.9046,4.9046s-4.6464-2.3232-4.6464-4.9046v-37.4295l-8.2603,3.0976c-.5163.2581-1.2907.2581-1.8069.2581-2.8395,0-5.1627-2.3232-5.1627-5.1627v-15.4881c0-2.0651,1.2907-4.1302,3.3557-4.9046l11.8742-4.1302v-41.3015l-8.2603,2.8395c-.5163.2581-1.2907.2581-1.8069.2581-2.8395,0-5.1627-2.3232-5.1627-5.1627v-15.4881c0-2.0651,1.2907-3.872,3.3557-4.6464l11.8742-4.3883v-40.7852c0-2.5813,2.0651-4.9046,4.6464-4.9046s4.9046,2.3232,4.9046,4.9046v37.4295l21.4252-8.0022V27.8756c0-2.5813,2.3232-4.9046,4.9046-4.9046s4.6464,2.3232,4.6464,4.9046v37.4295l8.2603-3.0976c.5163-.2581,1.2907-.2581,1.8069-.2581,2.8395,0,5.1627,2.3232,5.1627,5.1627v15.4881c0,2.0651-1.2907,4.1302-3.3557,4.9046l-11.8742,4.1302v41.3015l8.2603-2.8395c.5163-.2581,1.2907-.2581,1.8069-.2581,2.8395,0,5.1627,2.3232,5.1627,5.1627v15.4881c0,2.0651-1.2907,3.872-3.3557,4.6464l-11.8742,4.3883v40.7852Zm-30.9761-97.3167v41.3015l21.4252-7.744v-41.3015l-21.4252,7.744Z"/></svg>