<?xml version="1.0" encoding="UTF-8"?><svg id="Layer_1" xmlns="http://www.w3.org/2000/svg" viewBox="0 0 160 240"><defs><style>.cls-1{stroke-width:0px;}</style></defs><path id="path66" class="cls-1" d="m60.0561,200.7622l22.6014-73.1748c-7.6084,2.6853-15.6643,5.1469-23.7203,5.1469-10.2937,0-19.4685-7.3846-19.4685-17.6783,0-8.951,7.1608-16.1119,16.1119-16.1119,5.5944,0,10.965,3.3566,12.7552,8.7273,2.2378,6.2657,1.1189,13.2028,7.6084,13.2028,3.5804,0,12.3077-11.4126,13.4266-15.2168l10.2937-33.7902c-7.6084,2.6853-15.2168,4.9231-23.2727,4.9231-10.2937,0-19.4685-7.3846-19.4685-17.6783,0-8.951,7.3846-16.1119,16.3357-16.1119,5.5944,0,10.7413,3.3566,12.5315,8.7273,2.2378,6.2657,1.1189,13.2028,7.6084,13.2028,3.3566,0,11.1888-10.965,12.7552-14.0979,1.3427-2.6853,5.1469-2.6853,6.2657,0l-40.0559,149.9301c-1.7902,1.5664-3.8042,2.2378-6.042,2.2378s-4.4755-.6713-6.2657-2.2378Z"/></svg>