<?xml version="1.0" encoding="UTF-8"?><svg id="Layer_1" xmlns="http://www.w3.org/2000/svg" viewBox="0 0 160 240"><defs><style>.cls-1{stroke-width:0px;}</style></defs><path class="cls-1" d="m48.6572,213.7533c-3.3184-.3247-6.5066-1.1251-9.4889-2.6456-2.7324-1.3931-5.0412-3.2837-6.7629-5.8517-1.2022-1.7932-1.9905-3.7554-2.344-5.8783-.1628-.9776-.2818-1.9767-.2751-2.965.0092-1.3442.1792-2.6837.4765-4.0027.6122-2.7154,1.7205-5.2227,3.1775-7.5808,2.3129-3.7434,5.3101-6.8614,8.7806-9.5413,4.135-3.1931,8.7171-5.5405,13.6689-7.1716,2.8843-.9501,5.8412-1.5759,8.867-1.8818,2.3531-.2379,4.7065-.2775,7.0578-.0517,3.566.3424,6.9869,1.2193,10.1477,2.9557.7221.3967,1.3976.8783,2.0941,1.3216.1243.0791.2462.162.4435.2921V39.475c0-3.6579-.0001-7.3159.0003-10.9738,0-.1836.0046-.3672.0071-.5508,2.143,0,4.2861,0,6.4291,0,.0305.6247.0404,1.2511.0952,1.8736.1959,2.2265.4976,4.4388,1.0085,6.6168.6209,2.6472,1.5118,5.197,2.8276,7.5859.7395,1.3424,1.5677,2.6223,2.5675,3.7935,3.487,4.0847,7.3241,8.8153,11.3925,12.3123,1.5667,1.3467,3.158,2.6647,4.7406,3.9929,3.6593,3.071,6.9509,5.4962,9.9182,9.2389,2.2947,2.8943,4.4315,5.895,6.2566,9.1101,1.9099,3.3644,3.2454,6.9488,4.079,10.7231.7583,3.4335,1.2368,6.8998,1.0776,10.4244-.0897,1.9862-.2464,3.9702-.4119,5.9519-.1974,2.3637-.5271,4.712-.9293,7.0495-.5085,2.9556-1.1208,5.8885-1.9981,8.7595-.1186.388-.1009.7229.0413,1.1024,1.2069,3.2202,2.0072,6.5441,2.5136,9.9434.3905,2.6212.6094,5.2563.7442,7.9018.1524,2.9904-.0182,5.9636-.3648,8.9323-.5141,4.4032-1.6768,8.6437-3.2787,12.7617-1.2502,3.2137-2.8355,6.2708-4.6301,9.2157-.533.8746-1.0901,1.737-1.684,2.5709-.2889.4057-.6783.7431-1.0408,1.0921-.2258.2174-.5158.3223-.8342.3373-.5575.0264-.9946-.3001-1.0549-.86-.0317-.2946-.0096-.6221.0896-.8984.237-.6606.519-1.3065.8096-1.9461,1.0249-2.2557,2.0943-4.4919,3.085-6.7624,1.386-3.1764,2.4408-6.4685,3.1432-9.8617.3033-1.465.4782-2.9593.6553-4.447.2389-2.0064.371-4.0226.3711-6.045.0001-3.388-.4471-6.7107-1.4729-9.9468-.8664-2.7332-2.1393-5.2656-3.768-7.6232-.9239-1.3374-1.9642-2.5795-3.0333-3.8013-3.4955-3.9948-7.502-6.4226-11.7486-9.5798-4.2738-3.1774-8.5798-7.3114-12.8515-10.4915-1.9883-1.4802-3.929-3.0245-5.8916-4.5392-.1189-.0918-.2411-.1795-.4059-.302-.0264.1371-.0554.2309-.0603.326-.0087.1679-.0029.3366-.0029.505,0,26.3882-.0154,53.7764.0156,80.1646.005,4.2371-1.1808,8.0748-3.3509,11.6566-2.0112,3.3196-4.6078,6.1348-7.5266,8.6645-2.9236,2.5339-6.1917,4.5283-9.703,6.1392-2.7027,1.2399-5.4698,2.2985-8.3545,3.0325-2.1675.5515-4.3634.9435-6.594,1.1325m35.579-148.7217c-.0218.1526-.0351.1972-.0332.2411.0065.1528.0134.3059.0287.4581.192,1.9199.5091,3.8179,1.0001,5.6852,1.1355,4.3184,2.8529,8.3935,5.1785,12.2034,1.9459,3.188,4.3046,7.0641,6.9048,9.7325,2.8189,2.8929,5.6964,5.7289,8.5642,8.5738,3.0633,3.0388,6.1887,5.0167,9.0633,8.2396.9059,1.0157,1.8171,2.0333,2.6384,3.1163,1.3777,1.8165,2.6359,3.7186,3.7662,5.702.0565.0991.1331.1867.229.3193.0233-.1177.0402-.176.0457-.2353.0493-.5331.106-1.0657.143-1.5996.2495-3.6081.2665-7.2143-.0608-10.8202-.1911-2.1046-.4844-4.1926-.9504-6.2533-.4086-1.807-.9088-3.5886-1.7378-5.2569-2.4506-4.9316-5.634-8.3446-9.4586-12.2985-1.7363-1.795-3.636-3.4147-5.5352-5.0298-3.3875-2.8806-7.0222-5.4205-10.8501-7.6813-2.1089-1.2456-4.2743-3.3852-6.5612-4.2741-.7662-.2978-1.5541-.5399-2.3744-.8221Z"/></svg>