<?xml version="1.0" encoding="UTF-8"?><svg id="Layer_1" xmlns="http://www.w3.org/2000/svg" viewBox="0 0 160 240"><defs><style>.cls-1{stroke-width:0px;}</style></defs><path class="cls-1" d="m49.7196,47.0012c0-16.6759,15.7495-22.9294,34.5099-22.9294,19.6869,0,34.0467,9.9592,33.8151,23.161.2316,12.7386-9.9592,21.0765-20.3817,24.3191,11.5805,1.3897,21.7714,9.496,21.7714,22.003,0,19.6869-18.5288,27.7932-38.4473,27.7932-19.2236,0-33.3519-10.4225-33.3519-20.6133,0-10.8857,5.7903-15.2863,12.7386-15.2863,9.2644,0,13.4334,3.2425,13.4334,12.2753,0,4.6322-2.0845,10.6541-3.9374,13.2018,1.6213,2.0845,4.169,3.7058,9.9592,3.7058,11.5805,0,17.3708-9.2644,17.3708-16.9075-.2316-16.2127-12.7386-20.8449-30.1093-25.9403,20.8449-4.6322,29.1829-9.0328,29.1829-22.2346,0-9.7276-5.7903-18.2972-18.0656-18.2972-7.3652,0-11.5805,2.0845-11.3489,5.5586,6.9483.4632,8.5696,4.8638,8.5696,12.2753,0,7.8747-8.8012,13.2018-14.1282,13.2018-6.9483,0-12.0437-8.8012-12.0783-14.9443l.4978-.342Z"/><path id="path11528" class="cls-1" d="m46.0602,198.6371v-8.0596l3.378-3.9774,3.9058-4.5008,3.9335-5.5718,3.1392-6.3605,3.5891-9.0016,3.1668-9.0016,2.8502-11.9323,1.5834-8.7923.7389-6.1755,35.2577-.314-.2111,4.3961-3.8003,5.8615-5.1725,7.3269-5.2781,6.9082-6.5449,8.4782-6.6504,8.1642-9.5006,9.839-13.4064,12.8744v1.884l28.7129-.314.1056-18.7359,22.8014-23.0273,1.689-.1048v41.5539l10.2395-.2093v9.0016l-10.5562.314-.1056,4.6055.6334,4.1868,1.689,4.8148,2.9557,2.6167,2.9557.8374,2.8502.7327-.1056,7.0129-46.5528.1047-.2111-7.0129,3.5891-.314,2.428-.628,3.1669-2.0934,1.1612-2.3027.9501-3.8728.3167-4.7102-.1056-4.1868-39.5856-.314Z"/></svg>