<?xml version="1.0" encoding="UTF-8"?><svg id="Layer_1" xmlns="http://www.w3.org/2000/svg" viewBox="0 0 160 240"><defs><style>.cls-1{stroke-width:0px;}</style></defs><path id="path3703" class="cls-1" d="m67.5238,223.3291c-12.6081-2.5932-21.2027-8.9094-24.6631-18.1246-1.3363-3.5585-1.8135-9.6846-1.0652-13.6743.9115-4.8598,3.8225-9.9155,7.4968-13.0192,1.6379-1.3835,6.6912-4.0781,7.6596-4.0842.3352-.0024-.3773-.5961-1.5826-1.3196-5.3558-3.2149-9.6577-9.5604-11.0059-16.2345-.9177-4.5426-.5436-11.3535.8347-15.1938,2.6669-7.4314,8.0836-12.6165,16.3809-15.6808,5.0003-1.8469,9.6356-2.5692,16.488-2.5692,16.895,0,29.4774,6.1305,33.4634,16.3037,1.2486,3.1872,1.5834,9.9936.6783,13.7957-1.4099,5.9225-5.6935,12.6678-10.4788,16.5008l-1.7613,1.4108,2.9063,1.5814c3.7183,2.0232,8.4463,6.8875,9.9998,10.2876,1.9195,4.2019,2.472,7.7942,1.9777,12.86-1.2548,12.86-10.4229,22.4937-25.4729,26.7668-4.6712,1.3261-16.3021,1.5354-21.8557.3933Zm16.5129-7.7759c7.6456-1.993,12.0602-6.3899,12.1002-12.0518.0423-6.0072-4.2547-10.9733-14.4713-16.7239-4.5689-2.5716-15.4302-7.8878-16.1156-7.8878-.9214,0-4.965,3.2076-6.6978,5.3134-5.1492,6.2564-5.822,16.4397-1.5195,22.9998,2.4245,3.6966,7.5022,7.0682,12.5871,8.3577,3.3436.8477,10.8516.844,14.1169-.0073Zm6.2023-53.0793c4.7525-3.2055,7.4358-7.6211,8.2222-13.5294,1.3414-10.0808-3.1728-16.5656-12.9935-18.6653-4.5765-.9784-13.4624-.6421-16.6068.6286-5.317,2.1486-7.5583,5.4306-7.5583,11.0673,0,5.5153,2.5991,9.9623,8.1939,14.0196,1.6639,1.2068,4.5906,2.9539,6.5041,3.883,4.0818,1.982,11.2748,4.5182,11.8473,4.1774.2193-.1307,1.2952-.8424,2.3911-1.5814Z"/><path class="cls-1" d="m46.7618,46.573c0-16.3645,15.4554-22.5012,33.8654-22.5012,19.3192,0,33.4109,9.7732,33.1836,22.7285.2273,12.5007-9.7733,20.6829-20.0011,23.8649,11.3642,1.3637,21.3648,9.3187,21.3648,21.5921,0,19.3192-18.1828,27.2742-37.7293,27.2742-18.8646,0-32.729-10.2278-32.729-20.2283,0-10.6824,5.6821-15.0008,12.5007-15.0008,9.0914,0,13.1825,3.182,13.1825,12.0461,0,4.5457-2.0456,10.4551-3.8638,12.9552,1.591,2.0456,4.0911,3.6366,9.7733,3.6366,11.3642,0,17.0464-9.0914,17.0464-16.5918-.2273-15.9099-12.5007-20.4556-29.547-25.4559,20.4556-4.5457,28.6379-8.8641,28.6379-21.8193,0-9.546-5.6821-17.9555-17.7282-17.9555-7.2277,0-11.3642,2.0456-11.137,5.4548,6.8185.4546,8.4095,4.773,8.4095,12.0461,0,7.7277-8.6368,12.9552-13.8644,12.9552-6.8185,0-11.8188-8.6368-11.8527-14.6652l.4885-.3356Z"/></svg>