<?xml version="1.0" encoding="UTF-8"?><svg id="Layer_1" xmlns="http://www.w3.org/2000/svg" viewBox="0 0 160 240"><defs><style>.cls-1{stroke:#000;stroke-miterlimit:10;}</style></defs><path class="cls-1" d="m58.9369,133.0096c-4.1386,6.0856,3.7982,8.8731,3.7982,8.8731,0,0,17.3205,9.4901,4.0748,20.0974-12.767,10.2349-21.3741-.0957-21.3741-.0957,0,0-13.1713-19.7356,9.9582-31.2365,16.2034-8.0538,38.7478-4.7983,50.0678,1.0001,7.9687,4.0748,20.5442,17.278,9.4156,33.141-2.5853,3.6811-2.713,4.6174-17.0226,11.7669-12.5116,6.2558-21.5549,7.5325-26.9809,12.5861-.5426.5-1.3937,1.7448-1.6278,2.447-.2128.6171-.1064,1.681.4788,2.5853.5107.7767,1.3937,1.1384,1.9682,1.2235.6064.0851,1.8406.0745,2.447,0,6.6601-.7873,10.2774-.1383,25.8106,7.3304,15.5438,7.4793,15.214-11.4052,15.214-11.4052l5.4366-.2766s1.4895,37.3541-28.7895,32.609c-16.9801-2.6598-16.2992-14.682-30.1514-15.2246-4.5855-.1809-13.8522,1.9044-14.3948,11.4052l-6.7878.5426s-3.5322-14.9374,13.5756-24.7147c17.1078-9.7774,29.8854-20.4378,29.8854-20.4378,0,0,20.64-22.0337,4.9791-40.599-1.3193-1.564-6.5537-8.9901-22.0975-5.4366-4.128.9575-6.3409,1.5533-7.8836,3.8195Z"/><path class="cls-1" d="m58.9369,31.2471c-4.1386,6.0856,3.7982,8.8731,3.7982,8.8731,0,0,17.3205,9.4901,4.0748,20.0974-12.767,10.2349-21.3741-.0957-21.3741-.0957,0,0-13.1713-19.7356,9.9582-31.2365,16.2034-8.0538,38.7478-4.7983,50.0678,1.0001,7.9687,4.0748,20.5442,17.278,9.4156,33.141-2.5853,3.6811-2.713,4.6174-17.0226,11.7669-12.5116,6.2558-21.5549,7.5325-26.9809,12.5861-.5426.5-1.3937,1.7448-1.6278,2.447-.2128.6171-.1064,1.681.4788,2.5853.5107.7767,1.3937,1.1384,1.9682,1.2235.6064.0851,1.8406.0745,2.447,0,6.6601-.7873,10.2774-.1383,25.8106,7.3304,15.5438,7.4793,15.214-11.4052,15.214-11.4052l5.4366-.2766s1.4895,37.3541-28.7895,32.609c-16.9801-2.6598-16.2992-14.682-30.1514-15.2246-4.5855-.1809-13.8522,1.9044-14.3948,11.4052l-6.7878.5426s-3.5322-14.9374,13.5756-24.7147c17.1078-9.7774,29.8854-20.4378,29.8854-20.4378,0,0,20.64-22.0337,4.9791-40.599-1.3193-1.564-6.5537-8.9901-22.0975-5.4366-4.128.9575-6.3409,1.5533-7.8836,3.8195Z"/></svg>