<?xml version="1.0" encoding="UTF-8"?><svg id="Layer_1" xmlns="http://www.w3.org/2000/svg" viewBox="0 0 160 240"><defs><style>.cls-1{stroke:#000;stroke-miterlimit:10;}.cls-2{stroke-width:0px;}</style></defs><path class="cls-1" d="m60.6302,30.9869c-3.9886,5.865,3.6605,8.5513,3.6605,8.5513,0,0,16.6926,9.146,3.9271,19.3687-12.3041,9.8638-20.5991-.0923-20.5991-.0923,0,0-12.6937-19.0201,9.5972-30.104,15.616-7.7618,37.3429-4.6243,48.2526.9638,7.6798,3.9271,19.7993,16.6515,9.0743,31.9394-2.4916,3.5477-2.6146,4.45-16.4055,11.3403-12.058,6.029-20.7734,7.2594-26.0027,12.1298-.5229.4819-1.3432,1.6816-1.5688,2.3583-.2051.5947-.1025,1.62.4614,2.4916.4922.7485,1.3432,1.0971,1.8969,1.1791.5844.082,1.7738.0718,2.3583,0,6.4186-.7588,9.9048-.1333,24.8748,7.0646,14.9802,7.2081,14.6624-10.9917,14.6624-10.9917l5.2395-.2666s1.4355,35.9997-27.7457,31.4267c-16.3645-2.5634-15.7082-14.1497-29.0582-14.6726-4.4192-.1743-13.3499,1.8354-13.8729,10.9917l-6.5417.5229s-3.4041-14.3958,13.0834-23.8187c16.4875-9.4229,28.8018-19.6968,28.8018-19.6968,0,0,19.8916-21.2348,4.7986-39.127-1.2714-1.5073-6.3161-8.6641-21.2963-5.2395-3.9783.9228-6.111,1.497-7.5978,3.681Z"/><path id="path11528" class="cls-2" d="m42.5996,197.7982v-8.3254l3.4894-4.1086,4.0346-4.6492,4.0632-5.7556,3.2427-6.5703,3.7075-9.2985,3.2713-9.2985,2.9442-12.3259,1.6356-9.0822.7633-6.3792,36.4206-.3244-.2181,4.5411-3.9256,6.0548-5.3431,7.5685-5.4522,7.136-6.7607,8.7579-6.8698,8.4335-9.8139,10.1635-13.8486,13.299v1.9462l29.6599-.3244.1091-19.3538,23.5534-23.7868,1.7447-.1082v42.9244l10.5772-.2162v9.2985l-10.9043.3244-.1091,4.7574.6543,4.3249,1.7447,4.9736,3.0532,2.703,3.0532.865,2.9442.7568-.1091,7.2442-48.0883.1082-.2181-7.2442,3.7075-.3244,2.508-.6487,3.2713-2.1624,1.1995-2.3787.9814-4.0005.3271-4.8655-.1091-4.3249-40.8912-.3244Z"/></svg>