<?xml version="1.0" encoding="UTF-8"?><svg id="Layer_1" xmlns="http://www.w3.org/2000/svg" viewBox="0 0 160 140"><defs><style>.cls-1{isolation:isolate;opacity:.9;stroke-width:0px;}</style></defs><path id="path3937" class="cls-1" d="m77.4503,50.5769c-26.03.9316-46.6581,13.2054-46.6581,28.1227,0,15.5237,22.3346,28.1227,49.8539,28.1227s49.8539-12.599,49.8539-28.1227-22.3346-28.1227-49.8539-28.1227c-1.075,0-2.1376-.0378-3.1958,0Zm-8.309,5.4328c6.9432-.7107,15.6873,2.5085,23.0095,9.1077,10.968,9.8849,14.6812,23.7453,8.309,30.9989l-.1598.16c-6.4982,7.2102-20.7714,4.9844-31.7978-4.9537-11.0264-9.9375-14.6474-23.9483-8.1492-31.1584,2.183-2.4221,5.2759-3.795,8.7883-4.1545Z"/></svg>